<svg id="Livello_1" data-name="Livello 1" xmlns="http://www.w3.org/2000/svg" viewBox="0 0 769.147 542.918"><rect x="269.147" y="15.101" width="500" height="500" style="fill:#0a5a5c"/><rect x="28.402" y="125.79" width="9.88" height="46.068" rx="3.429" style="fill:#fcc107"/><rect x="28.402" y="125.79" width="9.88" height="46.068" rx="3.429" style="fill:#fcc107"/><path d="M-167.684,249.325v29.643c0,15.195-.248,30.391-.248,45.586,0,7.473,0,15.2.248,22.668.25,8.22,4.983,14.946,13.452,15.693h27.4c8.968-.747,15.2-13.7,19.43-41.1h1.993l-2.242,41.1v1.993h-90.673v-1.993h.5c11.708,0,14.448-9.964,14.448-20.177-.249,0-.249-13.949-.249-32.882V247.83c.249-12.454.249-23.166.249-29.891V211.96a20.153,20.153,0,0,0-2.989-9.217,13.032,13.032,0,0,0-9.715-5.729h-2.242v-1.993h37.615c23.664-.249,49.072-.748,53.307-4.234.748,15.693,1.495,31.386,2.491,47.08H-106.9c-1.494-9.466-5.729-40.106-20.675-40.853h-40.106v49.821" transform="translate(269.147 15.101)" style="fill:#0a5a5c"/><path d="M-198.679,277.847" transform="translate(269.147 15.101)" style="fill:none;stroke:#1d1d1b;stroke-miterlimit:10;stroke-width:0.25px"/><path d="M-198.415,277.788" transform="translate(269.147 15.101)" style="fill:none;stroke:#1d1d1b;stroke-miterlimit:10;stroke-width:0.25px"/><path d="M-217.7,310.73" transform="translate(269.147 15.101)" style="fill:#1d1d1b"/><path d="M-246,296.531" transform="translate(269.147 15.101)" style="fill:#1d1d1b"/><path d="M-198.679,277.847" transform="translate(269.147 15.101)" style="fill:none;stroke:#1d1d1b;stroke-miterlimit:10;stroke-width:0.25px"/><path d="M-198.415,277.788" transform="translate(269.147 15.101)" style="fill:none;stroke:#1d1d1b;stroke-miterlimit:10;stroke-width:0.25px"/><rect x="-117.613" y="237.011" width="154.421" height="11.067" rx="3.996" transform="translate(471.289 298.049) rotate(90)" style="fill:#fcc107"/><path d="M-262.541,176.554a4.82,4.82,0,0,1-4.072-2.221l-1.725-2.681a4.807,4.807,0,0,1-.659-3.643,4.809,4.809,0,0,1,2.111-3.043l112.208-72.182a4.829,4.829,0,0,1,2.614-.77,4.824,4.824,0,0,1,4.072,2.221l1.724,2.681a4.8,4.8,0,0,1,.66,3.644,4.807,4.807,0,0,1-2.111,3.042l-112.209,72.182a4.815,4.815,0,0,1-2.613.77Z" transform="translate(269.147 15.101)" style="fill:#fcc107"/><path d="M-167.425,295.356c-21.29,0-38.11-13.582-53.235-25.8-14.551-11.749-28.3-22.848-43.954-20.993l-.139-1.18c16.158-1.917,30.088,9.339,44.839,21.249,18.648,15.058,37.93,30.625,64.822,24,5.869-1.446,17.627-4.346,32.108-20.7-5.366,3.9-14.662,10.149-20.929,11.579-20.113,4.59-37.713-6.752-56.348-18.758-19.684-12.683-40.04-25.8-64.275-19.6L-264.83,244c24.737-6.323,45.314,6.932,65.213,19.753,18.418,11.867,35.811,23.08,55.44,18.6,8.814-2.011,24.519-14.409,24.676-14.534l.832.838c-16.278,20.233-29.692,23.54-36.138,25.129A52.539,52.539,0,0,1-167.425,295.356Z" transform="translate(269.147 15.101)" style="fill:#fcc107"/><path d="M-198.916,365.5v-3.18h1.091c9.323,0,13.678-7.107,13.679-20.277h0c.035-1.074-.01-2.6-.043-8.645-.031-5.855-.031-14.076-.031-23.543V247.83c.25-12.46.25-23.372.25-29.891V211.96a19.435,19.435,0,0,0-2.9-8.9,12.364,12.364,0,0,0-9.279-5.458l-2.77,0v-3.181h38.208c18.163-.191,48.572-.511,52.93-4.1l.914-.752.066,1.37c.731,15.367,1.489,31.257,2.481,46.883l.041.631h-3.134l-.247-1.578c-1.645-10.551-6.014-38.578-19.951-39.275H-167.09v81.36c0,7.6-.063,15.326-.124,22.8s-.125,15.192-.125,22.788c0,7.465,0,15.185.249,22.648.258,8.518,5.325,14.453,12.91,15.122l27.349,0c8.672-.725,14.675-13.626,18.843-40.6l.078-.5h3.128l-2.275,41.728V365.5Z" transform="translate(269.147 15.101)" style="fill:#fcc107"/><path d="M-167.684,249.325v29.643c0,15.195-.248,30.391-.248,45.586,0,7.473,0,15.2.248,22.668.25,8.218,4.98,14.942,13.444,15.693h27.409c8.956-.746,15.179-13.666,19.413-40.992a.131.131,0,0,1,.127-.11h1.747a.128.128,0,0,1,.128.135l-2.234,40.964v1.868a.128.128,0,0,1-.128.128h-90.417a.128.128,0,0,1-.128-.128v-1.865h.5c11.708,0,14.448-9.964,14.448-20.177,0,.7-.249-13.949-.249-32.882V247.83c.249-12.454.249-23.166.249-29.891v-5.985a20.153,20.153,0,0,0-2.989-9.211,13.032,13.032,0,0,0-9.706-5.728h-2.123a.128.128,0,0,1-.128-.128v-1.737a.128.128,0,0,1,.128-.128h37.487c23.34-.245,48.376-.734,53.121-4.093a.124.124,0,0,1,.2.1c.741,15.568,1.484,31.137,2.471,46.706a.128.128,0,0,1-.128.136h-1.747a.124.124,0,0,1-.126-.1c-1.509-9.584-5.768-40-20.659-40.748h-39.978a.128.128,0,0,0-.128.128v52.183Z" transform="translate(269.147 15.101)" style="fill:#0a5a5c"/><path d="M-41.431,176.554a4.822,4.822,0,0,1-2.613-.769L-156.253,103.6a4.81,4.81,0,0,1-2.111-3.042,4.8,4.8,0,0,1,.66-3.644l1.724-2.681a4.824,4.824,0,0,1,4.072-2.221,4.827,4.827,0,0,1,2.614.77l112.209,72.183a4.8,4.8,0,0,1,2.111,3.042,4.8,4.8,0,0,1-.66,3.643l-1.725,2.681A4.821,4.821,0,0,1-41.431,176.554Z" transform="translate(269.147 15.101)" style="fill:#fcc107"/><rect x="-167.702" y="128.446" width="141.909" height="11.676" rx="4.053" transform="translate(326.415 88.792) rotate(32.753)" style="fill:#0a5a5c"/><path d="M-264.962,248.572a4.189,4.189,0,0,1-4.185-4.185V168.845a4.189,4.189,0,0,1,4.185-4.185h2.7a4.189,4.189,0,0,1,4.185,4.185v75.542a3.86,3.86,0,0,1-3.99,3.99l-2.872.195Z" transform="translate(269.147 15.101)" style="fill:#fcc107"/><path d="M-262.265,165.254h-2.7a3.591,3.591,0,0,0-3.591,3.591v75.542a3.591,3.591,0,0,0,3.591,3.591l2.893-.194a3.268,3.268,0,0,0,3.4-3.4V168.845A3.591,3.591,0,0,0-262.265,165.254Z" transform="translate(269.147 15.101)" style="fill:#0a5a5c"/><path d="M-217.7,310.73" transform="translate(269.147 15.101)" style="fill:#1d1d1b"/><path d="M-246,296.531" transform="translate(269.147 15.101)" style="fill:#1d1d1b"/><polyline points="37.896 0 377.772 0 377.772 542.918" style="fill:none"/><rect x="-278.257" y="128.446" width="141.909" height="11.676" rx="4.053" transform="translate(-39.851 374.474) rotate(147.247)" style="fill:#0a5a5c"/><path d="M-264.683,244.58c47.091-12.042,79.245,47.8,120.638,38.354,9.047-2.064,24.913-14.647,24.913-14.647-15.457,19.213-28.032,23.006-35.817,24.925-48.951,12.067-73.97-49.466-109.734-45.234" transform="translate(269.147 15.101)" style="fill:#0a5a5c"/><rect x="223.805" y="181.029" width="9.88" height="153.234" rx="3.429" style="fill:#0a5a5c"/><rect x="438.902" y="171.061" width="9.88" height="46.068" rx="3.429" style="fill:#fcc107"/><rect x="438.902" y="171.061" width="9.88" height="46.068" rx="3.429" style="fill:#fcc107"/><path d="M242.817,294.6v29.643c0,15.2-.249,30.39-.249,45.586,0,7.473,0,15.195.249,22.668.249,8.22,4.982,14.946,13.451,15.693h27.4c8.967-.747,15.195-13.7,19.43-41.1h1.992l-2.242,41.1v1.993H212.178v-1.993h.5c11.707,0,14.448-9.964,14.448-20.177-.25,0-.25-13.949-.25-32.882V293.1c.25-12.455.25-23.166.25-29.892v-5.978a20.177,20.177,0,0,0-2.989-9.217,13.036,13.036,0,0,0-9.716-5.729h-2.241v-1.993h37.614c23.665-.249,49.073-.748,53.308-4.235.747,15.693,1.494,31.387,2.491,47.081H303.6c-1.5-9.466-5.73-40.106-20.676-40.853H242.817v49.82" transform="translate(269.147 15.101)" style="fill:#0a5a5c"/><path d="M211.821,323.118" transform="translate(269.147 15.101)" style="fill:none;stroke:#1d1d1b;stroke-miterlimit:10;stroke-width:0.25px"/><path d="M212.085,323.059" transform="translate(269.147 15.101)" style="fill:none;stroke:#1d1d1b;stroke-miterlimit:10;stroke-width:0.25px"/><path d="M192.8,356" transform="translate(269.147 15.101)" style="fill:#1d1d1b"/><path d="M164.5,341.8" transform="translate(269.147 15.101)" style="fill:#1d1d1b"/><path d="M211.821,323.118" transform="translate(269.147 15.101)" style="fill:none;stroke:#1d1d1b;stroke-miterlimit:10;stroke-width:0.25px"/><path d="M212.085,323.059" transform="translate(269.147 15.101)" style="fill:none;stroke:#1d1d1b;stroke-miterlimit:10;stroke-width:0.25px"/><rect x="292.888" y="282.282" width="154.421" height="11.067" rx="3.996" transform="translate(927.06 -67.181) rotate(90)" style="fill:#fcc107"/><path d="M147.96,221.825a4.819,4.819,0,0,1-4.072-2.221l-1.726-2.681a4.837,4.837,0,0,1,1.452-6.686l112.209-72.182a4.836,4.836,0,0,1,6.686,1.451l1.724,2.681a4.839,4.839,0,0,1-1.451,6.686L150.573,221.055a4.817,4.817,0,0,1-2.613.77Z" transform="translate(269.147 15.101)" style="fill:#fcc107"/><path d="M243.076,340.627c-21.291,0-38.11-13.582-53.236-25.8-14.551-11.749-28.294-22.848-43.953-20.994l-.139-1.179c16.157-1.917,30.088,9.339,44.838,21.249,18.648,15.057,37.931,30.625,64.823,24,5.868-1.447,17.627-4.346,32.108-20.7-5.366,3.9-14.662,10.149-20.93,11.578-20.113,4.591-37.713-6.751-56.347-18.758-19.685-12.682-40.041-25.795-64.275-19.6l-.3-1.151c24.738-6.323,45.314,6.932,65.213,19.752,18.418,11.868,35.812,23.081,55.44,18.6,8.814-2.011,24.519-14.409,24.677-14.534l.831.837c-16.277,20.234-29.692,23.541-36.138,25.13A52.525,52.525,0,0,1,243.076,340.627Z" transform="translate(269.147 15.101)" style="fill:#fcc107"/><path d="M211.584,410.773v-3.18h1.092c9.322,0,13.677-7.107,13.678-20.277h0c.035-1.074-.01-2.6-.042-8.645-.031-5.855-.031-14.076-.031-23.544V293.1c.249-12.46.249-23.372.249-29.892V257.23a19.446,19.446,0,0,0-2.9-8.9,12.363,12.363,0,0,0-9.28-5.458l-2.77,0V239.7h38.208c18.163-.191,48.573-.511,52.93-4.1l.915-.752.065,1.37c.731,15.366,1.489,31.256,2.481,46.882l.041.632h-3.133l-.248-1.578c-1.644-10.551-6.013-38.579-19.951-39.275H243.411v81.36c0,7.6-.064,15.326-.125,22.8s-.124,15.192-.124,22.788c0,7.465,0,15.185.248,22.648.258,8.518,5.326,14.453,12.91,15.122l27.349,0c8.672-.725,14.675-13.626,18.844-40.6l.077-.5h3.129l-2.276,41.728v2.554Z" transform="translate(269.147 15.101)" style="fill:#fcc107"/><path d="M242.817,294.6v29.643c0,15.2-.249,30.39-.249,45.586,0,7.473,0,15.195.249,22.668.249,8.218,4.979,14.942,13.444,15.693H283.67c8.955-.746,15.178-13.666,19.413-40.992a.128.128,0,0,1,.126-.11h1.748a.129.129,0,0,1,.128.135l-2.234,40.964v1.868a.128.128,0,0,1-.128.128H212.306a.128.128,0,0,1-.128-.128v-1.865h.5c11.707,0,14.448-9.964,14.448-20.177,0,.7-.25-13.95-.25-32.882V293.1c.25-12.455.25-23.166.25-29.892v-5.984a20.164,20.164,0,0,0-2.988-9.211,13.034,13.034,0,0,0-9.707-5.728h-2.122a.128.128,0,0,1-.128-.128V240.42a.128.128,0,0,1,.128-.128h37.486c23.34-.246,48.376-.734,53.122-4.093a.123.123,0,0,1,.2.1c.741,15.569,1.484,31.137,2.471,46.707a.127.127,0,0,1-.127.136h-1.748a.124.124,0,0,1-.126-.1c-1.509-9.584-5.767-40-20.659-40.748H242.945a.128.128,0,0,0-.128.128V294.6Z" transform="translate(269.147 15.101)" style="fill:#fff"/><path d="M369.069,221.825a4.827,4.827,0,0,1-2.613-.769L254.247,148.873a4.839,4.839,0,0,1-1.451-6.686l1.725-2.681a4.835,4.835,0,0,1,6.685-1.451l112.209,72.183a4.834,4.834,0,0,1,1.451,6.685l-1.725,2.681A4.82,4.82,0,0,1,369.069,221.825Z" transform="translate(269.147 15.101)" style="fill:#fcc107"/><rect x="242.799" y="173.717" width="141.909" height="11.676" rx="4.053" transform="translate(416.171 -126.097) rotate(32.753)" style="fill:#fff"/><path d="M145.538,293.842a4.19,4.19,0,0,1-4.185-4.184V214.115a4.19,4.19,0,0,1,4.185-4.184h2.7a4.189,4.189,0,0,1,4.185,4.184v75.543a3.859,3.859,0,0,1-3.99,3.99l-2.872.194Z" transform="translate(269.147 15.101)" style="fill:#fcc107"/><path d="M148.236,210.525h-2.7a3.591,3.591,0,0,0-3.591,3.591v75.542a3.591,3.591,0,0,0,3.591,3.591l2.892-.2a3.268,3.268,0,0,0,3.4-3.4V214.116A3.591,3.591,0,0,0,148.236,210.525Z" transform="translate(269.147 15.101)" style="fill:#fff"/><path d="M192.8,356" transform="translate(269.147 15.101)" style="fill:#1d1d1b"/><path d="M164.5,341.8" transform="translate(269.147 15.101)" style="fill:#1d1d1b"/><path d="M110.5,159.279l1.69,1.728.981.987q.909.931,1.351,1.34,1.107-.93,2.284-2.081a14.8,14.8,0,0,0,1.256-1.368,4.7,4.7,0,0,0,.553-.9q-.429-.792-1.155-1.9l.464-.453q1.323,1.732,1.827,2.246l.324.3q-.741.862-1.521,1.627l-1.125,1.061q-1.878,1.742-2.737,2.582-.822.806-2.141,2.191l-.434-.444.218-.214a2.127,2.127,0,0,0,.654-.873,1.17,1.17,0,0,0-.34-.77q-.38-.5-1.861-2.008l-3.781-3.865q-.93-.949-1.568-1.51a4.422,4.422,0,0,0-.805-.625.587.587,0,0,0-.326-.032,2.708,2.708,0,0,0-.716.48l-.6.474-.434-.443.759-.745.771-.705q.649-.588.974-.9l2.663-2.686L109,150.51q.648-.646,1.371-1.246a10.983,10.983,0,0,0,1.833,2.465l-.479.469a12.434,12.434,0,0,0-1.338-1.213,8.2,8.2,0,0,0-2.344,1.687q-.965.944-1.938,2.061.654.653,1.279,1.335l1.045,1.1,1.395,1.425q.744-.633,1.28-1.155a10.681,10.681,0,0,0,1.783-1.972c.072-.223-.089-.535-.484-.939l-.448-.457.479-.468q.99,1.11,1.61,1.744.654.667,1.593,1.528l-.479.468-.4-.408c-.441-.451-.8-.639-1.073-.569a8.3,8.3,0,0,0-2.01,1.671Q111.084,158.61,110.5,159.279Z" transform="translate(269.147 15.101)" style="fill:#fff"/><path d="M127.387,153.109q-1.185-.726-2.282-1.314l-8.363-4.489a22.269,22.269,0,0,0-2.019-1.031c-.142-.035-.4.1-.764.408l-.309.259-.4-.474q1.221-.937,2.049-1.63.873-.729,2.047-1.8l.4.475-.746.625a1.4,1.4,0,0,0-.434.487.323.323,0,0,0,.075.319.99.99,0,0,0,.222.189l3.164,1.792,6.444,3.514-2.19-6.664a19.624,19.624,0,0,0-1.449-3.763c-.191-.228-.43-.233-.715-.01l-.326.235-.7.476-.4-.475q1.046-.788,1.693-1.329.676-.567,1.656-1.478l.4.476-.3.253a.916.916,0,0,0-.383.609,7.291,7.291,0,0,0,.424,1.694l2.664,8.343a38.142,38.142,0,0,0,1.326,3.654Z" transform="translate(269.147 15.101)" style="fill:#fff"/><path d="M130.913,140.945a6.859,6.859,0,0,1-1.29-5.472,7.77,7.77,0,0,1,3.42-4.819,7.454,7.454,0,0,1,5.43-1.568,6.408,6.408,0,0,1,4.388,2.881,7.372,7.372,0,0,1,1.313,5.78,7.751,7.751,0,0,1-3.369,5.06,7.429,7.429,0,0,1-3.514,1.41,6.181,6.181,0,0,1-3.455-.669A7.872,7.872,0,0,1,130.913,140.945Zm1.172-1.809a9.153,9.153,0,0,0,2.852,2.732,5.644,5.644,0,0,0,3.094.847,5.3,5.3,0,0,0,2.867-1.008,5.02,5.02,0,0,0,1.786-2.107,4.739,4.739,0,0,0,.272-2.742,7.889,7.889,0,0,0-1.4-3.141,8.05,8.05,0,0,0-2.645-2.506,5.121,5.121,0,0,0-2.907-.684,5.743,5.743,0,0,0-2.874,1.1,5.355,5.355,0,0,0-1.847,2.1,4.554,4.554,0,0,0-.357,2.614A6.428,6.428,0,0,0,132.085,139.136Z" transform="translate(269.147 15.101)" style="fill:#fff"/><path d="M152.357,133.88q.857-.447,1.645-.913,1.594-.941,2.443-1.554A10.049,10.049,0,0,0,157.6,130.4l-.665-2.293.55-.325q.734,1.728,1.434,3.189a15.528,15.528,0,0,1-2.012,1.358l-4.078,2.312q-.813.48-2.48,1.587l-.266-.448a1.6,1.6,0,0,0,.427-1.109,16.913,16.913,0,0,0-1.462-2.762l-2.751-4.666a17.809,17.809,0,0,0-1.8-2.764c-.2-.147-.484-.11-.863.114l-.924.546-.316-.535q2.053-1.131,2.716-1.522.882-.519,2.358-1.468l.314.534-1.052.62q-.449.265-.416.594a11.119,11.119,0,0,0,1.15,2.22l3.184,5.4,1.437,2.378Z" transform="translate(269.147 15.101)" style="fill:#fff"/><path d="M167.375,126.947q-.974-.994-1.9-1.828l-7.021-6.388a22.093,22.093,0,0,0-1.709-1.49q-.192-.1-.84.21l-.362.177-.272-.559q1.417-.609,2.386-1.08,1.023-.5,2.422-1.254l.271.557-.875.425a1.445,1.445,0,0,0-.541.368.323.323,0,0,0,0,.328.943.943,0,0,0,.169.237l2.634,2.507,5.4,4.974-.5-7a19.608,19.608,0,0,0-.492-4c-.131-.267-.361-.33-.69-.184l-.375.149-.8.292-.271-.557q1.208-.511,1.965-.878.8-.387,1.966-1.033l.27.559-.353.172a.917.917,0,0,0-.52.5,7.318,7.318,0,0,0,0,1.746l.555,8.74a37.837,37.837,0,0,0,.4,3.867Z" transform="translate(269.147 15.101)" style="fill:#fff"/><path d="M177.557,114.813l.9,2.244.527,1.286q.487,1.207.738,1.755,1.377-.435,2.905-1.049a14.385,14.385,0,0,0,1.684-.783,4.542,4.542,0,0,0,.855-.62q-.093-.894-.34-2.2l.6-.242q.559,2.106.828,2.775l.183.405q-1.014.513-2.028.921l-1.446.549q-2.4.889-3.516,1.338-1.069.428-2.816,1.206l-.231-.576.284-.114a2.142,2.142,0,0,0,.937-.557,1.162,1.162,0,0,0-.02-.841q-.162-.6-.951-2.568l-2.015-5.017q-.5-1.234-.87-2a4.531,4.531,0,0,0-.5-.884.564.564,0,0,0-.289-.155,2.685,2.685,0,0,0-.846.17l-.733.209-.231-.575.987-.4.981-.357q.826-.3,1.247-.464l3.488-1.462,1.658-.679c.565-.233,1.145-.443,1.744-.626a10.951,10.951,0,0,0,.751,2.978l-.623.25a12.152,12.152,0,0,0-.771-1.632,8.217,8.217,0,0,0-2.813.662q-1.251.5-2.578,1.162c.237.57.459,1.144.671,1.723l.546,1.411.744,1.852q.93-.3,1.625-.579a10.672,10.672,0,0,0,2.4-1.139q.227-.266-.088-1.052l-.24-.594.622-.249q.49,1.4.821,2.228.35.867.886,2.02l-.621.25-.213-.53q-.352-.877-.775-.937a8.372,8.372,0,0,0-2.5.776C178.609,114.317,178.088,114.552,177.557,114.813Z" transform="translate(269.147 15.101)" style="fill:#fff"/><path d="M200.738,106.621q.335-1.036.979-3.552l1.111-4.388,1.47-.412.066.236a34.122,34.122,0,0,0-1.735,4.717A25.415,25.415,0,0,0,201.6,107.3a6.608,6.608,0,0,0,.334,1.631q.481,1.713.847,2.692.209.523.376.594a2.772,2.772,0,0,0,1.024-.088l.743-.127.166.6q-1.671.4-2.6.657l-3.039.925-.168-.6.811-.226q.808-.226.879-.6a13.934,13.934,0,0,0-.677-3.036c-.146-.517-.319-1.077-.523-1.68q-1.851-1.9-3.345-3.251a17.438,17.438,0,0,0-2.416-1.907,2.512,2.512,0,0,0-.832-.358,2.636,2.636,0,0,0-1.009.14l-.167-.6,1.441-.731.706-.363a2.164,2.164,0,0,1,.816.212,11.949,11.949,0,0,1,2.023,1.632Q198.084,103.827,200.738,106.621Z" transform="translate(269.147 15.101)" style="fill:#fff"/><path d="M209.3,104.225a6.864,6.864,0,0,1,1.062-5.521,7.77,7.77,0,0,1,5.093-3,7.456,7.456,0,0,1,5.6.791,6.409,6.409,0,0,1,2.825,4.424,7.379,7.379,0,0,1-1.168,5.812,7.751,7.751,0,0,1-5.146,3.238,7.426,7.426,0,0,1-3.783-.153,6.174,6.174,0,0,1-2.878-2.022A7.907,7.907,0,0,1,209.3,104.225Zm1.81-1.172a9.144,9.144,0,0,0,1.484,3.66,5.659,5.659,0,0,0,2.475,2.04,5.311,5.311,0,0,0,3.032.253,5.008,5.008,0,0,0,2.49-1.192,4.721,4.721,0,0,0,1.37-2.39,7.884,7.884,0,0,0,0-3.441,8.053,8.053,0,0,0-1.389-3.368,5.114,5.114,0,0,0-2.371-1.814,5.74,5.74,0,0,0-3.074-.169,5.36,5.36,0,0,0-2.547,1.162,4.584,4.584,0,0,0-1.395,2.24A6.406,6.406,0,0,0,211.113,103.053Z" transform="translate(269.147 15.101)" style="fill:#fff"/><path d="M226.492,94.582l-.062-.618q2.014-.135,2.926-.229.96-.1,2.814-.357l.062.618-.714.072q-.921.1-1.071.467a13.345,13.345,0,0,0,.141,3.212l.391,3.839a12.578,12.578,0,0,0,.53,2.907,2.415,2.415,0,0,0,1.333,1.27,5.048,5.048,0,0,0,2.624.306,5.886,5.886,0,0,0,2.729-.893,2.522,2.522,0,0,0,1.014-1.425,10.393,10.393,0,0,0,.018-3.4l-.377-3.693a9.4,9.4,0,0,0-.53-2.91q-.267-.345-1.306-.239l-.51.052-.063-.617q2.04-.139,2.589-.194.893-.092,2.212-.3l.063.618-.67.068c-.518.052-.837.226-.957.518a10.026,10.026,0,0,0,.078,2.946l.375,3.674a14.925,14.925,0,0,1,.1,3.421,3.84,3.84,0,0,1-.749,1.674,4.566,4.566,0,0,1-1.65,1.3,7.438,7.438,0,0,1-2.549.675,8.958,8.958,0,0,1-2.731-.091,4.641,4.641,0,0,1-1.831-.729,3.114,3.114,0,0,1-.978-1.232,9.414,9.414,0,0,1-.53-2.624l-.17-1.862-.306-2.989a14.307,14.307,0,0,0-.477-3.078c-.131-.212-.486-.288-1.068-.228Z" transform="translate(269.147 15.101)" style="fill:#fff"/><path d="M252.433,99.033q.992,1.37,2.456,3.183l1.936,2.415a3.469,3.469,0,0,0,.684.706.714.714,0,0,0,.346.082l.256,0,.012.62c-.546-.036-1.022-.051-1.43-.041a10.166,10.166,0,0,0-1.179.091l-3.576-4.639q-1-1.281-2.137-2.5l.092-.338c.381.026.664.037.847.034a3.683,3.683,0,0,0,2.559-.9,2.914,2.914,0,0,0,.887-2.282,2.538,2.538,0,0,0-.827-1.969,3.278,3.278,0,0,0-2.287-.67A5.95,5.95,0,0,0,249,93.25q-.087,1.566-.054,3.349l.094,4.755a20.967,20.967,0,0,0,.24,3.852q.175.376,1.091.358l.769-.015.011.62q-1.635-.037-2.709-.016-.846.018-3.06.128l-.012-.62.738-.015q.847-.015,1-.389a22.163,22.163,0,0,0,.083-3.886l-.091-4.736a15.346,15.346,0,0,0-.249-3.413c-.126-.24-.525-.354-1.193-.341l-.533.01-.012-.62q1.835.033,2.8.015c.433-.009,1.058-.036,1.87-.086q1.417-.076,2.037-.088a7.171,7.171,0,0,1,2.591.308,2.705,2.705,0,0,1,1.849,2.629,3.48,3.48,0,0,1-.952,2.472A5.358,5.358,0,0,1,252.433,99.033Z" transform="translate(269.147 15.101)" style="fill:#fff"/><path d="M267.662,105.865l.619.047c.61.046.985-.074,1.128-.359a23.277,23.277,0,0,0,.5-4.218l.254-3.329a27.7,27.7,0,0,0,.172-4.341c-.084-.277-.389-.436-.912-.475l-.8-.061.047-.618q1.627.192,3.22.315,1.327.1,2.414.113l-.045.619-.761-.058a1.457,1.457,0,0,0-.891.1,1.366,1.366,0,0,0-.271.829q-.129,1.046-.334,3.738l-.257,3.386a24.3,24.3,0,0,0-.152,4.221q.138.4,1.045.47l.653.049-.047.619q-1.206-.162-2.631-.269-1.663-.127-3.006-.159Z" transform="translate(269.147 15.101)" style="fill:#fff"/><path d="M280.5,95.778l-.977,6.737q-.333,2.3-.377,3.22a1.556,1.556,0,0,0,.108.877,1.959,1.959,0,0,0,.9.354l.619.14-.089.614q-1.054-.224-1.914-.347-.594-.087-2.744-.328l.089-.614.7.1a1.348,1.348,0,0,0,.855-.056,1.089,1.089,0,0,0,.344-.657c.174-.7.351-1.671.53-2.9l.7-4.843q.2-1.365.362-2.7a1.728,1.728,0,0,0-.039-.8,1.246,1.246,0,0,0-.331-.432,1.3,1.3,0,0,0-.686-.268l-.6-.088.088-.614q1.227.247,1.881.343.7.1,1.55.155.792,1.319,1.484,2.558t1.443,2.5l2.74,4.576q1.483,2.465,2.158,3.438l.907-6.257a30.113,30.113,0,0,0,.482-4.314c-.059-.256-.413-.465-1.059-.625l-.721-.175.088-.614q1.56.3,2.428.422.9.132,2.348.271l-.088.614-.751-.11q-.907-.129-1.13.454-.147.386-.707,4.255l-.637,4.4q-.258,1.775-.459,4.262a10.9,10.9,0,0,1-1.5-.52,1.226,1.226,0,0,1-.365-.367q-.909-1.356-1.885-2.991Z" transform="translate(269.147 15.101)" style="fill:#fff"/><path d="M300.443,111.466q-.129-1.386-.316-2.613l-1.415-9.387a22.1,22.1,0,0,0-.384-2.235c-.057-.135-.318-.257-.785-.366l-.393-.093.143-.6q1.482.42,2.532.666,1.107.261,2.671.557l-.142.6-.947-.223a1.426,1.426,0,0,0-.652-.057.327.327,0,0,0-.21.252.993.993,0,0,0-.018.292l.461,3.606,1.045,7.264,4.026-5.746a19.486,19.486,0,0,0,2.143-3.413c.069-.291-.071-.483-.418-.579l-.385-.121-.8-.278.142-.6c.836.243,1.531.43,2.078.56q.86.2,2.175.44l-.141.6-.384-.09a.915.915,0,0,0-.717.058,7.335,7.335,0,0,0-1.1,1.355l-5.085,7.13a37.3,37.3,0,0,0-2.13,3.253Z" transform="translate(269.147 15.101)" style="fill:#fff"/><path d="M316.007,108.566l-.731,2.3-.411,1.329q-.392,1.24-.547,1.823,1.34.54,2.911,1.037a14.557,14.557,0,0,0,1.8.466,4.791,4.791,0,0,0,1.056.066q.5-.751,1.134-1.913l.619.2q-.908,1.98-1.125,2.667l-.115.43q-1.11-.247-2.152-.578l-1.464-.5q-2.421-.839-3.565-1.2-1.1-.348-2.94-.86l.187-.591.291.091a2.125,2.125,0,0,0,1.078.167c.175-.061.348-.282.52-.661s.472-1.243.9-2.588l1.633-5.154q.4-1.266.6-2.093a4.487,4.487,0,0,0,.172-1,.565.565,0,0,0-.125-.3,2.754,2.754,0,0,0-.76-.407l-.7-.3.188-.591,1.014.321.983.349c.551.2.969.344,1.258.434l3.621,1.088,1.713.532q.876.266,1.743.624a10.982,10.982,0,0,0-1.313,2.776l-.639-.2a12.544,12.544,0,0,0,.442-1.749,8.211,8.211,0,0,0-2.59-1.278c-.86-.271-1.768-.518-2.731-.741-.18.59-.373,1.174-.578,1.756l-.476,1.437-.6,1.9q.908.36,1.621.587a10.726,10.726,0,0,0,2.579.647q.345-.063.6-.869l.193-.61.639.2q-.516,1.4-.784,2.241-.281.892-.6,2.124l-.639-.2.172-.545q.285-.9,0-1.214a8.3,8.3,0,0,0-2.42-.99Q316.872,108.768,316.007,108.566Z" transform="translate(269.147 15.101)" style="fill:#fff"/><path d="M336.807,108.953a11.373,11.373,0,0,0-1.266,2.423l-.633-.247.287-.734a1.844,1.844,0,0,0,.188-1.047,2.5,2.5,0,0,0-.79-.939,5.428,5.428,0,0,0-1.6-.958,3.626,3.626,0,0,0-2.6-.162,2.609,2.609,0,0,0-1.584,1.577,2.414,2.414,0,0,0-.148,1.393,2.089,2.089,0,0,0,.629,1.123,11.68,11.68,0,0,0,2.309,1.378,10.015,10.015,0,0,1,2.365,1.487,2.529,2.529,0,0,1,.681,1.388,3.275,3.275,0,0,1-.221,1.744,4.369,4.369,0,0,1-2.784,2.571,6.526,6.526,0,0,1-4.629-.278,9.7,9.7,0,0,1-1.7-.874,11.752,11.752,0,0,1-1.6-1.232,20.583,20.583,0,0,0,1.262-2.763l.623.244-.18.459a4.006,4.006,0,0,0-.339,1.136,1.284,1.284,0,0,0,.255.618,4.027,4.027,0,0,0,.988,1.016,6.17,6.17,0,0,0,1.43.776,4.266,4.266,0,0,0,3,.233,2.816,2.816,0,0,0,1.756-1.7,2.457,2.457,0,0,0,.165-1.37,2.076,2.076,0,0,0-.6-1.108,8.411,8.411,0,0,0-1.99-1.212,10.635,10.635,0,0,1-2.621-1.6,2.713,2.713,0,0,1-.758-1.5,3.644,3.644,0,0,1,.27-1.929,3.994,3.994,0,0,1,2.438-2.421,5.63,5.63,0,0,1,4.021.263,9.372,9.372,0,0,1,1.761.917A10.518,10.518,0,0,1,336.807,108.953Z" transform="translate(269.147 15.101)" style="fill:#fff"/><path d="M346.781,113.692q-.726,1.29-1.422,2.769l-2.388,5.08a17.443,17.443,0,0,0-1.326,3.19q0,.357.878.768l.668.314-.263.561q-1.548-.8-2.644-1.32t-2.684-1.185l.263-.562.748.352a1.4,1.4,0,0,0,.84.2,1.028,1.028,0,0,0,.511-.506q.579-1,1.354-2.649l2.393-5.088q.709-1.507,1.236-2.792l-.906-.427a14.737,14.737,0,0,0-2.467-1.035q-.269,0-.668.66l-.685,1.137-.563-.265.518-1.052q.3-.643.76-1.9,4.782,2.327,5.628,2.724l4.959,2.255q-.878,1.426-1.563,2.813l-.562-.264.46-1.209a1.873,1.873,0,0,0,.187-.789c-.031-.106-.155-.22-.373-.344q-.947-.532-2.193-1.118Z" transform="translate(269.147 15.101)" style="fill:#fff"/><path d="M366.3,125.634l-5.594,3.793q-3.146,2.138-5.347,3.822l-.34-.2q.126-.942.459-4.944l.623-8.088-3.828,6.581a10.555,10.555,0,0,0-1.334,2.716q0,.418.961.975l.316.184-.312.536q-1.15-.748-1.893-1.18-.537-.314-2.176-1.186l.313-.536.553.322a1.41,1.41,0,0,0,.843.274,1.01,1.01,0,0,0,.571-.454q.8-1.127,1.607-2.506l2.8-4.818a24.835,24.835,0,0,0,1.264-2.352.692.692,0,0,0,.007-.588,1.911,1.911,0,0,0-.775-.656l-.451-.262.312-.536q1.447.921,1.83,1.143.486.284,1.413.743-.3,2.89-.559,6.434l-.44,5.912,4.551-3.064q2.394-1.605,5.624-3.943,1.027.676,1.464.93.5.293,1.847,1l-.312.536-.557-.323q-.753-.439-1.07-.275a6.23,6.23,0,0,0-1.254,1.771l-3.619,6.222a9.377,9.377,0,0,0-1.211,2.486c0,.272.264.564.8.876l.488.283-.312.536q-1.149-.749-2.23-1.376-1.191-.693-2.528-1.392l.312-.535.561.326c.449.261.776.32.984.18a12.826,12.826,0,0,0,1.609-2.443Z" transform="translate(269.147 15.101)" style="fill:#fff"/><path d="M372.794,136.159l-1.394,1.975-.793,1.142q-.75,1.064-1.074,1.572,1.113.919,2.46,1.868a14.611,14.611,0,0,0,1.571.989,4.744,4.744,0,0,0,.987.381q.7-.564,1.66-1.479l.531.375q-1.464,1.612-1.881,2.2l-.24.376q-.981-.573-1.875-1.2l-1.246-.916q-2.052-1.533-3.033-2.225-.943-.665-2.543-1.709l.357-.507.25.176a2.135,2.135,0,0,0,.979.485q.276-.009.695-.473t1.639-2.195l3.116-4.417q.767-1.086,1.2-1.815a4.568,4.568,0,0,0,.47-.905.568.568,0,0,0-.028-.326,2.73,2.73,0,0,0-.6-.618l-.573-.5.357-.507.868.614.834.628q.695.534,1.066.8l3.124,2.134,1.47,1.023q.753.522,1.473,1.125a10.947,10.947,0,0,0-2.092,2.247l-.548-.386a12.461,12.461,0,0,0,.951-1.535,8.25,8.25,0,0,0-2.083-2q-1.1-.777-2.378-1.532-.525.761-1.081,1.5l-.889,1.225-1.15,1.63q.756.619,1.368,1.049a10.619,10.619,0,0,0,2.261,1.4c.233.03.51-.185.836-.646l.37-.523.546.386q-.914,1.176-1.424,1.9-.54.764-1.216,1.843l-.547-.387.33-.466q.544-.774.365-1.159a8.356,8.356,0,0,0-2.006-1.675Q373.558,136.613,372.794,136.159Z" transform="translate(269.147 15.101)" style="fill:#fff"/><path d="M386.852,140.193l-4.37,5.221q-1.491,1.782-2.01,2.543a1.531,1.531,0,0,0-.368.8q.026.222.582.777l.454.444-.4.477q-.781-.745-1.447-1.3-.462-.387-2.163-1.72l.4-.477.544.455a1.326,1.326,0,0,0,.756.4,1.067,1.067,0,0,0,.637-.377q.779-.762,1.972-2.189l3.141-3.753q.885-1.058,1.729-2.112a1.7,1.7,0,0,0,.384-.7,1.276,1.276,0,0,0-.054-.54,1.323,1.323,0,0,0-.445-.59l-.467-.392.4-.475q.915.854,1.421,1.278.545.454,1.238.946-.018,1.539-.08,2.957t-.086,2.887l-.071,5.334q-.031,2.875.032,4.059l4.057-4.849a29.719,29.719,0,0,0,2.674-3.419q.129-.375-.573-1.088l-.521-.528.4-.475q1.173,1.07,1.844,1.633.7.586,1.856,1.463l-.4.477-.582-.488q-.7-.586-1.2-.207-.328.253-2.836,3.251l-2.85,3.406q-1.151,1.374-2.629,3.386a10.864,10.864,0,0,1-1-1.228,1.222,1.222,0,0,1-.119-.5q-.062-1.632-.033-3.535Z" transform="translate(269.147 15.101)" style="fill:#fff"/><path d="M405.22,154.878q-1.115.975-2.263,2.139l-3.945,3.992a17.511,17.511,0,0,0-2.314,2.568c-.075.224.116.564.573,1.016l.526.519-.436.441q-1.191-1.273-2.052-2.124t-2.137-2.014l.435-.441.589.581a1.4,1.4,0,0,0,.724.473,1.026,1.026,0,0,0,.649-.307q.879-.752,2.16-2.047l3.951-4q1.17-1.184,2.1-2.219l-.712-.705a14.413,14.413,0,0,0-1.981-1.8c-.169-.063-.452.071-.851.4l-1.024.842-.44-.435.836-.82q.5-.505,1.348-1.533,3.733,3.785,4.4,4.442l3.922,3.778q-1.3,1.053-2.41,2.131l-.441-.436.836-.986a1.84,1.84,0,0,0,.439-.682.751.751,0,0,0-.236-.447q-.719-.819-1.7-1.786Z" transform="translate(269.147 15.101)" style="fill:#fff"/><path d="M417.132,167.374a11.272,11.272,0,0,0-2.232,1.58l-.45-.51.59-.522a1.859,1.859,0,0,0,.646-.846,2.531,2.531,0,0,0-.277-1.2,5.431,5.431,0,0,0-.983-1.581,3.615,3.615,0,0,0-2.238-1.327,2.611,2.611,0,0,0-2.129.68,2.419,2.419,0,0,0-.768,1.173,2.094,2.094,0,0,0,.048,1.286,11.727,11.727,0,0,0,1.427,2.28,9.986,9.986,0,0,1,1.426,2.4,2.523,2.523,0,0,1-.025,1.548,3.256,3.256,0,0,1-.992,1.45,4.364,4.364,0,0,1-3.65,1.02,6.518,6.518,0,0,1-3.994-2.358,9.738,9.738,0,0,1-1.118-1.554,11.921,11.921,0,0,1-.858-1.825,20.153,20.153,0,0,0,2.383-1.884l.443.5-.368.326a4.011,4.011,0,0,0-.82.857,1.284,1.284,0,0,0-.054.667,3.986,3.986,0,0,0,.416,1.354,6.145,6.145,0,0,0,.918,1.343,4.26,4.26,0,0,0,2.562,1.572,2.809,2.809,0,0,0,2.338-.715,2.445,2.445,0,0,0,.772-1.142,2.069,2.069,0,0,0-.032-1.261,8.37,8.37,0,0,0-1.217-1.986,10.61,10.61,0,0,1-1.605-2.617,2.683,2.683,0,0,1,.008-1.676,3.663,3.663,0,0,1,1.119-1.6,3.993,3.993,0,0,1,3.273-1.041,5.627,5.627,0,0,1,3.459,2.065,9.481,9.481,0,0,1,1.151,1.62A10.581,10.581,0,0,1,417.132,167.374Z" transform="translate(269.147 15.101)" style="fill:#fff"/><path d="M196.478,440.192l-.841,2.266-.474,1.308q-.453,1.221-.634,1.8,1.313.6,2.857,1.173a14.454,14.454,0,0,0,1.772.553,4.668,4.668,0,0,0,1.05.116q.534-.726,1.226-1.856l.609.226q-1,1.935-1.251,2.612l-.136.424q-1.1-.3-2.122-.682l-1.439-.566q-2.376-.954-3.5-1.372-1.08-.4-2.9-1l.217-.581.286.107a2.162,2.162,0,0,0,1.069.218c.177-.055.36-.266.551-.637s.53-1.218,1.02-2.541l1.88-5.068q.462-1.248.7-2.064a4.535,4.535,0,0,0,.222-.993.578.578,0,0,0-.111-.31,2.726,2.726,0,0,0-.739-.442l-.685-.338.216-.581,1,.369.967.4q.809.336,1.234.494l3.566,1.261,1.684.611q.863.31,1.712.709a10.978,10.978,0,0,0-1.446,2.709l-.627-.233a12.228,12.228,0,0,0,.524-1.727,8.252,8.252,0,0,0-2.527-1.4q-1.264-.468-2.691-.872c-.208.58-.428,1.157-.661,1.727l-.544,1.411-.694,1.872q.891.4,1.592.663a10.669,10.669,0,0,0,2.545.771q.347-.047.641-.839l.223-.6.628.233q-.582,1.369-.89,2.2c-.217.585-.451,1.281-.7,2.093l-.628-.234.2-.535q.328-.887.056-1.213a8.282,8.282,0,0,0-2.369-1.1Q197.333,440.436,196.478,440.192Z" transform="translate(269.147 15.101)" style="fill:#fff"/><path d="M210.734,452.025q-.087-1.387-.236-2.621l-1.127-9.425a21.962,21.962,0,0,0-.317-2.247c-.051-.135-.308-.266-.771-.389l-.391-.1.16-.6q1.47.465,2.512.743,1.1.294,2.651.639l-.159.6-.94-.251a1.419,1.419,0,0,0-.65-.077.323.323,0,0,0-.217.245.974.974,0,0,0-.027.292l.35,3.618.823,7.293,4.2-5.619a19.538,19.538,0,0,0,2.247-3.348q.115-.432-.4-.59l-.382-.132-.794-.3.16-.6c.829.271,1.517.477,2.06.624q.853.228,2.161.506l-.16.6-.381-.1a.906.906,0,0,0-.718.037,7.236,7.236,0,0,0-1.143,1.321l-5.3,6.97a38.027,38.027,0,0,0-2.229,3.185Z" transform="translate(269.147 15.101)" style="fill:#fff"/><path d="M222.675,447.668a6.853,6.853,0,0,1,2.871-4.832,7.767,7.767,0,0,1,5.807-1.1,7.461,7.461,0,0,1,5,2.643,6.412,6.412,0,0,1,1.159,5.12,7.382,7.382,0,0,1-3.069,5.071,7.76,7.76,0,0,1-5.939,1.3,7.418,7.418,0,0,1-3.507-1.427,6.18,6.18,0,0,1-2.022-2.878A7.913,7.913,0,0,1,222.675,447.668Zm2.1-.487a9.134,9.134,0,0,0,.155,3.946,5.668,5.668,0,0,0,1.639,2.758,5.3,5.3,0,0,0,2.764,1.265,5.022,5.022,0,0,0,2.748-.277,4.734,4.734,0,0,0,2.1-1.785,7.884,7.884,0,0,0,1.17-3.236,8.061,8.061,0,0,0-.164-3.639,5.127,5.127,0,0,0-1.617-2.51,5.756,5.756,0,0,0-2.835-1.2,5.352,5.352,0,0,0-2.789.232,4.552,4.552,0,0,0-2.071,1.633A6.4,6.4,0,0,0,224.775,447.181Z" transform="translate(269.147 15.101)" style="fill:#fff"/><path d="M240.533,450.29a6.861,6.861,0,0,1,2.312-5.124,7.763,7.763,0,0,1,5.648-1.737,7.453,7.453,0,0,1,5.261,2.066,6.415,6.415,0,0,1,1.725,4.958A7.385,7.385,0,0,1,253,455.837a7.758,7.758,0,0,1-5.755,1.959,7.439,7.439,0,0,1-3.645-1.025,6.191,6.191,0,0,1-2.332-2.634A7.9,7.9,0,0,1,240.533,450.29Zm2.032-.721a9.122,9.122,0,0,0,.6,3.906,5.661,5.661,0,0,0,1.936,2.557,5.3,5.3,0,0,0,2.889.948,5.027,5.027,0,0,0,2.7-.583,4.724,4.724,0,0,0,1.887-2.008,7.877,7.877,0,0,0,.8-3.346,8.069,8.069,0,0,0-.57-3.6,5.138,5.138,0,0,0-1.887-2.314,5.76,5.76,0,0,0-2.952-.876,5.351,5.351,0,0,0-2.746.542,4.556,4.556,0,0,0-1.876,1.855A6.4,6.4,0,0,0,242.565,449.569Z" transform="translate(269.147 15.101)" style="fill:#fff"/><path d="M265.891,450.285q1.048,1.325,2.59,3.072l2.042,2.33a3.549,3.549,0,0,0,.713.674.736.736,0,0,0,.35.067l.256-.016.039.618c-.547-.01-1.024,0-1.429.023a10.58,10.58,0,0,0-1.176.142l-3.775-4.477q-1.054-1.238-2.243-2.406l.076-.339q.573.012.849,0a3.682,3.682,0,0,0,2.516-1.008,2.912,2.912,0,0,0,.786-2.319,2.539,2.539,0,0,0-.911-1.931,3.272,3.272,0,0,0-2.315-.568,6.009,6.009,0,0,0-2.05.513q-.018,1.57.094,3.349l.3,4.747a20.777,20.777,0,0,0,.409,3.837q.192.368,1.105.31l.767-.048.038.619q-1.635.033-2.706.1-.846.053-3.052.262l-.04-.619.737-.047c.564-.036.891-.181.98-.432a22.331,22.331,0,0,0-.087-3.886l-.3-4.729a15.343,15.343,0,0,0-.4-3.4c-.137-.234-.538-.331-1.207-.289l-.531.033-.039-.618q1.833-.048,2.8-.109c.433-.027,1.054-.081,1.864-.166q1.413-.138,2.032-.177a7.152,7.152,0,0,1,2.6.2,2.7,2.7,0,0,1,1.961,2.545,3.47,3.47,0,0,1-.843,2.509A5.337,5.337,0,0,1,265.891,450.285Z" transform="translate(269.147 15.101)" style="fill:#fff"/><path d="M275.187,455.921l.614-.088q.906-.128,1.024-.593a23.2,23.2,0,0,0-.414-4.227l-.468-3.3a27.809,27.809,0,0,0-.763-4.277q-.215-.378-.993-.268l-.791.11-.086-.613q1.629-.161,3.212-.386,1.32-.186,2.384-.406l.087.614-.755.107a1.44,1.44,0,0,0-.848.29,1.367,1.367,0,0,0-.088.867q.1,1.05.477,3.722l.476,3.363a24.273,24.273,0,0,0,.759,4.154q.221.363,1.123.235l.646-.091.087.614q-1.212.1-2.627.3-1.65.234-2.97.489Z" transform="translate(269.147 15.101)" style="fill:#fff"/><path d="M283.032,448.416a6.854,6.854,0,0,1,.868-5.554,7.763,7.763,0,0,1,4.984-3.174,7.456,7.456,0,0,1,5.62.593,6.414,6.414,0,0,1,2.979,4.323,7.375,7.375,0,0,1-.962,5.848,7.748,7.748,0,0,1-5.029,3.417,7.419,7.419,0,0,1-3.786-.019,6.177,6.177,0,0,1-2.948-1.92A7.911,7.911,0,0,1,283.032,448.416Zm1.767-1.234a9.131,9.131,0,0,0,1.612,3.606,5.656,5.656,0,0,0,2.546,1.951,5.291,5.291,0,0,0,3.037.147,5.023,5.023,0,0,0,2.447-1.28,4.717,4.717,0,0,0,1.286-2.437,7.864,7.864,0,0,0-.117-3.439,8.063,8.063,0,0,0-1.5-3.317,5.126,5.126,0,0,0-2.434-1.728,5.733,5.733,0,0,0-3.079-.062,5.336,5.336,0,0,0-2.5,1.252,4.554,4.554,0,0,0-1.316,2.287A6.419,6.419,0,0,0,284.8,447.182Z" transform="translate(269.147 15.101)" style="fill:#fff"/><path d="M301.666,438.787l2.3,6.407q.786,2.189,1.179,3.021c.2.423.37.665.506.723a1.954,1.954,0,0,0,.965-.11l.613-.168.209.583q-1.035.3-1.852.593-.567.2-2.577,1l-.21-.584.667-.239a1.351,1.351,0,0,0,.728-.449,1.081,1.081,0,0,0,0-.743q-.262-1.056-.892-2.808l-1.653-4.606q-.466-1.3-.951-2.557a1.706,1.706,0,0,0-.407-.685,1.245,1.245,0,0,0-.494-.225,1.319,1.319,0,0,0-.733.083l-.575.208-.21-.584q1.2-.358,1.822-.581.668-.24,1.441-.589,1.32.79,2.512,1.561t2.449,1.532l4.567,2.755q2.466,1.482,3.52,2.023l-2.137-5.95a30.046,30.046,0,0,0-1.6-4.036q-.26-.3-1.229-.055l-.719.184-.209-.583q1.515-.471,2.34-.768.863-.309,2.2-.863l.21.585-.714.255c-.574.206-.835.518-.785.932q.052.408,1.374,4.089l1.5,4.18q.606,1.685,1.6,3.979a10.875,10.875,0,0,1-1.566.242,1.2,1.2,0,0,1-.494-.152q-1.439-.772-3.069-1.756Z" transform="translate(269.147 15.101)" style="fill:#fff"/><rect x="132.243" y="173.717" width="141.909" height="11.676" rx="4.053" transform="translate(740.379 235.732) rotate(147.247)" style="fill:#fff"/><path d="M145.817,289.851c47.091-12.042,79.245,47.8,120.638,38.354,9.047-2.064,24.913-14.648,24.913-14.648-15.457,19.214-28.032,23.006-35.817,24.926-48.951,12.067-73.969-49.467-109.734-45.234" transform="translate(269.147 15.101)" style="fill:#fff"/><rect x="634.305" y="226.3" width="9.88" height="153.234" rx="3.429" style="fill:#fff"/></svg>