<svg id="Livello_1" data-name="Livello 1" xmlns="http://www.w3.org/2000/svg" viewBox="0 0 616.884 286.323"><rect x="28.402" y="18.674" width="9.88" height="46.068" rx="3.429" style="fill:#fcc107"/><rect x="28.402" y="18.674" width="9.88" height="46.068" rx="3.429" style="fill:#fcc107"/><path d="M-167.684,249.325v29.643c0,15.195-.248,30.391-.248,45.586,0,7.473,0,15.2.248,22.668.25,8.22,4.983,14.946,13.452,15.693h27.4c8.968-.747,15.2-13.7,19.43-41.1h1.993l-2.242,41.1v1.993h-90.673v-1.993h.5c11.708,0,14.448-9.964,14.448-20.177-.249,0-.249-13.949-.249-32.882V247.83c.249-12.454.249-23.166.249-29.891V211.96a20.153,20.153,0,0,0-2.989-9.217,13.032,13.032,0,0,0-9.715-5.729h-2.242v-1.993h37.615c23.664-.249,49.072-.748,53.307-4.234.748,15.693,1.495,31.386,2.491,47.08H-106.9c-1.494-9.466-5.729-40.106-20.675-40.853h-40.106v49.821" transform="translate(269.147 -92.014)" style="fill:#0a5a5c"/><path d="M-198.679,277.847" transform="translate(269.147 -92.014)" style="fill:none;stroke:#1d1d1b;stroke-miterlimit:10;stroke-width:0.25px"/><path d="M-198.415,277.788" transform="translate(269.147 -92.014)" style="fill:none;stroke:#1d1d1b;stroke-miterlimit:10;stroke-width:0.25px"/><path d="M-217.7,310.73" transform="translate(269.147 -92.014)" style="fill:#1d1d1b"/><path d="M-246,296.531" transform="translate(269.147 -92.014)" style="fill:#1d1d1b"/><path d="M-198.679,277.847" transform="translate(269.147 -92.014)" style="fill:none;stroke:#1d1d1b;stroke-miterlimit:10;stroke-width:0.25px"/><path d="M-198.415,277.788" transform="translate(269.147 -92.014)" style="fill:none;stroke:#1d1d1b;stroke-miterlimit:10;stroke-width:0.25px"/><rect x="-117.613" y="237.011" width="154.421" height="11.067" rx="3.996" transform="translate(471.289 190.933) rotate(90)" style="fill:#fcc107"/><path d="M-262.541,176.554a4.82,4.82,0,0,1-4.072-2.221l-1.725-2.681a4.807,4.807,0,0,1-.659-3.643,4.809,4.809,0,0,1,2.111-3.043l112.208-72.182a4.829,4.829,0,0,1,2.614-.77,4.824,4.824,0,0,1,4.072,2.221l1.724,2.681a4.8,4.8,0,0,1,.66,3.644,4.807,4.807,0,0,1-2.111,3.042l-112.209,72.182a4.815,4.815,0,0,1-2.613.77Z" transform="translate(269.147 -92.014)" style="fill:#fcc107"/><path d="M-167.425,295.356c-21.29,0-38.11-13.582-53.235-25.8-14.551-11.749-28.3-22.848-43.954-20.993l-.139-1.18c16.158-1.917,30.088,9.339,44.839,21.249,18.648,15.058,37.93,30.625,64.822,24,5.869-1.446,17.627-4.346,32.108-20.7-5.366,3.9-14.662,10.149-20.929,11.579-20.113,4.59-37.713-6.752-56.348-18.758-19.684-12.683-40.04-25.8-64.275-19.6L-264.83,244c24.737-6.323,45.314,6.932,65.213,19.753,18.418,11.867,35.811,23.08,55.44,18.6,8.814-2.011,24.519-14.409,24.676-14.534l.832.838c-16.278,20.233-29.692,23.54-36.138,25.129A52.539,52.539,0,0,1-167.425,295.356Z" transform="translate(269.147 -92.014)" style="fill:#fcc107"/><path d="M-198.916,365.5v-3.18h1.091c9.323,0,13.678-7.107,13.679-20.277h0c.035-1.074-.01-2.6-.043-8.645-.031-5.855-.031-14.076-.031-23.543V247.83c.25-12.46.25-23.372.25-29.891V211.96a19.435,19.435,0,0,0-2.9-8.9,12.364,12.364,0,0,0-9.279-5.458l-2.77,0v-3.181h38.208c18.163-.191,48.572-.511,52.93-4.1l.914-.752.066,1.37c.731,15.367,1.489,31.257,2.481,46.883l.041.631h-3.134l-.247-1.578c-1.645-10.551-6.014-38.578-19.951-39.275H-167.09v81.36c0,7.6-.063,15.326-.124,22.8s-.125,15.192-.125,22.788c0,7.465,0,15.185.249,22.648.258,8.518,5.325,14.453,12.91,15.122l27.349,0c8.672-.725,14.675-13.626,18.843-40.6l.078-.5h3.128l-2.275,41.728V365.5Z" transform="translate(269.147 -92.014)" style="fill:#fcc107"/><path d="M-167.684,249.325v29.643c0,15.195-.248,30.391-.248,45.586,0,7.473,0,15.2.248,22.668.25,8.218,4.98,14.942,13.444,15.693h27.409c8.956-.746,15.179-13.666,19.413-40.992a.131.131,0,0,1,.127-.11h1.747a.128.128,0,0,1,.128.135l-2.234,40.964v1.868a.128.128,0,0,1-.128.128h-90.417a.128.128,0,0,1-.128-.128v-1.865h.5c11.708,0,14.448-9.964,14.448-20.177,0,.7-.249-13.949-.249-32.882V247.83c.249-12.454.249-23.166.249-29.891v-5.985a20.153,20.153,0,0,0-2.989-9.211,13.032,13.032,0,0,0-9.706-5.728h-2.123a.128.128,0,0,1-.128-.128v-1.737a.128.128,0,0,1,.128-.128h37.487c23.34-.245,48.376-.734,53.121-4.093a.124.124,0,0,1,.2.1c.741,15.568,1.484,31.137,2.471,46.706a.128.128,0,0,1-.128.136h-1.747a.124.124,0,0,1-.126-.1c-1.509-9.584-5.768-40-20.659-40.748h-39.978a.128.128,0,0,0-.128.128v52.183Z" transform="translate(269.147 -92.014)" style="fill:#0a5a5c"/><path d="M-41.431,176.554a4.822,4.822,0,0,1-2.613-.769L-156.253,103.6a4.81,4.81,0,0,1-2.111-3.042,4.8,4.8,0,0,1,.66-3.644l1.724-2.681a4.824,4.824,0,0,1,4.072-2.221,4.827,4.827,0,0,1,2.614.77l112.209,72.183a4.8,4.8,0,0,1,2.111,3.042,4.8,4.8,0,0,1-.66,3.643l-1.725,2.681A4.821,4.821,0,0,1-41.431,176.554Z" transform="translate(269.147 -92.014)" style="fill:#fcc107"/><rect x="-167.702" y="128.446" width="141.909" height="11.676" rx="4.053" transform="translate(326.415 -18.323) rotate(32.753)" style="fill:#0a5a5c"/><path d="M-264.962,248.572a4.189,4.189,0,0,1-4.185-4.185V168.845a4.189,4.189,0,0,1,4.185-4.185h2.7a4.189,4.189,0,0,1,4.185,4.185v75.542a3.86,3.86,0,0,1-3.99,3.99l-2.872.195Z" transform="translate(269.147 -92.014)" style="fill:#fcc107"/><path d="M-262.265,165.254h-2.7a3.591,3.591,0,0,0-3.591,3.591v75.542a3.591,3.591,0,0,0,3.591,3.591l2.893-.194a3.268,3.268,0,0,0,3.4-3.4V168.845A3.591,3.591,0,0,0-262.265,165.254Z" transform="translate(269.147 -92.014)" style="fill:#0a5a5c"/><path d="M-217.7,310.73" transform="translate(269.147 -92.014)" style="fill:#1d1d1b"/><path d="M-246,296.531" transform="translate(269.147 -92.014)" style="fill:#1d1d1b"/><rect x="-278.257" y="128.446" width="141.909" height="11.676" rx="4.053" transform="translate(-39.851 267.358) rotate(147.247)" style="fill:#0a5a5c"/><path d="M-264.683,244.58c47.091-12.042,79.245,47.8,120.638,38.354,9.047-2.064,24.913-14.647,24.913-14.647-15.457,19.213-28.032,23.006-35.817,24.925-48.951,12.067-73.97-49.466-109.734-45.234" transform="translate(269.147 -92.014)" style="fill:#0a5a5c"/><rect x="223.805" y="73.914" width="9.88" height="153.234" rx="3.429" style="fill:#0a5a5c"/><rect x="446.079" y="74.924" width="8.196" height="38.219" rx="3.429" style="fill:#fcc107"/><rect x="446.079" y="74.924" width="8.196" height="38.219" rx="3.429" style="fill:#fcc107"/><path d="M237.545,281.954v24.593c0,12.606-.206,25.212-.206,37.819,0,6.2,0,12.606.206,18.806.207,6.819,4.134,12.4,11.16,13.019h22.733c7.44-.619,12.606-11.366,16.119-34.1h1.653l-1.859,34.1v1.653H212.126v-1.653h.414c9.712,0,11.986-8.266,11.986-16.739-.207,0-.207-11.573-.207-27.28V280.714c.207-10.333.207-19.219.207-24.8v-4.96a16.724,16.724,0,0,0-2.48-7.646,10.81,10.81,0,0,0-8.06-4.753h-1.86V236.9h31.206c19.633-.206,40.712-.62,44.225-3.513.62,13.02,1.24,26.039,2.067,39.059h-1.653c-1.24-7.853-4.754-33.272-17.153-33.892H237.545v41.332" transform="translate(269.147 -92.014)" style="fill:#0a5a5c"/><path d="M211.83,305.617" transform="translate(269.147 -92.014)" style="fill:none;stroke:#1d1d1b;stroke-miterlimit:10;stroke-width:0.25px"/><path d="M212.05,305.568" transform="translate(269.147 -92.014)" style="fill:none;stroke:#1d1d1b;stroke-miterlimit:10;stroke-width:0.25px"/><path d="M196.048,332.9" transform="translate(269.147 -92.014)" style="fill:#1d1d1b"/><path d="M172.57,321.118" transform="translate(269.147 -92.014)" style="fill:#1d1d1b"/><path d="M211.83,305.617" transform="translate(269.147 -92.014)" style="fill:none;stroke:#1d1d1b;stroke-miterlimit:10;stroke-width:0.25px"/><path d="M212.05,305.568" transform="translate(269.147 -92.014)" style="fill:none;stroke:#1d1d1b;stroke-miterlimit:10;stroke-width:0.25px"/><rect x="279.085" y="271.738" width="128.111" height="9.182" rx="3.859" transform="translate(888.617 -158.826) rotate(90)" style="fill:#fcc107"/><path d="M158.85,221.582a4,4,0,0,1-3.379-1.843l-1.431-2.224a4.013,4.013,0,0,1,1.2-5.547l93.091-59.884a4.011,4.011,0,0,1,5.547,1.2l1.431,2.224a4.013,4.013,0,0,1-1.2,5.547l-93.092,59.884a3.994,3.994,0,0,1-2.167.639Z" transform="translate(269.147 -92.014)" style="fill:#fcc107"/><path d="M237.76,320.143c-17.663,0-31.617-11.268-44.165-21.4-12.072-9.747-23.474-18.954-36.465-17.416l-.115-.978c13.4-1.591,24.961,7.747,37.2,17.628,15.471,12.492,31.469,25.407,53.779,19.909,4.869-1.2,14.624-3.605,26.637-17.174-4.451,3.236-12.163,8.42-17.363,9.606-16.687,3.808-31.288-5.6-46.747-15.562-16.331-10.522-33.219-21.4-53.325-16.26l-.244-.955c20.523-5.246,37.594,5.751,54.1,16.387,15.28,9.845,29.711,19.148,46,15.43,7.312-1.668,20.341-11.954,20.472-12.058l.69.7c-13.5,16.786-24.633,19.529-29.981,20.847A43.548,43.548,0,0,1,237.76,320.143Z" transform="translate(269.147 -92.014)" style="fill:#fcc107"/><path d="M211.634,378.337V375.7h.906c7.734,0,11.347-5.9,11.347-16.822h0c.03-.891-.008-2.154-.035-7.172-.025-4.857-.025-11.678-.025-19.532V280.714c.207-10.337.207-19.39.207-24.8v-4.96a16.13,16.13,0,0,0-2.4-7.382,10.257,10.257,0,0,0-7.7-4.528l-2.3,0V236.41h31.7c15.069-.159,40.3-.424,43.912-3.4l.759-.624.054,1.137c.607,12.748,1.236,25.931,2.059,38.895l.033.523h-2.6l-.2-1.309c-1.365-8.753-4.989-32-16.552-32.583H238.038v67.5c0,6.3-.053,12.715-.1,18.913s-.1,12.6-.1,18.906c0,6.193,0,12.6.207,18.79.214,7.066,4.418,11.99,10.71,12.545l22.69,0c7.194-.6,12.174-11.3,15.633-33.682l.064-.417h2.6l-1.887,34.618v2.119Z" transform="translate(269.147 -92.014)" style="fill:#fcc107"/><path d="M237.545,281.954v24.593c0,12.606-.206,25.212-.206,37.819,0,6.2,0,12.606.206,18.806.207,6.817,4.131,12.4,11.154,13.019h22.739c7.43-.619,12.592-11.337,16.105-34.008a.107.107,0,0,1,.105-.091h1.45a.106.106,0,0,1,.106.112l-1.853,33.985v1.549a.106.106,0,0,1-.107.106H212.233a.106.106,0,0,1-.107-.106v-1.547h.414c9.712,0,11.986-8.266,11.986-16.739,0,.579-.207-11.573-.207-27.28V280.714c.207-10.333.207-19.219.207-24.8V250.95a16.725,16.725,0,0,0-2.48-7.641,10.813,10.813,0,0,0-8.053-4.753h-1.76a.107.107,0,0,1-.107-.107v-1.441a.107.107,0,0,1,.107-.106h31.1c19.364-.2,40.134-.609,44.071-3.395a.1.1,0,0,1,.164.08c.615,12.916,1.231,25.832,2.05,38.748a.106.106,0,0,1-.106.113h-1.45a.1.1,0,0,1-.1-.086c-1.252-7.952-4.785-33.189-17.139-33.806H237.652a.106.106,0,0,0-.107.106v43.292Z" transform="translate(269.147 -92.014)" style="fill:#0a5a5c"/><path d="M342.287,221.582a4.01,4.01,0,0,1-2.168-.638l-93.091-59.885a4.016,4.016,0,0,1-1.2-5.547l1.431-2.224a4.011,4.011,0,0,1,5.547-1.2l93.091,59.885a4.012,4.012,0,0,1,1.2,5.546l-1.431,2.224A4,4,0,0,1,342.287,221.582Z" transform="translate(269.147 -92.014)" style="fill:#fcc107"/><rect x="237.53" y="181.67" width="117.731" height="9.687" rx="4.053" transform="translate(417.176 -222.715) rotate(32.753)" style="fill:#0a5a5c"/><path d="M156.841,281.329a3.475,3.475,0,0,1-3.472-3.472V215.186a3.475,3.475,0,0,1,3.472-3.472h2.237a3.475,3.475,0,0,1,3.472,3.472v62.671a3.2,3.2,0,0,1-3.31,3.311l-2.383.161Z" transform="translate(269.147 -92.014)" style="fill:#fcc107"/><path d="M159.079,212.207h-2.238a2.98,2.98,0,0,0-2.98,2.979v62.672a2.98,2.98,0,0,0,2.98,2.979l2.4-.162a2.711,2.711,0,0,0,2.818-2.817V215.186A2.979,2.979,0,0,0,159.079,212.207Z" transform="translate(269.147 -92.014)" style="fill:#0a5a5c"/><path d="M196.048,332.9" transform="translate(269.147 -92.014)" style="fill:#1d1d1b"/><path d="M172.57,321.118" transform="translate(269.147 -92.014)" style="fill:#1d1d1b"/><rect x="145.811" y="181.67" width="117.731" height="9.687" rx="4.053" transform="translate(746.866 140.627) rotate(147.247)" style="fill:#0a5a5c"/><path d="M157.072,278.017c39.068-9.99,65.744,39.655,100.084,31.82,7.506-1.712,20.669-12.152,20.669-12.152-12.824,15.94-23.256,19.086-29.715,20.679-40.611,10.011-61.367-41.039-91.038-37.527" transform="translate(269.147 -92.014)" style="fill:#0a5a5c"/><rect x="608.189" y="120.752" width="8.196" height="127.126" rx="3.429" style="fill:#0a5a5c"/></svg>