<svg id="Livello_1" data-name="Livello 1" xmlns="http://www.w3.org/2000/svg" viewBox="0 0 651.342 325.367"><rect x="28.402" y="18.674" width="9.88" height="46.068" rx="3.429" style="fill:#fcc107"/><rect x="28.402" y="18.674" width="9.88" height="46.068" rx="3.429" style="fill:#fcc107"/><path d="M-167.684,249.325v29.643c0,15.195-.248,30.391-.248,45.586,0,7.473,0,15.2.248,22.668.25,8.22,4.983,14.946,13.452,15.693h27.4c8.968-.747,15.2-13.7,19.43-41.1h1.993l-2.242,41.1v1.993h-90.673v-1.993h.5c11.708,0,14.448-9.964,14.448-20.177-.249,0-.249-13.949-.249-32.882V247.83c.249-12.454.249-23.166.249-29.891V211.96a20.153,20.153,0,0,0-2.989-9.217,13.032,13.032,0,0,0-9.715-5.729h-2.242v-1.993h37.615c23.664-.249,49.072-.748,53.307-4.234.748,15.693,1.495,31.386,2.491,47.08H-106.9c-1.494-9.466-5.729-40.106-20.675-40.853h-40.106v49.821" transform="translate(269.147 -92.014)" style="fill:#0a5a5c"/><path d="M-198.679,277.847" transform="translate(269.147 -92.014)" style="fill:none;stroke:#1d1d1b;stroke-miterlimit:10;stroke-width:0.25px"/><path d="M-198.415,277.788" transform="translate(269.147 -92.014)" style="fill:none;stroke:#1d1d1b;stroke-miterlimit:10;stroke-width:0.25px"/><path d="M-217.7,310.73" transform="translate(269.147 -92.014)" style="fill:#1d1d1b"/><path d="M-246,296.531" transform="translate(269.147 -92.014)" style="fill:#1d1d1b"/><path d="M-198.679,277.847" transform="translate(269.147 -92.014)" style="fill:none;stroke:#1d1d1b;stroke-miterlimit:10;stroke-width:0.25px"/><path d="M-198.415,277.788" transform="translate(269.147 -92.014)" style="fill:none;stroke:#1d1d1b;stroke-miterlimit:10;stroke-width:0.25px"/><rect x="-117.613" y="237.011" width="154.421" height="11.067" rx="3.996" transform="translate(471.289 190.933) rotate(90)" style="fill:#fcc107"/><path d="M-262.541,176.554a4.82,4.82,0,0,1-4.072-2.221l-1.725-2.681a4.807,4.807,0,0,1-.659-3.643,4.809,4.809,0,0,1,2.111-3.043l112.208-72.182a4.829,4.829,0,0,1,2.614-.77,4.824,4.824,0,0,1,4.072,2.221l1.724,2.681a4.8,4.8,0,0,1,.66,3.644,4.807,4.807,0,0,1-2.111,3.042l-112.209,72.182a4.815,4.815,0,0,1-2.613.77Z" transform="translate(269.147 -92.014)" style="fill:#fcc107"/><path d="M-167.425,295.356c-21.29,0-38.11-13.582-53.235-25.8-14.551-11.749-28.3-22.848-43.954-20.993l-.139-1.18c16.158-1.917,30.088,9.339,44.839,21.249,18.648,15.058,37.93,30.625,64.822,24,5.869-1.446,17.627-4.346,32.108-20.7-5.366,3.9-14.662,10.149-20.929,11.579-20.113,4.59-37.713-6.752-56.348-18.758-19.684-12.683-40.04-25.8-64.275-19.6L-264.83,244c24.737-6.323,45.314,6.932,65.213,19.753,18.418,11.867,35.811,23.08,55.44,18.6,8.814-2.011,24.519-14.409,24.676-14.534l.832.838c-16.278,20.233-29.692,23.54-36.138,25.129A52.539,52.539,0,0,1-167.425,295.356Z" transform="translate(269.147 -92.014)" style="fill:#fcc107"/><path d="M-198.916,365.5v-3.18h1.091c9.323,0,13.678-7.107,13.679-20.277h0c.035-1.074-.01-2.6-.043-8.645-.031-5.855-.031-14.076-.031-23.543V247.83c.25-12.46.25-23.372.25-29.891V211.96a19.435,19.435,0,0,0-2.9-8.9,12.364,12.364,0,0,0-9.279-5.458l-2.77,0v-3.181h38.208c18.163-.191,48.572-.511,52.93-4.1l.914-.752.066,1.37c.731,15.367,1.489,31.257,2.481,46.883l.041.631h-3.134l-.247-1.578c-1.645-10.551-6.014-38.578-19.951-39.275H-167.09v81.36c0,7.6-.063,15.326-.124,22.8s-.125,15.192-.125,22.788c0,7.465,0,15.185.249,22.648.258,8.518,5.325,14.453,12.91,15.122l27.349,0c8.672-.725,14.675-13.626,18.843-40.6l.078-.5h3.128l-2.275,41.728V365.5Z" transform="translate(269.147 -92.014)" style="fill:#fcc107"/><path d="M-167.684,249.325v29.643c0,15.195-.248,30.391-.248,45.586,0,7.473,0,15.2.248,22.668.25,8.218,4.98,14.942,13.444,15.693h27.409c8.956-.746,15.179-13.666,19.413-40.992a.131.131,0,0,1,.127-.11h1.747a.128.128,0,0,1,.128.135l-2.234,40.964v1.868a.128.128,0,0,1-.128.128h-90.417a.128.128,0,0,1-.128-.128v-1.865h.5c11.708,0,14.448-9.964,14.448-20.177,0,.7-.249-13.949-.249-32.882V247.83c.249-12.454.249-23.166.249-29.891v-5.985a20.153,20.153,0,0,0-2.989-9.211,13.032,13.032,0,0,0-9.706-5.728h-2.123a.128.128,0,0,1-.128-.128v-1.737a.128.128,0,0,1,.128-.128h37.487c23.34-.245,48.376-.734,53.121-4.093a.124.124,0,0,1,.2.1c.741,15.568,1.484,31.137,2.471,46.706a.128.128,0,0,1-.128.136h-1.747a.124.124,0,0,1-.126-.1c-1.509-9.584-5.768-40-20.659-40.748h-39.978a.128.128,0,0,0-.128.128v52.183Z" transform="translate(269.147 -92.014)" style="fill:#0a5a5c"/><path d="M-41.431,176.554a4.822,4.822,0,0,1-2.613-.769L-156.253,103.6a4.81,4.81,0,0,1-2.111-3.042,4.8,4.8,0,0,1,.66-3.644l1.724-2.681a4.824,4.824,0,0,1,4.072-2.221,4.827,4.827,0,0,1,2.614.77l112.209,72.183a4.8,4.8,0,0,1,2.111,3.042,4.8,4.8,0,0,1-.66,3.643l-1.725,2.681A4.821,4.821,0,0,1-41.431,176.554Z" transform="translate(269.147 -92.014)" style="fill:#fcc107"/><rect x="-167.702" y="128.446" width="141.909" height="11.676" rx="4.053" transform="translate(326.415 -18.323) rotate(32.753)" style="fill:#0a5a5c"/><path d="M-264.962,248.572a4.189,4.189,0,0,1-4.185-4.185V168.845a4.189,4.189,0,0,1,4.185-4.185h2.7a4.189,4.189,0,0,1,4.185,4.185v75.542a3.86,3.86,0,0,1-3.99,3.99l-2.872.195Z" transform="translate(269.147 -92.014)" style="fill:#fcc107"/><path d="M-262.265,165.254h-2.7a3.591,3.591,0,0,0-3.591,3.591v75.542a3.591,3.591,0,0,0,3.591,3.591l2.893-.194a3.268,3.268,0,0,0,3.4-3.4V168.845A3.591,3.591,0,0,0-262.265,165.254Z" transform="translate(269.147 -92.014)" style="fill:#0a5a5c"/><path d="M-217.7,310.73" transform="translate(269.147 -92.014)" style="fill:#1d1d1b"/><path d="M-246,296.531" transform="translate(269.147 -92.014)" style="fill:#1d1d1b"/><rect x="-278.257" y="128.446" width="141.909" height="11.676" rx="4.053" transform="translate(-39.851 267.358) rotate(147.247)" style="fill:#0a5a5c"/><path d="M-264.683,244.58c47.091-12.042,79.245,47.8,120.638,38.354,9.047-2.064,24.913-14.647,24.913-14.647-15.457,19.213-28.032,23.006-35.817,24.925-48.951,12.067-73.97-49.466-109.734-45.234" transform="translate(269.147 -92.014)" style="fill:#0a5a5c"/><rect x="223.805" y="73.914" width="9.88" height="153.234" rx="3.429" style="fill:#0a5a5c"/><rect x="446.079" y="74.924" width="8.196" height="38.219" rx="3.429" style="fill:#fcc107"/><rect x="446.079" y="74.924" width="8.196" height="38.219" rx="3.429" style="fill:#fcc107"/><path d="M237.545,281.954v24.593c0,12.606-.206,25.212-.206,37.819,0,6.2,0,12.606.206,18.806.207,6.819,4.134,12.4,11.16,13.019h22.733c7.44-.619,12.606-11.366,16.119-34.1h1.653l-1.859,34.1v1.653H212.126v-1.653h.414c9.712,0,11.986-8.266,11.986-16.739-.207,0-.207-11.573-.207-27.28V280.714c.207-10.333.207-19.219.207-24.8v-4.96a16.724,16.724,0,0,0-2.48-7.646,10.81,10.81,0,0,0-8.06-4.753h-1.86V236.9h31.206c19.633-.206,40.712-.62,44.225-3.513.62,13.02,1.24,26.039,2.067,39.059h-1.653c-1.24-7.853-4.754-33.272-17.153-33.892H237.545v41.332" transform="translate(269.147 -92.014)" style="fill:#0a5a5c"/><path d="M211.83,305.617" transform="translate(269.147 -92.014)" style="fill:none;stroke:#1d1d1b;stroke-miterlimit:10;stroke-width:0.25px"/><path d="M212.05,305.568" transform="translate(269.147 -92.014)" style="fill:none;stroke:#1d1d1b;stroke-miterlimit:10;stroke-width:0.25px"/><path d="M196.048,332.9" transform="translate(269.147 -92.014)" style="fill:#1d1d1b"/><path d="M172.57,321.118" transform="translate(269.147 -92.014)" style="fill:#1d1d1b"/><path d="M211.83,305.617" transform="translate(269.147 -92.014)" style="fill:none;stroke:#1d1d1b;stroke-miterlimit:10;stroke-width:0.25px"/><path d="M212.05,305.568" transform="translate(269.147 -92.014)" style="fill:none;stroke:#1d1d1b;stroke-miterlimit:10;stroke-width:0.25px"/><rect x="279.085" y="271.738" width="128.111" height="9.182" rx="3.859" transform="translate(888.617 -158.826) rotate(90)" style="fill:#fcc107"/><path d="M158.85,221.582a4,4,0,0,1-3.379-1.843l-1.431-2.224a4.013,4.013,0,0,1,1.2-5.547l93.091-59.884a4.011,4.011,0,0,1,5.547,1.2l1.431,2.224a4.013,4.013,0,0,1-1.2,5.547l-93.092,59.884a3.994,3.994,0,0,1-2.167.639Z" transform="translate(269.147 -92.014)" style="fill:#fcc107"/><path d="M237.76,320.143c-17.663,0-31.617-11.268-44.165-21.4-12.072-9.747-23.474-18.954-36.465-17.416l-.115-.978c13.4-1.591,24.961,7.747,37.2,17.628,15.471,12.492,31.469,25.407,53.779,19.909,4.869-1.2,14.624-3.605,26.637-17.174-4.451,3.236-12.163,8.42-17.363,9.606-16.687,3.808-31.288-5.6-46.747-15.562-16.331-10.522-33.219-21.4-53.325-16.26l-.244-.955c20.523-5.246,37.594,5.751,54.1,16.387,15.28,9.845,29.711,19.148,46,15.43,7.312-1.668,20.341-11.954,20.472-12.058l.69.7c-13.5,16.786-24.633,19.529-29.981,20.847A43.548,43.548,0,0,1,237.76,320.143Z" transform="translate(269.147 -92.014)" style="fill:#fcc107"/><path d="M211.634,378.337V375.7h.906c7.734,0,11.347-5.9,11.347-16.822h0c.03-.891-.008-2.154-.035-7.172-.025-4.857-.025-11.678-.025-19.532V280.714c.207-10.337.207-19.39.207-24.8v-4.96a16.13,16.13,0,0,0-2.4-7.382,10.257,10.257,0,0,0-7.7-4.528l-2.3,0V236.41h31.7c15.069-.159,40.3-.424,43.912-3.4l.759-.624.054,1.137c.607,12.748,1.236,25.931,2.059,38.895l.033.523h-2.6l-.2-1.309c-1.365-8.753-4.989-32-16.552-32.583H238.038v67.5c0,6.3-.053,12.715-.1,18.913s-.1,12.6-.1,18.906c0,6.193,0,12.6.207,18.79.214,7.066,4.418,11.99,10.71,12.545l22.69,0c7.194-.6,12.174-11.3,15.633-33.682l.064-.417h2.6l-1.887,34.618v2.119Z" transform="translate(269.147 -92.014)" style="fill:#fcc107"/><path d="M237.545,281.954v24.593c0,12.606-.206,25.212-.206,37.819,0,6.2,0,12.606.206,18.806.207,6.817,4.131,12.4,11.154,13.019h22.739c7.43-.619,12.592-11.337,16.105-34.008a.107.107,0,0,1,.105-.091h1.45a.106.106,0,0,1,.106.112l-1.853,33.985v1.549a.106.106,0,0,1-.107.106H212.233a.106.106,0,0,1-.107-.106v-1.547h.414c9.712,0,11.986-8.266,11.986-16.739,0,.579-.207-11.573-.207-27.28V280.714c.207-10.333.207-19.219.207-24.8V250.95a16.725,16.725,0,0,0-2.48-7.641,10.813,10.813,0,0,0-8.053-4.753h-1.76a.107.107,0,0,1-.107-.107v-1.441a.107.107,0,0,1,.107-.106h31.1c19.364-.2,40.134-.609,44.071-3.395a.1.1,0,0,1,.164.08c.615,12.916,1.231,25.832,2.05,38.748a.106.106,0,0,1-.106.113h-1.45a.1.1,0,0,1-.1-.086c-1.252-7.952-4.785-33.189-17.139-33.806H237.652a.106.106,0,0,0-.107.106v43.292Z" transform="translate(269.147 -92.014)" style="fill:#0a5a5c"/><path d="M342.287,221.582a4.01,4.01,0,0,1-2.168-.638l-93.091-59.885a4.016,4.016,0,0,1-1.2-5.547l1.431-2.224a4.011,4.011,0,0,1,5.547-1.2l93.091,59.885a4.012,4.012,0,0,1,1.2,5.546l-1.431,2.224A4,4,0,0,1,342.287,221.582Z" transform="translate(269.147 -92.014)" style="fill:#fcc107"/><rect x="237.53" y="181.67" width="117.731" height="9.687" rx="4.053" transform="translate(417.176 -222.715) rotate(32.753)" style="fill:#0a5a5c"/><path d="M156.841,281.329a3.475,3.475,0,0,1-3.472-3.472V215.186a3.475,3.475,0,0,1,3.472-3.472h2.237a3.475,3.475,0,0,1,3.472,3.472v62.671a3.2,3.2,0,0,1-3.31,3.311l-2.383.161Z" transform="translate(269.147 -92.014)" style="fill:#fcc107"/><path d="M159.079,212.207h-2.238a2.98,2.98,0,0,0-2.98,2.979v62.672a2.98,2.98,0,0,0,2.98,2.979l2.4-.162a2.711,2.711,0,0,0,2.818-2.817V215.186A2.979,2.979,0,0,0,159.079,212.207Z" transform="translate(269.147 -92.014)" style="fill:#0a5a5c"/><path d="M196.048,332.9" transform="translate(269.147 -92.014)" style="fill:#1d1d1b"/><path d="M172.57,321.118" transform="translate(269.147 -92.014)" style="fill:#1d1d1b"/><path d="M127.772,169.693l1.4,1.434.812.818q.756.773,1.122,1.112.916-.771,1.894-1.727a11.984,11.984,0,0,0,1.042-1.135,3.855,3.855,0,0,0,.459-.746q-.355-.656-.958-1.577l.385-.376q1.1,1.435,1.516,1.864l.269.252q-.614.715-1.262,1.35l-.933.88q-1.56,1.444-2.271,2.141-.684.669-1.776,1.818l-.36-.368.181-.177a1.771,1.771,0,0,0,.542-.725.976.976,0,0,0-.282-.638q-.317-.411-1.545-1.666l-3.136-3.206q-.773-.787-1.3-1.253a3.759,3.759,0,0,0-.667-.519.472.472,0,0,0-.271-.026,2.189,2.189,0,0,0-.593.4l-.5.393-.359-.368.63-.617.639-.586q.538-.486.808-.751l2.209-2.228,1.056-1.046q.538-.537,1.138-1.033a9.125,9.125,0,0,0,1.52,2.044l-.4.388a10.494,10.494,0,0,0-1.11-1,6.846,6.846,0,0,0-1.945,1.4q-.8.784-1.607,1.711.541.541,1.061,1.107l.866.909,1.158,1.183q.618-.525,1.062-.959a8.81,8.81,0,0,0,1.479-1.636q.09-.276-.4-.778l-.372-.38.4-.389q.822.921,1.337,1.448.541.555,1.32,1.268l-.4.388-.331-.339q-.549-.559-.891-.472a6.952,6.952,0,0,0-1.667,1.385C128.421,168.979,128.1,169.322,127.772,169.693Z" transform="translate(269.147 -92.014)" style="fill:#0a5a5c"/><path d="M141.783,164.574q-.985-.6-1.893-1.089l-6.939-3.724a18.311,18.311,0,0,0-1.676-.856c-.117-.029-.328.083-.632.338l-.257.216-.33-.4q1.014-.775,1.7-1.35.723-.606,1.7-1.5l.331.394-.618.519a1.16,1.16,0,0,0-.361.405.267.267,0,0,0,.062.264.8.8,0,0,0,.185.157l2.625,1.485,5.344,2.916-1.815-5.529a16.255,16.255,0,0,0-1.2-3.12c-.159-.19-.357-.193-.592-.01l-.271.2-.585.4-.33-.394q.867-.654,1.4-1.1.563-.469,1.373-1.226l.331.4-.25.21a.75.75,0,0,0-.317.505,5.991,5.991,0,0,0,.351,1.405L141.326,161a31.149,31.149,0,0,0,1.1,3.03Z" transform="translate(269.147 -92.014)" style="fill:#0a5a5c"/><path d="M144.707,154.482a5.684,5.684,0,0,1-1.069-4.539,6.435,6.435,0,0,1,2.836-4,6.19,6.19,0,0,1,4.505-1.3,5.322,5.322,0,0,1,3.641,2.389,6.122,6.122,0,0,1,1.089,4.8,6.433,6.433,0,0,1-2.8,4.2A6.114,6.114,0,0,1,150,157.194a5.12,5.12,0,0,1-2.865-.551A6.573,6.573,0,0,1,144.707,154.482Zm.972-1.5a7.6,7.6,0,0,0,2.366,2.268,4.694,4.694,0,0,0,2.567.7,4.379,4.379,0,0,0,2.379-.837,4.139,4.139,0,0,0,1.481-1.747,3.923,3.923,0,0,0,.226-2.275,6.52,6.52,0,0,0-1.165-2.606,6.691,6.691,0,0,0-2.194-2.079,4.235,4.235,0,0,0-2.411-.567,4.761,4.761,0,0,0-2.385.916,4.427,4.427,0,0,0-1.532,1.744,3.77,3.77,0,0,0-.3,2.169A5.309,5.309,0,0,0,145.679,152.98Z" transform="translate(269.147 -92.014)" style="fill:#0a5a5c"/><path d="M162.5,148.623q.711-.372,1.365-.758,1.323-.78,2.028-1.291a8.216,8.216,0,0,0,.956-.839l-.553-1.9.458-.27q.608,1.436,1.19,2.647a12.967,12.967,0,0,1-1.669,1.125l-3.383,1.919q-.676.4-2.059,1.318l-.22-.373a1.329,1.329,0,0,0,.354-.921,14.176,14.176,0,0,0-1.213-2.291l-2.282-3.869a14.66,14.66,0,0,0-1.49-2.294q-.244-.185-.716.095l-.767.452-.262-.444q1.7-.937,2.253-1.262.733-.431,1.956-1.219l.261.444-.872.514c-.249.148-.364.311-.345.492a9.136,9.136,0,0,0,.952,1.843l2.643,4.483,1.191,1.973Z" transform="translate(269.147 -92.014)" style="fill:#0a5a5c"/><path d="M174.973,142.862q-.809-.825-1.573-1.516l-5.825-5.3a18.025,18.025,0,0,0-1.418-1.235c-.106-.058-.339,0-.7.174l-.3.146-.225-.463q1.173-.506,1.978-.9.849-.412,2.01-1.04l.225.463-.726.352a1.169,1.169,0,0,0-.448.307.265.265,0,0,0,0,.27.811.811,0,0,0,.141.2L170.3,136.4l4.475,4.125-.418-5.8a16.272,16.272,0,0,0-.408-3.32q-.162-.332-.572-.152l-.311.124-.663.241-.225-.463c.667-.28,1.211-.524,1.631-.727q.658-.321,1.63-.856l.225.463-.294.142a.758.758,0,0,0-.43.414,6.006,6.006,0,0,0,0,1.449l.46,7.25a31.492,31.492,0,0,0,.332,3.208Z" transform="translate(269.147 -92.014)" style="fill:#0a5a5c"/><path d="M183.405,132.8l.747,1.86.438,1.068q.4,1,.611,1.456,1.141-.361,2.41-.87a11.967,11.967,0,0,0,1.4-.649,3.9,3.9,0,0,0,.711-.515q-.079-.743-.283-1.823l.5-.2q.464,1.748.687,2.3l.152.337q-.841.424-1.683.762l-1.2.455q-1.994.739-2.917,1.111-.888.356-2.336,1l-.193-.477.236-.1a1.75,1.75,0,0,0,.778-.462.965.965,0,0,0-.017-.7q-.135-.5-.789-2.131l-1.672-4.162q-.411-1.025-.722-1.656a3.758,3.758,0,0,0-.418-.734.47.47,0,0,0-.241-.128,2.27,2.27,0,0,0-.7.14l-.608.175-.191-.478.818-.329.814-.3q.685-.244,1.035-.385l2.893-1.213,1.376-.565c.468-.192.95-.366,1.446-.517a9.149,9.149,0,0,0,.623,2.469l-.516.208a10.407,10.407,0,0,0-.64-1.354,6.823,6.823,0,0,0-2.333.549q-1.038.417-2.139.965.294.708.556,1.429l.453,1.17.617,1.537c.515-.165.964-.326,1.349-.479a8.866,8.866,0,0,0,1.992-.946q.189-.222-.073-.873l-.2-.493.515-.208q.408,1.167.681,1.849.289.72.735,1.678l-.515.206-.177-.44c-.194-.485-.408-.743-.642-.777a6.949,6.949,0,0,0-2.07.643C184.278,132.393,183.846,132.586,183.405,132.8Z" transform="translate(269.147 -92.014)" style="fill:#0a5a5c"/><path d="M202.637,126.008q.276-.859.811-2.947l.923-3.64,1.218-.342.056.2a28.3,28.3,0,0,0-1.44,3.913,21.038,21.038,0,0,0-.851,3.382,5.62,5.62,0,0,0,.278,1.354c.265.946.5,1.692.7,2.232q.174.435.312.493a2.3,2.3,0,0,0,.85-.073l.615-.1.139.5q-1.386.33-2.158.546l-2.522.766-.139-.5.672-.188c.448-.125.691-.293.729-.5a11.487,11.487,0,0,0-.561-2.521c-.121-.429-.265-.892-.434-1.393q-1.536-1.578-2.775-2.7a14.425,14.425,0,0,0-2-1.581,2.064,2.064,0,0,0-.691-.3,2.174,2.174,0,0,0-.837.116l-.139-.495q.306-.153,1.2-.607l.586-.3a1.84,1.84,0,0,1,.677.175,10.021,10.021,0,0,1,1.678,1.355Q200.434,123.688,202.637,126.008Z" transform="translate(269.147 -92.014)" style="fill:#0a5a5c"/><path d="M209.774,124.011a5.685,5.685,0,0,1,.883-4.579,6.441,6.441,0,0,1,4.225-2.486,6.184,6.184,0,0,1,4.642.657,5.315,5.315,0,0,1,2.344,3.671,6.12,6.12,0,0,1-.97,4.822,6.431,6.431,0,0,1-4.27,2.685,6.154,6.154,0,0,1-3.138-.128,5.129,5.129,0,0,1-2.387-1.677A6.559,6.559,0,0,1,209.774,124.011Zm1.5-.971a7.6,7.6,0,0,0,1.231,3.037,4.693,4.693,0,0,0,2.055,1.693,4.393,4.393,0,0,0,2.513.209,4.159,4.159,0,0,0,2.066-.987,3.93,3.93,0,0,0,1.138-1.983,6.519,6.519,0,0,0,0-2.856,6.69,6.69,0,0,0-1.15-2.794,4.255,4.255,0,0,0-1.968-1.5,4.775,4.775,0,0,0-2.55-.141,4.439,4.439,0,0,0-2.112.964,3.78,3.78,0,0,0-1.158,1.858A5.327,5.327,0,0,0,211.275,123.04Z" transform="translate(269.147 -92.014)" style="fill:#0a5a5c"/><path d="M224,116.02l-.052-.513q1.671-.113,2.428-.191.8-.079,2.335-.3l.052.512-.593.061q-.765.078-.889.386a11.056,11.056,0,0,0,.116,2.666l.326,3.185a10.449,10.449,0,0,0,.439,2.411,2,2,0,0,0,1.106,1.053,4.169,4.169,0,0,0,2.177.254,4.91,4.91,0,0,0,2.265-.74,2.093,2.093,0,0,0,.84-1.182,8.582,8.582,0,0,0,.015-2.823l-.312-3.064a7.859,7.859,0,0,0-.44-2.415q-.222-.285-1.084-.2l-.422.043-.053-.512c1.128-.075,1.844-.131,2.148-.161q.741-.075,1.835-.244l.052.512-.556.056q-.644.066-.793.43a8.288,8.288,0,0,0,.064,2.445l.311,3.048a12.357,12.357,0,0,1,.08,2.837,3.173,3.173,0,0,1-.622,1.39,3.775,3.775,0,0,1-1.368,1.076,6.185,6.185,0,0,1-2.115.56,7.459,7.459,0,0,1-2.266-.076,3.862,3.862,0,0,1-1.519-.6,2.585,2.585,0,0,1-.811-1.022,7.819,7.819,0,0,1-.44-2.176l-.141-1.546-.254-2.479a11.793,11.793,0,0,0-.4-2.555c-.108-.174-.4-.238-.886-.189Z" transform="translate(269.147 -92.014)" style="fill:#0a5a5c"/><path d="M245.556,119.711q.822,1.137,2.036,2.642l1.607,2a2.829,2.829,0,0,0,.568.586.6.6,0,0,0,.287.068l.212,0,.009.515c-.453-.03-.847-.041-1.185-.036a9.105,9.105,0,0,0-.98.077l-2.965-3.849q-.829-1.063-1.772-2.074l.076-.28c.317.022.551.03.7.028a3.06,3.06,0,0,0,2.122-.744,2.42,2.42,0,0,0,.737-1.893,2.108,2.108,0,0,0-.686-1.633,2.715,2.715,0,0,0-1.9-.557,4.931,4.931,0,0,0-1.717.352q-.073,1.3-.045,2.778l.076,3.947a17.466,17.466,0,0,0,.2,3.194c.1.208.4.308.906.3l.636-.013.01.515c-.9-.02-1.653-.026-2.247-.014q-.7.014-2.539.106l-.01-.515.613-.011q.7-.013.827-.323a18.344,18.344,0,0,0,.068-3.225l-.074-3.929a12.73,12.73,0,0,0-.2-2.831c-.105-.2-.435-.293-.99-.284l-.442.009-.01-.514q1.521.026,2.322.012c.358-.007.876-.03,1.55-.071.784-.042,1.348-.065,1.691-.072a5.907,5.907,0,0,1,2.149.257,2.241,2.241,0,0,1,1.533,2.18,2.882,2.882,0,0,1-.79,2.05A4.424,4.424,0,0,1,245.556,119.711Z" transform="translate(269.147 -92.014)" style="fill:#0a5a5c"/><path d="M258.174,125.38l.513.04c.5.039.817-.061.936-.3a19.462,19.462,0,0,0,.418-3.5l.21-2.762a22.967,22.967,0,0,0,.143-3.6c-.07-.231-.323-.362-.756-.4l-.66-.05.039-.513q1.35.16,2.672.261,1.1.084,2,.095l-.039.514-.631-.049a1.206,1.206,0,0,0-.738.084,1.133,1.133,0,0,0-.225.687q-.108.87-.278,3.1l-.214,2.811a20.459,20.459,0,0,0-.127,3.5c.078.221.367.35.87.389l.539.041-.038.514q-1-.133-2.183-.224-1.38-.1-2.494-.131Z" transform="translate(269.147 -92.014)" style="fill:#0a5a5c"/><path d="M268.842,117.016l-.812,5.589q-.277,1.908-.313,2.67a1.287,1.287,0,0,0,.089.728,1.629,1.629,0,0,0,.75.3l.514.115-.074.51q-.874-.185-1.588-.288-.494-.072-2.276-.274l.073-.508.583.084a1.116,1.116,0,0,0,.708-.045.891.891,0,0,0,.285-.545q.219-.876.441-2.4l.583-4.019q.163-1.131.3-2.243a1.4,1.4,0,0,0-.032-.66,1.022,1.022,0,0,0-.274-.359,1.093,1.093,0,0,0-.57-.223l-.5-.073.074-.509q1.017.206,1.56.284c.388.057.817.1,1.285.13q.66,1.093,1.232,2.123t1.2,2.077l2.273,3.8q1.228,2.043,1.789,2.851l.754-5.19a25.1,25.1,0,0,0,.4-3.578c-.05-.214-.342-.387-.879-.521l-.6-.144.074-.509q1.294.246,2.013.349c.5.074,1.151.148,1.949.226l-.075.509-.622-.09q-.751-.108-.938.376-.12.32-.587,3.529l-.528,3.647q-.214,1.471-.382,3.537a8.771,8.771,0,0,1-1.241-.434,1.015,1.015,0,0,1-.3-.3q-.753-1.126-1.563-2.481Z" transform="translate(269.147 -92.014)" style="fill:#0a5a5c"/><path d="M285.384,130.032q-.108-1.149-.262-2.169l-1.172-7.786q-.25-1.687-.319-1.855c-.047-.112-.264-.212-.651-.3l-.326-.077.118-.5q1.23.349,2.1.554.918.216,2.216.462l-.118.5-.786-.184a1.163,1.163,0,0,0-.54-.048.271.271,0,0,0-.175.209.837.837,0,0,0-.015.241l.382,2.993.866,6.027,3.341-4.766a16.331,16.331,0,0,0,1.779-2.832c.057-.241-.06-.4-.347-.48l-.32-.1-.666-.231.117-.5q1.044.306,1.725.465c.476.112,1.076.234,1.8.366l-.117.5-.319-.075a.759.759,0,0,0-.595.048,6.138,6.138,0,0,0-.915,1.124l-4.219,5.914a31.924,31.924,0,0,0-1.769,2.7Z" transform="translate(269.147 -92.014)" style="fill:#0a5a5c"/><path d="M298.3,127.629l-.606,1.911-.341,1.1q-.327,1.031-.454,1.513,1.112.449,2.414.861a11.955,11.955,0,0,0,1.49.386,3.821,3.821,0,0,0,.876.056q.412-.624.941-1.588l.514.164q-.753,1.644-.934,2.213l-.1.357q-.921-.206-1.786-.481l-1.214-.41q-2.007-.7-2.957-1-.912-.29-2.44-.715l.155-.489.242.076a1.783,1.783,0,0,0,.894.138c.146-.05.289-.234.432-.548s.391-1.031.745-2.148l1.356-4.274q.333-1.052.5-1.737a3.671,3.671,0,0,0,.144-.833.465.465,0,0,0-.1-.252,2.224,2.224,0,0,0-.629-.337l-.58-.253.156-.489.841.266.817.288q.684.248,1.043.362l3,.9,1.42.44q.726.224,1.447.519a9.118,9.118,0,0,0-1.091,2.3l-.529-.167a10.342,10.342,0,0,0,.366-1.452,6.836,6.836,0,0,0-2.149-1.06q-1.068-.338-2.265-.615-.224.732-.479,1.456l-.4,1.192-.5,1.578q.755.3,1.346.487a8.808,8.808,0,0,0,2.139.538c.191-.036.357-.274.5-.721l.162-.507.529.169q-.427,1.159-.65,1.859-.236.741-.5,1.761l-.529-.167.143-.452q.237-.747,0-1.007a6.892,6.892,0,0,0-2.007-.822Q299.014,127.8,298.3,127.629Z" transform="translate(269.147 -92.014)" style="fill:#0a5a5c"/><path d="M315.553,127.955a9.347,9.347,0,0,0-1.05,2.01l-.525-.205.238-.61a1.543,1.543,0,0,0,.156-.869,2.084,2.084,0,0,0-.656-.779,4.53,4.53,0,0,0-1.324-.794,3,3,0,0,0-2.155-.136,2.162,2.162,0,0,0-1.314,1.309,2.017,2.017,0,0,0-.125,1.155,1.746,1.746,0,0,0,.521.932,9.828,9.828,0,0,0,1.917,1.145,8.256,8.256,0,0,1,1.961,1.233,2.1,2.1,0,0,1,.566,1.151,2.7,2.7,0,0,1-.185,1.446,3.613,3.613,0,0,1-2.308,2.133,5.4,5.4,0,0,1-3.841-.231,8.11,8.11,0,0,1-1.414-.725,9.874,9.874,0,0,1-1.323-1.022,17.18,17.18,0,0,0,1.047-2.292l.517.2-.15.38a3.384,3.384,0,0,0-.281.943,1.077,1.077,0,0,0,.212.513,3.359,3.359,0,0,0,.819.844,5.2,5.2,0,0,0,1.187.643,3.527,3.527,0,0,0,2.486.192,2.327,2.327,0,0,0,1.457-1.411,2.036,2.036,0,0,0,.138-1.135,1.729,1.729,0,0,0-.5-.92,7,7,0,0,0-1.65-1.006,8.9,8.9,0,0,1-2.175-1.324,2.242,2.242,0,0,1-.628-1.244,3.03,3.03,0,0,1,.224-1.6,3.313,3.313,0,0,1,2.023-2.007,4.658,4.658,0,0,1,3.336.22,7.82,7.82,0,0,1,1.462.76A8.6,8.6,0,0,1,315.553,127.955Z" transform="translate(269.147 -92.014)" style="fill:#0a5a5c"/><path d="M323.827,131.887q-.6,1.072-1.181,2.3l-1.982,4.213a14.647,14.647,0,0,0-1.1,2.647c0,.2.248.409.73.637l.555.26-.219.466q-1.286-.667-2.193-1.095t-2.228-.985l.219-.467.621.293a1.152,1.152,0,0,0,.7.17.857.857,0,0,0,.423-.419q.48-.829,1.124-2.2l1.985-4.222q.59-1.247,1.027-2.315l-.752-.354a12.124,12.124,0,0,0-2.046-.859q-.225,0-.555.549l-.569.94-.466-.218.43-.874q.25-.531.631-1.571,3.966,1.928,4.669,2.26l4.113,1.872q-.731,1.182-1.3,2.333l-.466-.219.382-1a1.516,1.516,0,0,0,.154-.653c-.025-.088-.128-.183-.308-.286q-.786-.441-1.821-.928Z" transform="translate(269.147 -92.014)" style="fill:#0a5a5c"/><path d="M340.014,141.8l-4.641,3.145q-2.611,1.773-4.436,3.169l-.284-.164q.106-.78.383-4.1l.518-6.71-3.178,5.46a8.729,8.729,0,0,0-1.106,2.253c0,.23.267.5.8.809l.263.153-.259.445q-.954-.622-1.57-.982c-.3-.172-.9-.5-1.805-.983l.259-.445.459.267a1.164,1.164,0,0,0,.7.228.833.833,0,0,0,.475-.376q.666-.936,1.332-2.08l2.326-4a20.525,20.525,0,0,0,1.051-1.952.577.577,0,0,0,0-.489,1.586,1.586,0,0,0-.643-.543l-.374-.218.259-.445q1.2.767,1.518.949.4.235,1.173.618-.252,2.4-.466,5.336l-.366,4.9,3.777-2.54q1.986-1.332,4.666-3.272.853.566,1.214.774c.277.162.788.436,1.532.826l-.259.443-.461-.267q-.624-.365-.889-.229a5.222,5.222,0,0,0-1.04,1.469l-3,5.161a7.824,7.824,0,0,0-1,2.063q0,.337.664.727l.4.235-.26.444q-.952-.618-1.849-1.142-.988-.576-2.1-1.154l.259-.445.465.271c.373.217.644.267.817.149a10.61,10.61,0,0,0,1.335-2.026Z" transform="translate(269.147 -92.014)" style="fill:#0a5a5c"/><path d="M345.405,150.529l-1.156,1.639-.659.947q-.622.882-.891,1.3.924.763,2.04,1.551a12.246,12.246,0,0,0,1.3.821,4.043,4.043,0,0,0,.818.317q.582-.471,1.378-1.228l.44.309q-1.215,1.343-1.56,1.829l-.2.311q-.815-.476-1.555-1l-1.033-.76q-1.7-1.269-2.518-1.846-.779-.552-2.108-1.417l.3-.421.207.146a1.77,1.77,0,0,0,.811.4q.231-.006.577-.393t1.36-1.819l2.586-3.665q.636-.9,1-1.5a3.868,3.868,0,0,0,.389-.751.485.485,0,0,0-.024-.271,2.249,2.249,0,0,0-.5-.512l-.475-.415.3-.421.721.507.691.524c.384.3.68.516.884.659l2.59,1.77,1.221.85q.625.431,1.222.933a9.1,9.1,0,0,0-1.736,1.864l-.454-.32a10.189,10.189,0,0,0,.788-1.274,6.839,6.839,0,0,0-1.727-1.659q-.915-.645-1.972-1.272-.437.63-.9,1.243l-.739,1.016-.955,1.353q.629.512,1.136.87a8.794,8.794,0,0,0,1.876,1.16c.192.026.424-.152.693-.535l.307-.433.453.32q-.757.975-1.182,1.575-.447.635-1.008,1.528l-.454-.321.273-.386c.3-.427.4-.748.3-.962A6.952,6.952,0,0,0,346.6,151.3Q346.039,150.907,345.405,150.529Z" transform="translate(269.147 -92.014)" style="fill:#0a5a5c"/><path d="M357.067,153.879l-3.625,4.331q-1.237,1.479-1.669,2.109a1.3,1.3,0,0,0-.306.666,1.648,1.648,0,0,0,.483.645l.378.368-.33.4q-.649-.62-1.2-1.08-.383-.321-1.794-1.427l.33-.4.451.377a1.107,1.107,0,0,0,.627.333.893.893,0,0,0,.528-.313q.647-.632,1.638-1.816l2.606-3.113q.734-.878,1.434-1.751a1.427,1.427,0,0,0,.32-.58,1.058,1.058,0,0,0-.046-.447,1.083,1.083,0,0,0-.369-.491l-.387-.324.33-.395q.759.709,1.179,1.06.45.379,1.026.786-.015,1.276-.066,2.453t-.072,2.4l-.06,4.424q-.027,2.386.025,3.366l3.367-4.02a25.081,25.081,0,0,0,2.219-2.836c.071-.208-.088-.508-.475-.9l-.432-.438.33-.394q.972.888,1.529,1.355.583.487,1.54,1.215l-.33.394-.482-.4q-.582-.487-1-.173-.272.209-2.354,2.7l-2.364,2.826q-.955,1.14-2.182,2.809a8.93,8.93,0,0,1-.829-1.021.994.994,0,0,1-.1-.418q-.05-1.35-.027-2.931Z" transform="translate(269.147 -92.014)" style="fill:#0a5a5c"/><path d="M372.3,166.067q-.924.807-1.879,1.773l-3.273,3.313a14.441,14.441,0,0,0-1.919,2.129q-.093.28.475.842l.437.431-.363.366q-.987-1.056-1.7-1.763t-1.771-1.67l.361-.367.488.483a1.157,1.157,0,0,0,.6.392.85.85,0,0,0,.538-.254c.486-.417,1.084-.981,1.793-1.7l3.279-3.318q.97-.983,1.738-1.841l-.59-.585a12.015,12.015,0,0,0-1.643-1.491c-.141-.052-.377.058-.706.331l-.851.7-.366-.362.7-.68q.412-.417,1.119-1.272,3.1,3.142,3.649,3.687l3.255,3.136q-1.083.871-2,1.766l-.367-.361.695-.818a1.558,1.558,0,0,0,.363-.566.62.62,0,0,0-.2-.371q-.592-.678-1.407-1.482Z" transform="translate(269.147 -92.014)" style="fill:#0a5a5c"/><path d="M382.2,176.448a9.412,9.412,0,0,0-1.85,1.311l-.375-.423.49-.433a1.546,1.546,0,0,0,.535-.7,2.067,2.067,0,0,0-.228-.992,4.514,4.514,0,0,0-.817-1.312,2.992,2.992,0,0,0-1.855-1.1,2.167,2.167,0,0,0-1.767.564,2.01,2.01,0,0,0-.638.973,1.745,1.745,0,0,0,.04,1.067,9.775,9.775,0,0,0,1.184,1.892,8.307,8.307,0,0,1,1.183,1.991,2.1,2.1,0,0,1-.022,1.284,2.7,2.7,0,0,1-.823,1.2,3.623,3.623,0,0,1-3.028.844,5.4,5.4,0,0,1-3.313-1.957,8.059,8.059,0,0,1-.928-1.289,10.03,10.03,0,0,1-.711-1.513,17.038,17.038,0,0,0,1.977-1.563l.368.416-.305.271a3.313,3.313,0,0,0-.681.71,1.078,1.078,0,0,0-.046.553,3.329,3.329,0,0,0,.345,1.123,5.11,5.11,0,0,0,.762,1.116,3.536,3.536,0,0,0,2.125,1.305,2.325,2.325,0,0,0,1.94-.594,2.015,2.015,0,0,0,.64-.946,1.717,1.717,0,0,0-.025-1.046,6.992,6.992,0,0,0-1.01-1.648,8.854,8.854,0,0,1-1.331-2.172,2.242,2.242,0,0,1,.007-1.391,3.039,3.039,0,0,1,.93-1.323,3.308,3.308,0,0,1,2.715-.863,4.666,4.666,0,0,1,2.87,1.716,7.832,7.832,0,0,1,.953,1.342A8.659,8.659,0,0,1,382.2,176.448Z" transform="translate(269.147 -92.014)" style="fill:#0a5a5c"/><path d="M199.1,402.746l-.7,1.88-.392,1.086q-.376,1.013-.527,1.488,1.089.5,2.37.975a11.981,11.981,0,0,0,1.471.458,3.84,3.84,0,0,0,.872.1q.441-.6,1.015-1.541l.507.189q-.831,1.6-1.039,2.166l-.113.352c-.606-.167-1.192-.357-1.759-.566l-1.195-.469q-1.971-.79-2.906-1.138-.9-.332-2.4-.829l.178-.484.239.089a1.776,1.776,0,0,0,.886.181q.222-.066.457-.528t.847-2.108l1.56-4.206q.382-1.035.577-1.711a3.658,3.658,0,0,0,.183-.825.472.472,0,0,0-.091-.257,2.286,2.286,0,0,0-.614-.367l-.567-.28.18-.482.827.307.8.328q.671.279,1.024.41l2.958,1.046,1.4.508q.715.256,1.421.588a9.043,9.043,0,0,0-1.2,2.248l-.52-.195a10.28,10.28,0,0,0,.435-1.432,6.847,6.847,0,0,0-2.1-1.162c-.7-.257-1.444-.5-2.232-.721-.173.48-.355.958-.549,1.43l-.451,1.172L199.379,402q.74.335,1.321.551a8.917,8.917,0,0,0,2.111.639q.288-.037.533-.7l.184-.5.521.193q-.482,1.136-.738,1.827-.27.726-.582,1.735l-.521-.193.164-.445c.182-.489.2-.826.047-1a6.813,6.813,0,0,0-1.965-.916C200.025,403.028,199.574,402.882,199.1,402.746Z" transform="translate(269.147 -92.014)" style="fill:#0a5a5c"/><path d="M210.9,412.556q-.07-1.154-.2-2.176l-.934-7.819a18.43,18.43,0,0,0-.261-1.863c-.043-.113-.257-.22-.641-.324l-.323-.087.133-.5q1.218.386,2.083.616.91.246,2.2.532l-.133.5-.78-.21a1.175,1.175,0,0,0-.538-.063.267.267,0,0,0-.181.2.8.8,0,0,0-.022.242l.29,3,.68,6.05L215.765,406a16.257,16.257,0,0,0,1.864-2.775c.064-.24-.047-.4-.332-.491l-.317-.109-.658-.252.133-.5q1.033.337,1.709.519.708.189,1.792.42l-.133.5-.315-.084a.747.747,0,0,0-.6.031,5.949,5.949,0,0,0-.949,1.1l-4.4,5.781a31.335,31.335,0,0,0-1.849,2.642Z" transform="translate(269.147 -92.014)" style="fill:#0a5a5c"/><path d="M220.81,408.943a5.684,5.684,0,0,1,2.382-4.008,6.434,6.434,0,0,1,4.818-.907,6.184,6.184,0,0,1,4.145,2.191,5.319,5.319,0,0,1,.96,4.249,6.124,6.124,0,0,1-2.546,4.207,6.434,6.434,0,0,1-4.927,1.08,6.168,6.168,0,0,1-2.91-1.184,5.128,5.128,0,0,1-1.677-2.389A6.564,6.564,0,0,1,220.81,408.943Zm1.742-.4a7.56,7.56,0,0,0,.128,3.273,4.7,4.7,0,0,0,1.359,2.29,4.411,4.411,0,0,0,2.293,1.05,4.18,4.18,0,0,0,2.279-.23,3.921,3.921,0,0,0,1.743-1.481,6.516,6.516,0,0,0,.971-2.683,6.7,6.7,0,0,0-.135-3.02,4.255,4.255,0,0,0-1.341-2.083,4.79,4.79,0,0,0-2.352-1,4.435,4.435,0,0,0-2.314.192,3.76,3.76,0,0,0-1.719,1.356A5.312,5.312,0,0,0,222.552,408.539Z" transform="translate(269.147 -92.014)" style="fill:#0a5a5c"/><path d="M235.624,411.123a5.69,5.69,0,0,1,1.919-4.252,6.445,6.445,0,0,1,4.686-1.44,6.186,6.186,0,0,1,4.364,1.714,5.308,5.308,0,0,1,1.429,4.114,6.119,6.119,0,0,1-2.059,4.466,6.434,6.434,0,0,1-4.775,1.625,6.179,6.179,0,0,1-3.024-.851,5.145,5.145,0,0,1-1.934-2.186A6.546,6.546,0,0,1,235.624,411.123Zm1.686-.6a7.585,7.585,0,0,0,.494,3.24,4.723,4.723,0,0,0,1.6,2.123,4.407,4.407,0,0,0,2.4.786,4.153,4.153,0,0,0,2.239-.484,3.924,3.924,0,0,0,1.565-1.665,6.514,6.514,0,0,0,.665-2.776,6.688,6.688,0,0,0-.472-2.985,4.255,4.255,0,0,0-1.566-1.92,4.768,4.768,0,0,0-2.448-.729,4.456,4.456,0,0,0-2.278.45,3.776,3.776,0,0,0-1.557,1.54A5.3,5.3,0,0,0,237.31,410.524Z" transform="translate(269.147 -92.014)" style="fill:#0a5a5c"/><path d="M256.634,411.121q.87,1.1,2.148,2.55l1.694,1.933a2.908,2.908,0,0,0,.591.56.6.6,0,0,0,.289.055l.213-.013.033.513c-.455-.01-.849,0-1.186.017a9.453,9.453,0,0,0-.976.119l-3.13-3.715q-.873-1.028-1.861-2l.065-.283c.317.008.551.006.7,0a3.043,3.043,0,0,0,2.088-.835,2.413,2.413,0,0,0,.652-1.922,2.1,2.1,0,0,0-.755-1.6,2.729,2.729,0,0,0-1.921-.473,5.01,5.01,0,0,0-1.7.426q-.018,1.3.075,2.779l.247,3.938a17.287,17.287,0,0,0,.339,3.184q.159.3.917.257l.636-.041.032.515q-1.356.029-2.246.083-.7.043-2.532.216l-.032-.514.611-.037c.468-.03.738-.148.812-.358a18.333,18.333,0,0,0-.071-3.226l-.246-3.922a12.657,12.657,0,0,0-.328-2.818c-.113-.194-.446-.277-1-.241l-.442.028-.031-.514q1.521-.037,2.319-.089.538-.033,1.546-.136,1.173-.115,1.686-.148a5.965,5.965,0,0,1,2.159.163,2.383,2.383,0,0,1,1.163.791,2.355,2.355,0,0,1,.463,1.323,2.885,2.885,0,0,1-.7,2.082A4.432,4.432,0,0,1,256.634,411.121Z" transform="translate(269.147 -92.014)" style="fill:#0a5a5c"/><path d="M264.373,415.8l.51-.072q.752-.106.85-.492a19.315,19.315,0,0,0-.343-3.508L265,408.984a22.952,22.952,0,0,0-.633-3.548c-.118-.208-.391-.283-.823-.221l-.656.092-.072-.51q1.353-.134,2.665-.319,1.1-.155,1.978-.337l.072.51-.626.088a1.214,1.214,0,0,0-.7.24,1.145,1.145,0,0,0-.072.719q.082.872.395,3.088l.4,2.791a20.494,20.494,0,0,0,.628,3.447c.122.2.432.265.931.195l.538-.077.071.51q-1.005.083-2.179.25-1.371.194-2.464.407Z" transform="translate(269.147 -92.014)" style="fill:#0a5a5c"/><path d="M270.868,409.576a5.687,5.687,0,0,1,.723-4.607,6.44,6.44,0,0,1,4.135-2.633,6.185,6.185,0,0,1,4.663.494,5.316,5.316,0,0,1,2.469,3.587,6.118,6.118,0,0,1-.8,4.852,6.441,6.441,0,0,1-4.173,2.834,6.179,6.179,0,0,1-3.142-.017,5.132,5.132,0,0,1-2.445-1.594A6.571,6.571,0,0,1,270.868,409.576Zm1.467-1.023a7.576,7.576,0,0,0,1.337,2.991,4.7,4.7,0,0,0,2.111,1.621,4.414,4.414,0,0,0,2.521.122,4.16,4.16,0,0,0,2.029-1.061A3.921,3.921,0,0,0,281.4,410.2a6.538,6.538,0,0,0-.1-2.853,6.7,6.7,0,0,0-1.249-2.752,4.265,4.265,0,0,0-2.02-1.436,4.762,4.762,0,0,0-2.553-.051,4.454,4.454,0,0,0-2.078,1.038,3.789,3.789,0,0,0-1.091,1.9A5.314,5.314,0,0,0,272.335,408.553Z" transform="translate(269.147 -92.014)" style="fill:#0a5a5c"/><path d="M286.267,401.612l1.9,5.318q.651,1.817.976,2.508c.167.349.306.55.419.6a1.606,1.606,0,0,0,.8-.092l.508-.138.174.485q-.86.248-1.538.489-.469.17-2.139.826l-.174-.484.555-.2a1.1,1.1,0,0,0,.6-.371.894.894,0,0,0,0-.615q-.219-.877-.74-2.331l-1.368-3.823c-.257-.718-.517-1.425-.785-2.122a1.427,1.427,0,0,0-.338-.569,1.028,1.028,0,0,0-.41-.187,1.08,1.08,0,0,0-.608.069l-.477.171-.173-.484c.663-.2,1.168-.357,1.511-.481q.555-.2,1.2-.489,1.1.658,2.083,1.3t2.03,1.274l3.788,2.289q2.044,1.229,2.917,1.68l-1.767-4.938a24.806,24.806,0,0,0-1.324-3.349q-.214-.248-1.019-.047l-.6.153-.172-.485q1.257-.388,1.942-.634.716-.257,1.826-.714l.174.483-.592.212q-.715.258-.653.773.043.338,1.137,3.393l1.241,3.469q.5,1.4,1.32,3.3a8.561,8.561,0,0,1-1.3.2,1.006,1.006,0,0,1-.41-.126q-1.193-.64-2.544-1.459Z" transform="translate(269.147 -92.014)" style="fill:#0a5a5c"/><rect x="145.811" y="181.67" width="117.731" height="9.687" rx="4.053" transform="translate(746.866 140.627) rotate(147.247)" style="fill:#0a5a5c"/><path d="M157.072,278.017c39.068-9.99,65.744,39.655,100.084,31.82,7.506-1.712,20.669-12.152,20.669-12.152-12.824,15.94-23.256,19.086-29.715,20.679-40.611,10.011-61.367-41.039-91.038-37.527" transform="translate(269.147 -92.014)" style="fill:#0a5a5c"/><rect x="608.189" y="120.752" width="8.196" height="127.126" rx="3.429" style="fill:#0a5a5c"/></svg>