<svg id="Livello_1" data-name="Livello 1" xmlns="http://www.w3.org/2000/svg" viewBox="0 0 1000 500"><rect width="1000" height="500" style="fill:#0a5a5c"/><path d="M586.383,295.734c-34.788,0-59.085-25.051-59.085-60.919v-.5c.175-36.165,24.678-61.418,59.585-61.418h1c35.957.638,58.282,23.575,59.749,61.357l0,2.4c0,28.242-20.933,58.547-59.729,59.084h-1.522Zm-3.5-117.854c-12.444,0-22.3,4.348-29.284,12.922-7.062,8.829-10.647,21.117-10.647,36.511,0,11.921,2.033,22.764,6.043,32.225,4.032,9.677,9.592,17.1,17,22.695a38.191,38.191,0,0,0,24.388,8.349,37.756,37.756,0,0,0,20.987-6.085c6.166-4.111,11-10.008,14.759-18.012,3.658-8.148,5.519-17.746,5.519-28.5a76.508,76.508,0,0,0-6.2-31.363c-4.064-9.1-9.77-16.228-16.959-21.182A44.223,44.223,0,0,0,582.882,177.88Z" style="fill:#fcc107"/><path d="M586.383,294.158c-33.172,0-57.51-23.837-57.51-59.343v-.5c.168-34.506,23.338-59.843,58.01-59.843h1c37.506.666,56.843,25.5,58.176,59.843v2.333c0,29.338-22,57.01-58.176,57.51Zm-45.007-66.844c0,12,2,23,6.167,32.839,4.168,10,10,17.669,17.5,23.337a41.112,41.112,0,0,0,47.175,2.334c6.5-4.334,11.5-10.5,15.335-18.67,3.668-8.169,5.668-17.837,5.668-29.172,0-12-2.167-22.671-6.334-32s-10-16.669-17.5-21.837-16.336-7.835-26.5-7.835q-19.5,0-30.5,13.5Q541.376,203.56,541.376,227.314Z" style="fill:#fff"/><path d="M708.51,292.984c-13.808,0-21.7-10.76-27.04-20.134-2.59-4.765-5.348-9.535-8.015-14.146-1.668-2.886-3.341-5.779-4.989-8.694a8.538,8.538,0,0,0-7.631-4.2,11.8,11.8,0,0,0-5.3,1.334l-2.529,1.264.256-2.815c.347-3.833,2.29-6.738,5.937-8.884a48.505,48.505,0,0,1,8.161-3.474,37.916,37.916,0,0,0,9.081-4.134A26.658,26.658,0,0,0,662,180.3h-9.262v98.608c0,4.526,2.451,9.092,7.927,9.092h1.91v4.485H629.088V288H631c7.258,0,8.031-7.249,8.1-9.471v-88.8c0-2.25-.608-9.593-8.427-9.593h-1.576v-4.485H667.5a40.446,40.446,0,0,1,11.268,1.561c14.352,4.361,23.979,16.289,23.979,29.687a29.1,29.1,0,0,1-9.147,20.967c-6.662,6.662-12.914,7.745-20.153,9-2.053.356-4.177.724-6.428,1.24a16.878,16.878,0,0,0-6.314,2.557,26.032,26.032,0,0,1,3.62-.657l1.84-.009c6.242,0,12.357,2.659,15.577,6.773a103.777,103.777,0,0,1,8.729,14.539c1.851,3.5,3.764,7.108,5.864,10.426l.439.741c3.011,5.094,9.278,15.695,15.567,15.695a1.654,1.654,0,0,0,.356-.053,4.842,4.842,0,0,1,.977-.114h1.575v4.225l-1.294.235A29.935,29.935,0,0,1,708.51,292.984Z" style="fill:#fcc107"/><path d="M651.167,278.906c0,5.667,3.334,10.668,9.5,10.668H661v1.334H630.664v-1.334H631c6.5,0,9.5-5.168,9.67-11V189.724c0-6.168-3.167-11.168-10-11.168v-1.334H667.5a38.676,38.676,0,0,1,10.835,1.5c13.168,4,22.837,15,22.837,28.172a27.629,27.629,0,0,1-8.668,19.836c-8.169,8.169-15.67,7.5-25.837,9.836-4.667,1-9,3.167-10.835,7.834a20.475,20.475,0,0,1,8.668-2.834h1.665c5.669,0,11.336,2.334,14.337,6.168,5.5,7.168,9.336,16.669,14.5,24.837,3.167,5.334,9.836,17.169,17.337,17.169.5,0,.832-.166,1.333-.166v1.334a28.521,28.521,0,0,1-5.168.5c-12,0-19.5-8.5-25.67-19.337-4.168-7.668-8.668-15.169-13-22.836a10.151,10.151,0,0,0-9-5,13.311,13.311,0,0,0-6,1.5A9.524,9.524,0,0,1,660,238.066c5.5-3.167,12-4,17.336-7.669A28.233,28.233,0,0,0,662,178.722H651.167Z" style="fill:#fff"/><path d="M702.379,292.65v-4.484h2.258l.131-.13.6-.035a6.646,6.646,0,0,0,5.3-2.991,12.714,12.714,0,0,0,1.72-6.437V190.058a5.344,5.344,0,0,0-.12-1.449l-.032-.126-.011-.129a10.37,10.37,0,0,0-1.573-4.757c-1.484-2.225-3.374-3.132-6.525-3.132h-1.575l-.167-1.576V175.98h33.49v4.485h-1.575c-6.091,0-8.261,4.782-8.261,9.259v89.349a11.277,11.277,0,0,0,1.587,5.655,6.936,6.936,0,0,0,6.085,3.441l2.164,0v4.484Z" style="fill:#fcc107"/><path d="M734.294,178.889c-6.334,0-9.836,4.668-9.836,10.835v89.349a12.757,12.757,0,0,0,1.834,6.5,8.476,8.476,0,0,0,7.335,4.167h.667v1.333H703.955v-1.333h1a.615.615,0,0,0,.5-.167,8.194,8.194,0,0,0,6.5-3.667,14.279,14.279,0,0,0,2-7.334V190.058a6.75,6.75,0,0,0-.169-1.834,11.978,11.978,0,0,0-1.832-5.5c-2-3-4.668-3.834-7.836-3.834h-.166v-1.334h30.339Z" style="fill:#fff"/><path d="M779.553,295.734c-34.789,0-59.085-25.051-59.085-60.919v-.5c.175-36.165,24.676-61.418,59.584-61.418h1c35.958.638,58.284,23.575,59.751,61.357l0,2.4c0,28.242-20.936,58.547-59.731,59.084h-1.521Zm-3.5-117.854c-12.444,0-22.3,4.348-29.283,12.922-7.062,8.828-10.647,21.117-10.647,36.511,0,11.921,2.033,22.762,6.043,32.225,4.033,9.678,9.593,17.1,17,22.695a38.2,38.2,0,0,0,24.389,8.349A37.748,37.748,0,0,0,804.54,284.5c6.166-4.111,11-10.009,14.761-18.012,3.658-8.149,5.517-17.747,5.517-28.5a76.508,76.508,0,0,0-6.2-31.363c-4.064-9.1-9.769-16.229-16.957-21.182A44.224,44.224,0,0,0,776.052,177.88Z" style="fill:#fcc107"/><path d="M904.551,292.567,836.114,192.405v86.584a10.709,10.709,0,0,0,1.7,5.575,6.772,6.772,0,0,0,5.976,3.52l2.326,0v4.485H821.628v-4.485H823.2c3.182,0,5.305-.99,6.68-3.114a12.057,12.057,0,0,0,1.745-6.312V190.141a12.73,12.73,0,0,0-1.765-6.509c-1.532-2.167-3.478-3.084-6.66-3.084h-1.575v-4.485H841.7l62.27,91V189.975a12,12,0,0,0-1.886-6.271c-1.42-2.2-3.428-3.156-6.539-3.156h-1.576v-4.485h24.488v4.485h-1.576c-3.232,0-5.4,1.085-6.824,3.413a10.808,10.808,0,0,0-1.6,5.68V292.567Z" style="fill:#fcc107"/><path d="M844.54,289.657v1.334H823.2v-1.334c3.333,0,6.168-1,8-3.834a13.691,13.691,0,0,0,2-7.167V190.141a14.283,14.283,0,0,0-2-7.335c-2-2.833-4.5-3.833-8-3.833v-1.334h17.67l64.676,94.516v-82.18a13.85,13.85,0,0,0-2.167-7.169c-1.832-2.833-4.5-3.833-7.834-3.833v-1.334h21.337v1.334c-3.5,0-6.334,1.166-8.168,4.167a12.312,12.312,0,0,0-1.833,6.5v101.35h-1.5L834.539,187.308v91.681a12.438,12.438,0,0,0,2,6.5,8.2,8.2,0,0,0,7.167,4.166Z" style="fill:#fff"/><path d="M779.553,294.158c-33.172,0-57.51-23.837-57.51-59.343v-.5c.167-34.506,23.338-59.843,58.009-59.843h1c37.507.666,56.844,25.5,58.177,59.843v2.333c0,29.338-22,57.01-58.177,57.51Zm-45.007-66.844c0,12,2,23,6.168,32.839,4.168,10,10,17.669,17.5,23.337a41.11,41.11,0,0,0,47.174,2.334c6.5-4.334,11.5-10.5,15.337-18.67,3.667-8.169,5.667-17.837,5.667-29.172,0-12-2.167-22.671-6.334-32s-10-16.669-17.5-21.837-16.338-7.835-26.5-7.835q-19.5,0-30.506,13.5Q734.545,203.56,734.546,227.314Z" style="fill:#fff"/><path d="M340.222,217.878v17.193c0,5.088-.043,10.177-.085,15.265s-.083,10.16-.083,15.24c0,4.986,0,10.142.167,15.116.122,4.035,2.173,8.51,7.565,8.985l18.2-.006c4.931-.416,8.826-9.222,11.445-26.169l.206-1.335h4.348l-1.591,29.165,0,2.824H316.567v-4.485h1.909c3.474,0,8.093-1.236,8.093-11.926h.007c-.125-1.112-.136-3.009-.153-6.244-.021-3.918-.021-9.423-.021-15.76V214.234c.167-8.35.167-15.645.167-20v-4a11.781,11.781,0,0,0-1.755-5.322,7.112,7.112,0,0,0-5.345-3.114l-2.9.01v-4.485h52c10.4-.11,14.036,2.783,16.631.645l3.783-.645-5.833,1.575c.492,10.32-1.591,18.083-.926,28.572l.107,1.675h-4.358l-.322-2.052c-.959-6.151-3.876-24.869-12.246-25.288l-25.183,0v30.442" style="fill:#fcc107"/><path d="M507.541,295.734c-34.788,0-59.085-25.051-59.085-60.919v-.5c.175-36.165,24.678-61.418,59.585-61.418h1c35.957.638,58.282,23.575,59.75,61.357l0,2.4c0,28.242-20.934,58.547-59.73,59.084h-1.522Zm-3.5-117.854c-12.444,0-22.3,4.348-29.284,12.922-7.062,8.829-10.647,21.117-10.647,36.511,0,11.921,2.033,22.764,6.043,32.225,4.032,9.677,9.592,17.1,17,22.695a38.191,38.191,0,0,0,24.388,8.349,37.756,37.756,0,0,0,20.987-6.085c6.166-4.111,11-10.008,14.759-18.012,3.658-8.148,5.519-17.746,5.519-28.5a76.508,76.508,0,0,0-6.2-31.363c-4.064-9.1-9.77-16.228-16.959-21.182A44.223,44.223,0,0,0,504.04,177.88Z" style="fill:#fcc107"/><path d="M507.541,294.158c-33.172,0-57.51-23.837-57.51-59.343v-.5c.168-34.506,23.338-59.843,58.01-59.843h1c37.506.666,56.843,25.5,58.177,59.843v2.333c0,29.338-22,57.01-58.177,57.51Zm-45.007-66.844c0,12,2,23,6.167,32.839,4.168,10,10,17.669,17.5,23.337a41.112,41.112,0,0,0,47.175,2.334c6.5-4.334,11.5-10.5,15.335-18.67,3.668-8.169,5.668-17.837,5.668-29.172,0-12-2.167-22.671-6.334-32s-10-16.669-17.5-21.837-16.336-7.835-26.5-7.835q-19.5,0-30.5,13.5Q462.534,203.56,462.534,227.314Z" style="fill:#fff"/><path d="M407.157,294.158v-4.485h1.576c5.592,0,5.592-1.414,5.592-2.258a3.462,3.462,0,0,0-.085-1l-32.007-96.687c-2-4.924-6.626-7.921-12.34-7.921h-1.576v-4.485h36.991v4.558l-1.481.09c-6.855.416-6.855,3.687-6.855,4.762a13.757,13.757,0,0,0,.767,3.881l6.989,21.129q4.368,12.982,8.659,25.98,4.315,13.01,8.674,26.02c1.7,5.22,3.389,10.429,5.081,15.557l20.785-56.769.485-1.457,3.517-9.547,7.5-20.99a14.491,14.491,0,0,0,.74-3.8c0-2.154-.794-4.4-6.687-4.762l-1.48-.09v-4.558h26.988v4.485h-1.575a13.106,13.106,0,0,0-12.382,8.032L430,286.174a10.341,10.341,0,0,0,7.053,3.673l1.427.135v4.176Z" style="fill:#fcc107"/><path d="M408.733,291.248c5.167,0,7.168-1.166,7.168-3.833a4.612,4.612,0,0,0-.167-1.5l-32.006-96.682c-2.5-6.168-8.167-9-13.835-9V178.9h33.839v1.5c-5.5.333-8.335,2.5-8.335,6.334a15.172,15.172,0,0,0,.834,4.334l7,21.171c5.834,17.336,11.5,34.672,17.336,52.008,2.167,6.668,4.334,13.336,6.5,19.837l22.337-61.011.5-1.5,3.5-9.5,7.5-21a16.283,16.283,0,0,0,.833-4.334c0-4-2.667-6-8.168-6.334v-1.5h23.838v1.334a14.7,14.7,0,0,0-13.836,9l-35.339,97.182a11.688,11.688,0,0,0,8.668,5v1.167H408.733Z" style="fill:#fff"/><path d="M484.33,318.282v2.22l.009,1.277q0,1.2.027,1.749,1.323.1,2.836.1a13.275,13.275,0,0,0,1.7-.09,4.266,4.266,0,0,0,.942-.235q.226-.8.462-1.99h.6q-.244,1.987-.244,2.649l.018.408q-1.039.09-2.044.091l-1.42-.027q-2.35-.065-3.455-.064-1.058,0-2.812.064v-.57h.28a1.946,1.946,0,0,0,.99-.154,1.081,1.081,0,0,0,.272-.724q.067-.569.068-2.514v-4.965q0-1.221-.059-2a4.1,4.1,0,0,0-.127-.927.524.524,0,0,0-.194-.23,2.455,2.455,0,0,0-.778-.145l-.7-.073v-.569h.976l.959.031c.536.022.944.032,1.221.032l3.473-.053,1.646-.01q.842-.009,1.7.063a10.087,10.087,0,0,0-.38,2.794h-.615a11.456,11.456,0,0,0-.1-1.654,7.561,7.561,0,0,0-2.623-.4q-1.239,0-2.6.108.009.849-.018,1.7l-.018,1.391V317.4q.9.065,1.583.064a9.69,9.69,0,0,0,2.437-.15q.285-.148.285-.927V315.8h.615q-.063,1.367-.063,2.18,0,.859.063,2.026h-.615v-.525q0-.869-.339-1.062a7.611,7.611,0,0,0-2.392-.195Q485.145,318.219,484.33,318.282Z" style="fill:#fff"/><path d="M497.8,324.577q-.407-1.212-.833-2.27l-3.237-8.1a20.809,20.809,0,0,0-.814-1.917c-.078-.108-.338-.163-.778-.163h-.371v-.569q1.414.063,2.4.063,1.044,0,2.5-.063v.569h-.893a1.3,1.3,0,0,0-.594.087.3.3,0,0,0-.136.269.936.936,0,0,0,.045.264l1.171,3.128,2.461,6.274,2.392-5.982a17.967,17.967,0,0,0,1.2-3.5c0-.273-.165-.417-.5-.428l-.37-.027-.777-.081v-.569q1.2.063,1.976.063.811,0,2.038-.063v.569h-.363a.836.836,0,0,0-.628.2,6.7,6.7,0,0,0-.7,1.442l-3.048,7.444a34.754,34.754,0,0,0-1.221,3.355Z" style="fill:#fff"/><path d="M505.33,317.993a6.3,6.3,0,0,1,1.919-4.793,7.127,7.127,0,0,1,5.113-1.818,6.85,6.85,0,0,1,4.91,1.686,5.892,5.892,0,0,1,1.778,4.482,6.771,6.771,0,0,1-2.064,5.037,7.121,7.121,0,0,1-5.2,2.026,6.813,6.813,0,0,1-3.384-.8,5.678,5.678,0,0,1-2.246-2.324A7.272,7.272,0,0,1,505.33,317.993Zm1.836-.742a8.408,8.408,0,0,0,.7,3.559,5.2,5.2,0,0,0,1.879,2.271,4.872,4.872,0,0,0,2.689.754,4.6,4.6,0,0,0,2.453-.642,4.341,4.341,0,0,0,1.652-1.917,7.217,7.217,0,0,0,.6-3.1,7.41,7.41,0,0,0-.665-3.278,4.709,4.709,0,0,0-1.825-2.049,5.277,5.277,0,0,0-2.743-.687,4.912,4.912,0,0,0-2.5.606,4.178,4.178,0,0,0-1.647,1.777A5.873,5.873,0,0,0,507.166,317.251Z" style="fill:#fff"/><path d="M523.49,323.546q.887.045,1.728.045,1.7,0,2.659-.09a9.364,9.364,0,0,0,1.384-.262l.542-2.126h.588q-.226,1.71-.353,3.193a14.177,14.177,0,0,1-2.224.135l-4.306-.072q-.867,0-2.7.1v-.48q.723-.316.855-.678a15.587,15.587,0,0,0,.131-2.867V315.47a16.564,16.564,0,0,0-.131-3.026q-.132-.312-.737-.312h-.986v-.569q2.152.063,2.858.063.941,0,2.55-.063v.569h-1.121c-.32,0-.522.093-.606.276a10.153,10.153,0,0,0-.127,2.293v5.761l.028,2.551Z" style="fill:#fff"/><path d="M537.048,324.577q-.408-1.212-.832-2.27l-3.238-8.1a20.488,20.488,0,0,0-.814-1.917c-.079-.108-.338-.163-.778-.163h-.37v-.569q1.412.063,2.4.063,1.044,0,2.5-.063v.569h-.894a1.293,1.293,0,0,0-.593.087.3.3,0,0,0-.135.269.9.9,0,0,0,.045.264l1.17,3.128,2.462,6.274,2.39-5.982a17.931,17.931,0,0,0,1.2-3.5c0-.273-.165-.417-.5-.428l-.369-.027-.776-.081v-.569q1.2.063,1.975.063.81,0,2.038-.063v.569h-.363a.835.835,0,0,0-.628.2,6.7,6.7,0,0,0-.7,1.442l-3.048,7.444a34.429,34.429,0,0,0-1.22,3.355Z" style="fill:#fff"/><path d="M548.272,318.282v2.22l.008,1.277q0,1.2.028,1.749,1.322.1,2.835.1a13.3,13.3,0,0,0,1.7-.09,4.258,4.258,0,0,0,.941-.235q.228-.8.462-1.99h.6q-.243,1.987-.244,2.649l.018.408q-1.039.09-2.044.091l-1.42-.027q-2.35-.065-3.455-.064-1.058,0-2.812.064v-.57h.28a1.949,1.949,0,0,0,.99-.154,1.076,1.076,0,0,0,.272-.724q.067-.569.067-2.514v-4.965q0-1.221-.058-2a4.187,4.187,0,0,0-.126-.927.528.528,0,0,0-.2-.23,2.439,2.439,0,0,0-.777-.145l-.7-.073v-.569h.976l.959.031c.536.022.944.032,1.221.032l3.473-.053,1.646-.01q.842-.009,1.7.063a10.125,10.125,0,0,0-.38,2.794h-.615a11.456,11.456,0,0,0-.1-1.654,7.557,7.557,0,0,0-2.623-.4q-1.239,0-2.6.108.009.849-.019,1.7l-.017,1.391V317.4q.894.065,1.582.064a9.684,9.684,0,0,0,2.437-.15c.191-.1.285-.408.285-.927V315.8h.616q-.064,1.367-.064,2.18,0,.859.064,2.026h-.616v-.525q0-.869-.339-1.062a7.615,7.615,0,0,0-2.392-.195Q549.084,318.219,548.272,318.282Z" style="fill:#fff"/><path d="M566.83,318.065q.552-.833,1.745-2.9l2.072-3.6h1.4v.226a31.081,31.081,0,0,0-2.7,3.74,23.365,23.365,0,0,0-1.918,3.35,6.144,6.144,0,0,0-.109,1.526q0,1.635.083,2.591.054.514.184.619a2.593,2.593,0,0,0,.928.176l.686.072v.57q-1.575-.065-2.464-.064l-2.917.064v-.57h.773q.772,0,.927-.316a12.686,12.686,0,0,0,.155-2.853q0-.739-.046-1.616-1.165-2.14-2.152-3.7a16,16,0,0,0-1.664-2.286,2.294,2.294,0,0,0-.647-.524,2.426,2.426,0,0,0-.927-.126v-.57q.371-.072,1.456-.289l.714-.145a1.983,1.983,0,0,1,.67.389,10.98,10.98,0,0,1,1.384,1.945Q565.175,314.936,566.83,318.065Z" style="fill:#fff"/><path d="M572.881,317.993A6.3,6.3,0,0,1,574.8,313.2a7.125,7.125,0,0,1,5.113-1.818,6.846,6.846,0,0,1,4.909,1.686,5.889,5.889,0,0,1,1.779,4.482,6.771,6.771,0,0,1-2.064,5.037,7.121,7.121,0,0,1-5.2,2.026,6.819,6.819,0,0,1-3.385-.8,5.682,5.682,0,0,1-2.245-2.324A7.261,7.261,0,0,1,572.881,317.993Zm1.836-.742a8.392,8.392,0,0,0,.7,3.559,5.2,5.2,0,0,0,1.879,2.271,4.871,4.871,0,0,0,2.688.754,4.6,4.6,0,0,0,2.454-.642,4.341,4.341,0,0,0,1.652-1.917,7.232,7.232,0,0,0,.6-3.1,7.4,7.4,0,0,0-.665-3.278,4.7,4.7,0,0,0-1.824-2.049,5.277,5.277,0,0,0-2.743-.687,4.912,4.912,0,0,0-2.5.606,4.178,4.178,0,0,0-1.647,1.777A5.873,5.873,0,0,0,574.717,317.251Z" style="fill:#fff"/><path d="M587.378,312.132v-.569q1.854.063,2.695.063.886,0,2.605-.063v.569h-.66q-.851,0-1.022.326a12.173,12.173,0,0,0-.172,2.948v3.546a11.609,11.609,0,0,0,.212,2.7,2.218,2.218,0,0,0,1.1,1.284,4.626,4.626,0,0,0,2.369.525,5.407,5.407,0,0,0,2.577-.561,2.313,2.313,0,0,0,1.059-1.207,9.544,9.544,0,0,0,.335-3.107v-3.41a8.672,8.672,0,0,0-.213-2.708q-.213-.339-1.171-.34h-.471v-.569q1.876.063,2.384.063.825,0,2.048-.063v.569h-.618q-.718,0-.923.385a9.209,9.209,0,0,0-.2,2.7v3.392a13.68,13.68,0,0,1-.231,3.134,3.522,3.522,0,0,1-.842,1.461,4.183,4.183,0,0,1-1.627,1.03,6.814,6.814,0,0,1-2.392.38,8.2,8.2,0,0,1-2.487-.339,4.264,4.264,0,0,1-1.606-.836,2.867,2.867,0,0,1-.778-1.217,8.692,8.692,0,0,1-.239-2.446l.018-1.719V315.3a13.147,13.147,0,0,0-.149-2.858q-.15-.307-.954-.308Z" style="fill:#fff"/><path d="M608.568,317.9q.887,1.275,2.2,2.966l1.736,2.252a3.248,3.248,0,0,0,.614.66.675.675,0,0,0,.318.082h.234v.57q-.75-.065-1.311-.064a9.651,9.651,0,0,0-1.085.064l-3.2-4.324q-.9-1.192-1.918-2.333l.091-.308q.525.046.778.046a3.389,3.389,0,0,0,2.365-.778,2.675,2.675,0,0,0,.854-2.08,2.334,2.334,0,0,0-.723-1.822,3.011,3.011,0,0,0-2.089-.656,5.492,5.492,0,0,0-1.908.352q-.11,1.438-.109,3.076v4.368a19.043,19.043,0,0,0,.154,3.541q.153.348,1,.348h.7v.57q-1.5-.065-2.487-.064-.777,0-2.813.064v-.57h.679q.777,0,.922-.34a20.468,20.468,0,0,0,.145-3.567v-4.35a14.012,14.012,0,0,0-.168-3.139c-.111-.223-.475-.335-1.089-.335h-.489v-.569q1.683.063,2.569.063.6,0,1.718-.045,1.3-.045,1.872-.045a6.578,6.578,0,0,1,2.374.33,2.48,2.48,0,0,1,1.651,2.446,3.191,3.191,0,0,1-.918,2.252A4.908,4.908,0,0,1,608.568,317.9Z" style="fill:#fff"/><path d="M618.987,323.863h.57q.841,0,1.009-.407a21.6,21.6,0,0,0,.167-3.9v-3.066a25.321,25.321,0,0,0-.145-3.989q-.145-.371-.868-.371h-.733v-.569q1.5.063,2.972.063,1.224,0,2.22-.063v.569h-.7a1.339,1.339,0,0,0-.809.154,1.256,1.256,0,0,0-.191.778q-.047.969-.046,3.446v3.12a22.288,22.288,0,0,0,.155,3.875q.155.359.99.358h.6v.57q-1.114-.065-2.428-.064-1.531,0-2.764.064Z" style="fill:#fff"/><path d="M627.66,313.6v6.252q0,2.135.082,2.977a1.426,1.426,0,0,0,.214.782,1.79,1.79,0,0,0,.868.2l.582.046v.57q-.988-.065-1.786-.064-.552,0-2.537.064v-.57h.651a1.231,1.231,0,0,0,.769-.163,1,1,0,0,0,.226-.642q.1-.995.1-2.7v-4.5q0-1.265-.027-2.5a1.587,1.587,0,0,0-.14-.72,1.189,1.189,0,0,0-.357-.348,1.207,1.207,0,0,0-.66-.154h-.561v-.569q1.149.063,1.754.063.653,0,1.43-.063.894,1.1,1.686,2.129t1.642,2.085l3.093,3.8q1.673,2.044,2.415,2.84v-5.807a27.571,27.571,0,0,0-.131-3.983q-.132-.34-1.045-.43l-.679-.064v-.569q1.457.063,2.262.063.84,0,2.17-.063v.569h-.7q-.842,0-.968.561-.081.37-.081,3.961v4.079q0,1.647.144,3.935a9.98,9.98,0,0,1-1.428-.276,1.106,1.106,0,0,1-.38-.285q-1-1.113-2.108-2.47Z" style="fill:#fff"/><path d="M646.327,324.577q-.406-1.212-.832-2.27l-3.238-8.1a20.176,20.176,0,0,0-.814-1.917c-.079-.108-.337-.163-.778-.163h-.37v-.569q1.412.063,2.4.063,1.046,0,2.5-.063v.569h-.893a1.3,1.3,0,0,0-.594.087.3.3,0,0,0-.135.269.9.9,0,0,0,.045.264l1.17,3.128,2.462,6.274,2.391-5.982a18.009,18.009,0,0,0,1.2-3.5c0-.273-.165-.417-.5-.428l-.369-.027-.777-.081v-.569q1.2.063,1.976.063.81,0,2.037-.063v.569h-.362a.833.833,0,0,0-.628.2,6.684,6.684,0,0,0-.7,1.442l-3.047,7.444a34.218,34.218,0,0,0-1.221,3.355Z" style="fill:#fff"/><path d="M657.551,318.282v2.22l.009,1.277c0,.8.008,1.381.027,1.749q1.322.1,2.835.1a13.292,13.292,0,0,0,1.7-.09,4.28,4.28,0,0,0,.942-.235q.226-.8.461-1.99h.6q-.243,1.987-.244,2.649l.019.408q-1.041.09-2.044.091l-1.42-.027q-2.352-.065-3.455-.064-1.058,0-2.813.064v-.57h.28a1.953,1.953,0,0,0,.991-.154,1.082,1.082,0,0,0,.271-.724q.067-.569.067-2.514v-4.965q0-1.221-.058-2a4.187,4.187,0,0,0-.126-.927.526.526,0,0,0-.195-.23,2.448,2.448,0,0,0-.778-.145l-.7-.073v-.569h.977l.958.031q.805.033,1.221.032l3.473-.053,1.646-.01c.561-.006,1.127.015,1.7.063a10.05,10.05,0,0,0-.38,2.794H662.9a11.456,11.456,0,0,0-.1-1.654,7.555,7.555,0,0,0-2.622-.4q-1.239,0-2.6.108.009.849-.019,1.7l-.017,1.391V317.4q.9.065,1.582.064a9.684,9.684,0,0,0,2.437-.15q.286-.148.286-.927V315.8h.615q-.064,1.367-.064,2.18,0,.859.064,2.026h-.615v-.525c0-.579-.114-.933-.339-1.062a7.628,7.628,0,0,0-2.393-.195Q658.363,318.219,657.551,318.282Z" style="fill:#fff"/><path d="M673.442,312.168a10.392,10.392,0,0,0-.272,2.5h-.624v-.724a1.7,1.7,0,0,0-.19-.959,2.3,2.3,0,0,0-.991-.538,4.983,4.983,0,0,0-1.686-.284,3.314,3.314,0,0,0-2.275.731,2.4,2.4,0,0,0-.828,1.878,2.221,2.221,0,0,0,.34,1.242,1.915,1.915,0,0,0,.913.749,10.756,10.756,0,0,0,2.438.406,9.175,9.175,0,0,1,2.518.48,2.332,2.332,0,0,1,1.05.959,3,3,0,0,1,.393,1.565,4.008,4.008,0,0,1-1.519,3.131,5.985,5.985,0,0,1-4.052,1.312,8.872,8.872,0,0,1-1.75-.176,11,11,0,0,1-1.777-.52,18.841,18.841,0,0,0,.153-2.786h.616v.453a3.739,3.739,0,0,0,.09,1.085,1.187,1.187,0,0,0,.425.443,3.678,3.678,0,0,0,1.185.538,5.657,5.657,0,0,0,1.483.185,3.92,3.92,0,0,0,2.641-.8,2.584,2.584,0,0,0,.931-2.044,2.254,2.254,0,0,0-.316-1.226,1.913,1.913,0,0,0-.887-.746,7.741,7.741,0,0,0-2.107-.371,9.794,9.794,0,0,1-2.777-.488,2.474,2.474,0,0,1-1.148-1.027,3.362,3.362,0,0,1-.416-1.741,3.667,3.667,0,0,1,1.275-2.885,5.163,5.163,0,0,1,3.528-1.121,8.692,8.692,0,0,1,1.813.194A9.651,9.651,0,0,1,673.442,312.168Z" style="fill:#fff"/><path d="M681.11,312.386q-.1,1.356-.1,2.858V320.4a16.167,16.167,0,0,0,.144,3.17q.144.294,1.032.294h.677v.57q-1.6-.065-2.713-.064t-2.7.064v-.57h.76a1.284,1.284,0,0,0,.777-.158.939.939,0,0,0,.227-.62q.088-1.059.09-2.731v-5.165q0-1.529-.063-2.8h-.921a13.317,13.317,0,0,0-2.454.1q-.225.1-.3.809l-.126,1.212h-.57l.019-1.076q0-.651-.109-1.872,4.884.063,5.743.063l5-.063q-.171,1.529-.2,2.948h-.569l-.091-1.185a1.712,1.712,0,0,0-.153-.728.685.685,0,0,0-.444-.14q-.995-.072-2.26-.072Z" style="fill:#fff"/><path d="M699.525,313.516l-2.689,5.594q-1.512,3.15-2.479,5.5h-.363q-.333-.805-1.919-4.137l-3.24-6.709v6.993a9.734,9.734,0,0,0,.195,2.773c.13.22.536.33,1.214.33h.336v.57q-1.26-.065-2.048-.064-.572,0-2.275.064v-.57h.588a1.286,1.286,0,0,0,.8-.172.925.925,0,0,0,.244-.624q.117-1.266.118-2.732v-5.119a22.586,22.586,0,0,0-.082-2.45.633.633,0,0,0-.267-.471,1.755,1.755,0,0,0-.918-.163h-.479v-.569q1.575.063,1.981.063.516,0,1.466-.063,1.1,2.434,2.526,5.366l2.38,4.9,2.2-4.534q1.158-2.38,2.642-5.728,1.131.063,1.592.063c.357,0,1-.021,1.927-.063v.569h-.591c-.533,0-.859.093-.978.276a5.787,5.787,0,0,0-.176,1.986v6.611a8.7,8.7,0,0,0,.185,2.532q.188.326,1.041.326h.519v.57q-1.257-.065-2.406-.064-1.266,0-2.65.064v-.57h.6q.714,0,.864-.312a11.8,11.8,0,0,0,.149-2.682Z" style="fill:#fff"/><path d="M707.457,318.282v2.22l.009,1.277q0,1.2.027,1.749,1.321.1,2.835.1a13.292,13.292,0,0,0,1.7-.09,4.266,4.266,0,0,0,.942-.235q.227-.8.462-1.99h.6q-.243,1.987-.244,2.649l.019.408q-1.041.09-2.044.091l-1.42-.027q-2.351-.065-3.455-.064-1.057,0-2.813.064v-.57h.281a1.951,1.951,0,0,0,.99-.154,1.077,1.077,0,0,0,.271-.724q.067-.569.068-2.514v-4.965q0-1.221-.059-2a4.187,4.187,0,0,0-.126-.927.526.526,0,0,0-.2-.23,2.448,2.448,0,0,0-.778-.145l-.7-.073v-.569h.977l.959.031q.8.033,1.22.032l3.473-.053,1.647-.01q.84-.009,1.7.063a10.05,10.05,0,0,0-.38,2.794h-.615a11.438,11.438,0,0,0-.1-1.654,7.555,7.555,0,0,0-2.622-.4q-1.239,0-2.6.108.009.849-.018,1.7l-.018,1.391V317.4q.9.065,1.582.064a9.7,9.7,0,0,0,2.438-.15q.285-.148.285-.927V315.8h.615q-.064,1.367-.063,2.18,0,.859.063,2.026h-.615v-.525q0-.869-.339-1.062a7.624,7.624,0,0,0-2.393-.195Q708.271,318.219,707.457,318.282Z" style="fill:#fff"/><path d="M717.65,313.6v6.252q0,2.135.082,2.977a1.429,1.429,0,0,0,.213.782,1.792,1.792,0,0,0,.869.2l.582.046v.57c-.66-.043-1.254-.064-1.787-.064q-.552,0-2.537.064v-.57h.652a1.23,1.23,0,0,0,.768-.163,1,1,0,0,0,.226-.642q.1-.995.1-2.7v-4.5q0-1.265-.027-2.5a1.589,1.589,0,0,0-.139-.72,1.1,1.1,0,0,0-1.018-.5h-.561v-.569q1.149.063,1.754.063.652,0,1.43-.063.9,1.1,1.686,2.129t1.642,2.085l3.093,3.8q1.673,2.044,2.415,2.84v-5.807a27.571,27.571,0,0,0-.131-3.983q-.132-.34-1.045-.43l-.679-.064v-.569q1.457.063,2.262.063.841,0,2.17-.063v.569h-.7q-.841,0-.968.561-.081.37-.081,3.961v4.079q0,1.647.144,3.935a10.015,10.015,0,0,1-1.428-.276,1.106,1.106,0,0,1-.38-.285q-1-1.113-2.108-2.47Z" style="fill:#fff"/><path d="M736.688,312.386q-.1,1.356-.1,2.858V320.4a16.027,16.027,0,0,0,.145,3.17q.142.294,1.031.294h.677v.57q-1.6-.065-2.712-.064t-2.7.064v-.57h.76a1.282,1.282,0,0,0,.777-.158.939.939,0,0,0,.227-.62q.09-1.059.09-2.731v-5.165q0-1.529-.063-2.8H733.9a13.317,13.317,0,0,0-2.454.1q-.225.1-.3.809l-.126,1.212h-.57l.019-1.076q0-.651-.109-1.872,4.884.063,5.743.063l5-.063q-.171,1.529-.2,2.948h-.569l-.091-1.185a1.712,1.712,0,0,0-.153-.728.685.685,0,0,0-.444-.14q-.995-.072-2.26-.072Z" style="fill:#fff"/><path d="M289.436,216.188c14.282-3.59,26.5,3.836,38.31,11.018,10.689,6.5,20.78,12.639,31.611,10.212,4.833-1.084,13.592-7.887,13.68-7.955l1.459,1.492c-9.364,11.449-17.11,13.327-20.833,14.228a29.815,29.815,0,0,1-7.058.859c-12.527,0-22.655-8.169-31.758-15.51-8.468-6.829-16.467-13.273-25.034-12.283" style="fill:#fcc107"/><path d="M298.788,217.427c5.889,2.2,11.525,6.751,17.377,11.47,10.881,8.775,22.137,17.852,37,14.245a28.9,28.9,0,0,0,12.461-6.18,23.252,23.252,0,0,1-5.814,2.505c-11.648,2.615-22.1-3.738-33.162-10.466C317.787,223.609,308.686,218.074,298.788,217.427Z" style="fill:#fcc107"/><path d="M338.646,215.234v19.837c0,10.168-.167,20.336-.167,30.505,0,5,0,10.168.167,15.168.166,5.5,3.334,10,9,10.5h18.336c6-.5,10.168-9.168,13-27.5h1.334l-1.5,27.5v1.334H318.142v-1.334h.334c7.835,0,9.668-6.667,9.668-13.5-.166,0-.166-9.336-.166-22V214.234c.166-8.335.166-15.5.166-20v-4a13.484,13.484,0,0,0-2-6.168,8.718,8.718,0,0,0-6.5-3.834h-1.5v-1.334l52.767,0c16.922-.015,4.026,1.06,8.537.369.5,10.5.54,17.8,1.206,28.3h-1.333c-1-6.335-3.834-26.838-13.835-27.338H338.646v33.34" style="fill:#fff"/><path d="M289.691,217.206c26.646-6.7,46.473,26.493,69.9,21.237,5.119-1.149,14.1-8.152,14.1-8.152-8.747,10.693-15.862,12.8-20.267,13.872-27.7,6.716-43.488-29.312-63.725-26.957" style="fill:#fff"/><rect x="170.758" y="184.694" width="4.195" height="19.559" rx="1.132" style="fill:#fcc107"/><rect x="170.758" y="184.694" width="4.195" height="19.559" rx="1.132" style="fill:#fcc107"/><path d="M201.778,243.554V256.14c0,6.451-.106,12.9-.106,19.354,0,3.173,0,6.451.106,9.624.106,3.49,2.115,6.346,5.711,6.663h11.633c3.808-.317,6.452-5.817,8.25-17.451h.846l-.952,17.451v.846h-38.5v-.846h.212c4.97,0,6.134-4.23,6.134-8.567-.106,0-.106-5.922-.106-13.96V242.92c.106-5.288.106-9.836.106-12.691V227.69a8.563,8.563,0,0,0-1.269-3.913,5.531,5.531,0,0,0-4.125-2.432h-.952V220.5h15.97c10.047-.1,20.835-.317,22.633-1.8.317,6.662.634,13.325,1.058,19.988h-.847c-.634-4.018-2.432-17.027-8.778-17.344H201.778V242.5" style="fill:#0a5a5c"/><path d="M188.618,255.664" style="fill:none;stroke:#1d1d1b;stroke-miterlimit:10;stroke-width:0.25px"/><path d="M188.73,255.639" style="fill:none;stroke:#1d1d1b;stroke-miterlimit:10;stroke-width:0.25px"/><path d="M180.541,269.625" style="fill:#1d1d1b"/><path d="M168.526,263.6" style="fill:#1d1d1b"/><path d="M188.618,255.664" style="fill:none;stroke:#1d1d1b;stroke-miterlimit:10;stroke-width:0.25px"/><path d="M188.73,255.639" style="fill:none;stroke:#1d1d1b;stroke-miterlimit:10;stroke-width:0.25px"/><rect x="223.036" y="238.326" width="65.562" height="4.699" rx="1.268" transform="translate(496.493 -15.142) rotate(90)" style="fill:#fcc107"/><path d="M161.5,212.658a2.044,2.044,0,0,1-1.728-.943l-.733-1.138a2.054,2.054,0,0,1,.616-2.839L207.3,177.092a2.052,2.052,0,0,1,2.838.616l.732,1.138a2.054,2.054,0,0,1-.616,2.839l-47.64,30.646a2.045,2.045,0,0,1-1.11.327Z" style="fill:#fcc107"/><path d="M201.888,263.1c-9.04,0-16.181-5.767-22.6-10.952-6.177-4.989-12.012-9.7-18.661-8.913l-.059-.5c6.86-.814,12.775,3.965,19.037,9.022,7.918,6.393,16.1,13,27.522,10.188,2.491-.614,7.484-1.845,13.632-8.789-2.278,1.656-6.225,4.309-8.886,4.916-8.54,1.949-16.012-2.866-23.923-7.964-8.358-5.384-17-10.952-27.29-8.321l-.125-.489c10.5-2.684,19.239,2.943,27.688,8.386,7.819,5.039,15.2,9.8,23.538,7.9,3.742-.854,10.41-6.118,10.477-6.171l.353.356c-6.911,8.59-12.606,9.994-15.343,10.669A22.313,22.313,0,0,1,201.888,263.1Z" style="fill:#fcc107"/><path d="M188.517,292.879v-1.35h.464c3.958,0,5.807-3.017,5.807-8.609h0c.015-.456,0-1.1-.018-3.67-.013-2.486-.013-5.976-.013-10V242.92c.106-5.291.106-9.923.106-12.691V227.69a8.255,8.255,0,0,0-1.23-3.778,5.25,5.25,0,0,0-3.94-2.317l-1.176,0v-1.351h16.222c7.712-.081,20.623-.217,22.473-1.74l.388-.319.028.581c.31,6.525.632,13.271,1.053,19.905l.017.268h-1.33l-.1-.67c-.7-4.479-2.553-16.379-8.471-16.674H202.03V256.14c0,3.227-.027,6.507-.053,9.679s-.053,6.45-.053,9.675c0,3.17,0,6.447.106,9.616.109,3.616,2.261,6.136,5.481,6.42h11.611c3.682-.308,6.231-5.785,8-17.237l.033-.213h1.328l-.966,17.716v1.084Z" style="fill:#fcc107"/><path d="M201.778,243.554V256.14c0,6.451-.106,12.9-.106,19.354,0,3.173,0,6.451.106,9.624.106,3.489,2.114,6.344,5.708,6.663h11.636c3.8-.317,6.445-5.8,8.243-17.4a.056.056,0,0,1,.053-.047h.742a.056.056,0,0,1,.055.058l-.949,17.392v.793a.054.054,0,0,1-.054.054H188.824a.055.055,0,0,1-.055-.054v-.792h.212c4.97,0,6.134-4.23,6.134-8.567,0,.3-.106-5.922-.106-13.96V242.92c.106-5.288.106-9.836.106-12.691v-2.541a8.571,8.571,0,0,0-1.269-3.911,5.534,5.534,0,0,0-4.121-2.432h-.9a.055.055,0,0,1-.055-.055v-.737a.055.055,0,0,1,.055-.055h15.915c9.91-.1,20.539-.311,22.554-1.737a.052.052,0,0,1,.084.041c.314,6.61.63,13.22,1.049,19.83a.054.054,0,0,1-.054.057h-.742a.052.052,0,0,1-.054-.044c-.64-4.069-2.448-16.984-8.771-17.3H201.832a.054.054,0,0,0-.054.054v22.155Z" style="fill:#fff"/><path d="M255.38,212.658a2.044,2.044,0,0,1-1.109-.327l-47.64-30.646a2.054,2.054,0,0,1-.616-2.839l.732-1.138a2.052,2.052,0,0,1,2.838-.616l47.641,30.646a2.054,2.054,0,0,1,.616,2.839l-.733,1.138A2.046,2.046,0,0,1,255.38,212.658Z" style="fill:#fcc107"/><rect x="201.77" y="192.233" width="60.25" height="4.957" rx="1.338" transform="translate(142.21 -94.502) rotate(32.753)" style="fill:#fff"/><path d="M160.476,243.234a1.778,1.778,0,0,1-1.776-1.776V209.385a1.779,1.779,0,0,1,1.776-1.777h1.145a1.779,1.779,0,0,1,1.777,1.777v32.073a1.639,1.639,0,0,1-1.694,1.694l-1.219.082Z" style="fill:#fcc107"/><path d="M161.622,207.86h-1.146a1.524,1.524,0,0,0-1.524,1.525v32.073a1.524,1.524,0,0,0,1.524,1.524l1.228-.082a1.387,1.387,0,0,0,1.442-1.442V209.385A1.524,1.524,0,0,0,161.622,207.86Z" style="fill:#fff"/><path d="M180.541,269.625" style="fill:#1d1d1b"/><path d="M168.526,263.6" style="fill:#1d1d1b"/><rect x="154.832" y="192.233" width="60.25" height="4.957" rx="1.338" transform="translate(445.85 258.403) rotate(147.247)" style="fill:#fff"/><path d="M160.6,241.54c19.993-5.113,33.645,20.293,51.219,16.284,3.841-.877,10.577-6.219,10.577-6.219-6.563,8.157-11.9,9.767-15.207,10.582-20.783,5.124-31.4-21-46.589-19.205" style="fill:#fff"/><rect x="253.72" y="208.146" width="4.195" height="65.058" rx="1.132" style="fill:#fff"/><circle cx="209.027" cy="235.739" r="77.374" style="fill:none;stroke:#fff;stroke-miterlimit:10;stroke-width:0.5px"/></svg>