<svg id="Livello_1" data-name="Livello 1" xmlns="http://www.w3.org/2000/svg" viewBox="0 0 787.307 166.802"><path d="M561.361,304.11c-34.788,0-59.085-25.051-59.085-60.919v-.5c.176-36.166,24.678-61.419,59.586-61.419h1c35.957.639,58.282,23.575,59.749,61.357l0,2.4c0,28.242-20.934,58.547-59.729,59.084h-1.523Zm-3.5-117.854c-12.443,0-22.3,4.348-29.283,12.923-7.062,8.828-10.647,21.117-10.647,36.511,0,11.921,2.032,22.763,6.042,32.224,4.032,9.677,9.592,17.1,17,22.695a38.19,38.19,0,0,0,24.389,8.35,37.761,37.761,0,0,0,20.986-6.085c6.167-4.112,11-10.008,14.76-18.012,3.658-8.149,5.518-17.747,5.518-28.5A76.492,76.492,0,0,0,600.43,215c-4.063-9.1-9.769-16.228-16.958-21.181A44.227,44.227,0,0,0,557.86,186.256Z" transform="translate(-106.132 -166.242)" style="fill:#fcc107"/><path d="M561.361,302.534c-33.172,0-57.509-23.836-57.509-59.343v-.5c.167-34.506,23.337-59.843,58.01-59.843h1c37.506.667,56.842,25.5,58.175,59.843v2.334c0,29.338-22,57.009-58.175,57.509ZM516.354,235.69c0,12,2,23,6.168,32.839,4.167,10,10,17.67,17.5,23.337A41.107,41.107,0,0,0,587.2,294.2c6.5-4.334,11.5-10.5,15.335-18.67,3.667-8.168,5.668-17.836,5.668-29.171,0-12-2.167-22.671-6.335-32.006s-10-16.669-17.5-21.837-16.335-7.835-26.5-7.835q-19.5,0-30.5,13.5Q516.355,211.936,516.354,235.69Z" transform="translate(-106.132 -166.242)" style="fill:#0a5a5c"/><path d="M683.489,301.36c-13.809,0-21.7-10.76-27.04-20.133-2.591-4.766-5.348-9.535-8.015-14.147-1.669-2.886-3.341-5.778-4.989-8.694a8.541,8.541,0,0,0-7.632-4.2,11.808,11.808,0,0,0-5.295,1.334l-2.529,1.264.256-2.815c.348-3.833,2.29-6.738,5.938-8.883a48.5,48.5,0,0,1,8.16-3.475,37.923,37.923,0,0,0,9.082-4.134,26.658,26.658,0,0,0-14.443-48.8h-9.261v98.608c0,4.526,2.451,9.093,7.926,9.093h1.91v4.485h-33.49v-4.485h1.908c7.258,0,8.031-7.25,8.1-9.472V198.1c0-2.251-.608-9.594-8.428-9.594h-1.575v-4.484h38.416a40.414,40.414,0,0,1,11.268,1.561c14.352,4.361,23.978,16.288,23.978,29.686a29.1,29.1,0,0,1-9.147,20.968c-6.662,6.662-12.914,7.744-20.153,9-2.053.355-4.176.723-6.428,1.24a16.873,16.873,0,0,0-6.313,2.556,26.018,26.018,0,0,1,3.619-.656l1.841-.01c6.242,0,12.357,2.659,15.576,6.773a103.84,103.84,0,0,1,8.73,14.539c1.85,3.5,3.764,7.108,5.863,10.426l.44.741c3.01,5.095,9.277,15.695,15.566,15.695a1.742,1.742,0,0,0,.357-.052,4.753,4.753,0,0,1,.976-.114h1.576V300.6l-1.294.235A29.863,29.863,0,0,1,683.489,301.36Z" transform="translate(-106.132 -166.242)" style="fill:#fcc107"/><path d="M626.146,287.282c0,5.668,3.333,10.668,9.5,10.668h.335v1.334H605.643V297.95h.332c6.5,0,9.5-5.168,9.67-11V198.1c0-6.169-3.167-11.169-10-11.169V185.6h36.84a38.676,38.676,0,0,1,10.835,1.5c13.168,4,22.836,15,22.836,28.172a27.629,27.629,0,0,1-8.668,19.836c-8.168,8.169-15.67,7.5-25.837,9.836-4.667,1-9,3.167-10.835,7.834a20.475,20.475,0,0,1,8.668-2.834h1.666c5.669,0,11.336,2.335,14.337,6.168,5.5,7.168,9.335,16.67,14.5,24.837,3.167,5.335,9.836,17.17,17.338,17.17.5,0,.832-.167,1.333-.167v1.334a28.53,28.53,0,0,1-5.168.5c-12,0-19.5-8.5-25.671-19.337-4.167-7.667-8.668-15.169-13-22.836a10.152,10.152,0,0,0-9-5,13.318,13.318,0,0,0-6,1.5,9.521,9.521,0,0,1,5.168-7.668c5.5-3.167,12-4,17.335-7.668A28.233,28.233,0,0,0,636.982,187.1H626.146Z" transform="translate(-106.132 -166.242)" style="fill:#0a5a5c"/><path d="M677.358,301.026v-4.484h2.258l.13-.129.6-.036a6.643,6.643,0,0,0,5.3-2.99,12.718,12.718,0,0,0,1.72-6.438V198.434a5.344,5.344,0,0,0-.12-1.449l-.032-.125-.01-.13a10.386,10.386,0,0,0-1.573-4.757c-1.484-2.225-3.375-3.132-6.526-3.132h-1.575l-.166-1.575v-2.91h33.49v4.485h-1.576c-6.091,0-8.26,4.783-8.26,9.26v89.348A11.274,11.274,0,0,0,702.6,293.1a6.931,6.931,0,0,0,6.085,3.441l2.164,0v4.484Z" transform="translate(-106.132 -166.242)" style="fill:#fcc107"/><path d="M709.273,187.266c-6.335,0-9.837,4.667-9.837,10.835v89.348a12.767,12.767,0,0,0,1.834,6.5,8.48,8.48,0,0,0,7.335,4.168h.668v1.333h-30.34v-1.333h1a.614.614,0,0,0,.5-.168,8.2,8.2,0,0,0,6.5-3.666,14.281,14.281,0,0,0,2-7.335V198.434a6.8,6.8,0,0,0-.168-1.834,11.982,11.982,0,0,0-1.832-5.5c-2-3-4.669-3.834-7.836-3.834h-.167v-1.334h30.34Z" transform="translate(-106.132 -166.242)" style="fill:#0a5a5c"/><path d="M754.531,304.11c-34.788,0-59.084-25.051-59.084-60.919v-.5c.174-36.166,24.676-61.419,59.583-61.419h1c35.958.639,58.284,23.575,59.751,61.357l0,2.4c0,28.242-20.935,58.547-59.731,59.084h-1.521Zm-3.5-117.854c-12.445,0-22.3,4.348-29.284,12.923C714.685,208.007,711.1,220.3,711.1,235.69c0,11.92,2.033,22.761,6.044,32.224,4.032,9.678,9.593,17.1,17,22.695a38.186,38.186,0,0,0,24.388,8.35,37.754,37.754,0,0,0,20.986-6.085c6.166-4.112,11-10.009,14.762-18.012,3.657-8.15,5.517-17.748,5.517-28.5A76.524,76.524,0,0,0,793.6,215c-4.065-9.1-9.77-16.229-16.958-21.181A44.223,44.223,0,0,0,751.031,186.256Z" transform="translate(-106.132 -166.242)" style="fill:#fcc107"/><path d="M879.53,300.943,811.093,200.781v86.584a10.709,10.709,0,0,0,1.7,5.575,6.775,6.775,0,0,0,5.977,3.521l2.326,0v4.485H796.606v-4.485h1.575c3.182,0,5.306-.989,6.68-3.114a12.058,12.058,0,0,0,1.746-6.312V198.517a12.733,12.733,0,0,0-1.765-6.509c-1.533-2.167-3.479-3.084-6.661-3.084h-1.575v-4.485h20.076l62.271,91V198.351a12,12,0,0,0-1.887-6.271c-1.42-2.2-3.428-3.156-6.539-3.156h-1.575v-4.485h24.487v4.485h-1.575c-3.232,0-5.4,1.085-6.825,3.414a10.8,10.8,0,0,0-1.6,5.679V300.943Z" transform="translate(-106.132 -166.242)" style="fill:#fcc107"/><path d="M819.518,298.033v1.334H798.181v-1.334c3.334,0,6.168-1,8-3.833a13.694,13.694,0,0,0,2-7.168V198.517a14.279,14.279,0,0,0-2-7.334c-2-2.834-4.5-3.834-8-3.834v-1.334h17.671l64.676,94.516v-82.18a13.865,13.865,0,0,0-2.167-7.168c-1.833-2.834-4.5-3.834-7.834-3.834v-1.334h21.337v1.334c-3.5,0-6.335,1.167-8.169,4.167a12.314,12.314,0,0,0-1.832,6.5v101.35h-1.5L809.517,195.684v91.681a12.436,12.436,0,0,0,2,6.5,8.194,8.194,0,0,0,7.166,4.166Z" transform="translate(-106.132 -166.242)" style="fill:#0a5a5c"/><path d="M754.531,302.534c-33.172,0-57.509-23.836-57.509-59.343v-.5c.166-34.506,23.337-59.843,58.009-59.843h1c37.508.667,56.844,25.5,58.177,59.843v2.334c0,29.338-22,57.009-58.177,57.509ZM709.524,235.69c0,12,2,23,6.168,32.839,4.168,10,10,17.67,17.5,23.337a41.105,41.105,0,0,0,47.174,2.334c6.5-4.334,11.5-10.5,15.337-18.67,3.666-8.168,5.667-17.836,5.667-29.171,0-12-2.167-22.671-6.335-32.006s-10-16.669-17.5-21.837-16.337-7.835-26.5-7.835q-19.5,0-30.5,13.5Q709.524,211.936,709.524,235.69Z" transform="translate(-106.132 -166.242)" style="fill:#0a5a5c"/><path d="M315.2,226.254v17.193c0,5.088-.043,10.177-.084,15.266s-.083,10.159-.083,15.239c0,4.986,0,10.142.166,15.116.122,4.035,2.173,8.51,7.565,8.986l18.2-.007c4.932-.416,8.826-9.222,11.445-26.169l.207-1.335h4.347l-1.591,29.166,0,2.823H291.545v-4.485h1.909c3.474,0,8.093-1.236,8.093-11.926h.007c-.125-1.112-.135-3.008-.153-6.243-.02-3.919-.02-9.423-.02-15.761V222.61c.166-8.35.166-15.645.166-20v-4a11.757,11.757,0,0,0-1.755-5.322,7.114,7.114,0,0,0-5.345-3.114l-2.9.01V185.7h52c10.4-.109,14.036,2.783,16.631.646l3.783-.646-5.832,1.576c.491,10.32-1.592,18.082-.926,28.572l.106,1.675h-4.357l-.323-2.052c-.959-6.151-3.875-24.87-12.246-25.289l-25.183,0v30.443" transform="translate(-106.132 -166.242)" style="fill:#fcc107"/><path d="M482.519,304.11c-34.788,0-59.085-25.051-59.085-60.919v-.5c.176-36.166,24.678-61.419,59.586-61.419h1c35.957.639,58.282,23.575,59.75,61.357l0,2.4c0,28.242-20.935,58.547-59.73,59.084h-1.523Zm-3.5-117.854c-12.443,0-22.3,4.348-29.283,12.923-7.062,8.828-10.647,21.117-10.647,36.511,0,11.921,2.032,22.763,6.042,32.224,4.032,9.677,9.592,17.1,17,22.695a38.19,38.19,0,0,0,24.389,8.35,37.761,37.761,0,0,0,20.986-6.085c6.167-4.112,11-10.008,14.759-18.012,3.659-8.149,5.519-17.747,5.519-28.5a76.492,76.492,0,0,0-6.2-31.363c-4.063-9.1-9.769-16.228-16.958-21.181A44.227,44.227,0,0,0,479.018,186.256Z" transform="translate(-106.132 -166.242)" style="fill:#fcc107"/><path d="M482.519,302.534c-33.172,0-57.509-23.836-57.509-59.343v-.5c.167-34.506,23.337-59.843,58.01-59.843h1c37.506.667,56.842,25.5,58.176,59.843v2.334c0,29.338-22,57.009-58.176,57.509ZM437.512,235.69c0,12,2,23,6.167,32.839,4.168,10,10,17.67,17.5,23.337a41.105,41.105,0,0,0,47.174,2.334c6.5-4.334,11.5-10.5,15.336-18.67,3.667-8.168,5.668-17.836,5.668-29.171,0-12-2.167-22.671-6.335-32.006s-10-16.669-17.5-21.837-16.335-7.835-26.505-7.835q-19.5,0-30.5,13.5Q437.513,211.936,437.512,235.69Z" transform="translate(-106.132 -166.242)" style="fill:#0a5a5c"/><path d="M382.136,302.534v-4.485h1.575c5.593,0,5.593-1.413,5.593-2.258a3.416,3.416,0,0,0-.086-1L357.212,198.1c-2-4.924-6.627-7.921-12.341-7.921H343.3V185.7h36.99v4.558l-1.481.09c-6.854.416-6.854,3.687-6.854,4.762a13.721,13.721,0,0,0,.767,3.881l6.988,21.129q4.368,12.982,8.659,25.98,4.317,13.009,8.674,26.02c1.7,5.22,3.389,10.43,5.081,15.558l20.785-56.77.485-1.457,3.517-9.547,7.5-20.99a14.5,14.5,0,0,0,.741-3.8c0-2.154-.794-4.4-6.687-4.762l-1.481-.09V185.7h26.989v4.485h-1.576a13.106,13.106,0,0,0-12.381,8.032l-35.03,96.336a10.339,10.339,0,0,0,7.054,3.673l1.426.136v4.175Z" transform="translate(-106.132 -166.242)" style="fill:#fcc107"/><path d="M383.711,299.625c5.168,0,7.168-1.167,7.168-3.834a4.606,4.606,0,0,0-.167-1.5l-32-96.683c-2.5-6.168-8.168-9-13.836-9v-1.334h33.84v1.5c-5.5.334-8.336,2.5-8.336,6.334a15.165,15.165,0,0,0,.834,4.334l7,21.171c5.835,17.336,11.5,34.672,17.336,52.008,2.167,6.668,4.334,13.336,6.5,19.837l22.337-61.01.5-1.5,3.5-9.5,7.5-21a16.236,16.236,0,0,0,.833-4.334c0-4-2.667-6-8.167-6.334v-1.5h23.837v1.334a14.7,14.7,0,0,0-13.835,9l-35.339,97.183a11.69,11.69,0,0,0,8.667,5v1.168H383.711Z" transform="translate(-106.132 -166.242)" style="fill:#0a5a5c"/><path d="M459.308,326.659v2.219l.01,1.278q0,1.2.026,1.748,1.323.1,2.836.1a13.27,13.27,0,0,0,1.7-.091,4.272,4.272,0,0,0,.941-.235q.227-.795.462-1.99h.6q-.244,1.987-.244,2.649l.018.408q-1.039.091-2.044.091l-1.419-.027q-2.352-.065-3.456-.064-1.057,0-2.812.064v-.57h.28a1.946,1.946,0,0,0,.99-.154,1.071,1.071,0,0,0,.272-.723q.067-.57.068-2.514v-4.966q0-1.221-.059-2a4.1,4.1,0,0,0-.127-.928.524.524,0,0,0-.194-.23,2.486,2.486,0,0,0-.778-.145l-.7-.072v-.57h.976l.959.032q.805.032,1.221.031l3.473-.052,1.646-.011q.841-.009,1.7.063a10.062,10.062,0,0,0-.379,2.8h-.616a11.471,11.471,0,0,0-.1-1.655,7.561,7.561,0,0,0-2.623-.4q-1.239,0-2.6.108.009.849-.018,1.7l-.018,1.39v1.832q.9.065,1.583.064a9.69,9.69,0,0,0,2.437-.15q.285-.148.285-.926v-.588h.615q-.063,1.365-.063,2.179,0,.859.063,2.026h-.615v-.525q0-.867-.339-1.062a7.66,7.66,0,0,0-2.392-.194Q460.123,326.6,459.308,326.659Z" transform="translate(-106.132 -166.242)" style="fill:#0a5a5c"/><path d="M472.775,332.954q-.406-1.214-.832-2.271l-3.238-8.094a20.52,20.52,0,0,0-.814-1.917c-.078-.109-.338-.163-.778-.163h-.371v-.57q1.414.063,2.4.063,1.044,0,2.5-.063v.57h-.893a1.284,1.284,0,0,0-.594.087.293.293,0,0,0-.135.268.933.933,0,0,0,.044.265l1.171,3.127,2.461,6.275,2.392-5.983a18.011,18.011,0,0,0,1.2-3.5c0-.274-.166-.417-.5-.429l-.37-.027-.776-.08v-.57q1.2.063,1.975.063.812,0,2.038-.063v.57H479.3a.84.84,0,0,0-.628.2,6.747,6.747,0,0,0-.7,1.443l-3.048,7.443a34.755,34.755,0,0,0-1.221,3.356Z" transform="translate(-106.132 -166.242)" style="fill:#0a5a5c"/><path d="M480.308,326.37a6.3,6.3,0,0,1,1.919-4.794,7.129,7.129,0,0,1,5.114-1.818,6.846,6.846,0,0,1,4.909,1.687,5.888,5.888,0,0,1,1.778,4.481,6.774,6.774,0,0,1-2.063,5.038,7.127,7.127,0,0,1-5.2,2.026,6.823,6.823,0,0,1-3.384-.8,5.675,5.675,0,0,1-2.245-2.324A7.267,7.267,0,0,1,480.308,326.37Zm1.836-.742a8.4,8.4,0,0,0,.7,3.558,5.193,5.193,0,0,0,1.879,2.271,4.873,4.873,0,0,0,2.689.755,4.609,4.609,0,0,0,2.453-.642,4.349,4.349,0,0,0,1.652-1.918,7.217,7.217,0,0,0,.6-3.1,7.41,7.41,0,0,0-.665-3.278,4.716,4.716,0,0,0-1.824-2.048,5.274,5.274,0,0,0-2.744-.688,4.917,4.917,0,0,0-2.5.606,4.183,4.183,0,0,0-1.647,1.777A5.875,5.875,0,0,0,482.144,325.628Z" transform="translate(-106.132 -166.242)" style="fill:#0a5a5c"/><path d="M498.468,331.922q.887.046,1.728.046,1.7,0,2.659-.091a9.236,9.236,0,0,0,1.384-.262l.542-2.125h.588q-.226,1.709-.353,3.192a14.156,14.156,0,0,1-2.224.136l-4.306-.073q-.867,0-2.7.1v-.479c.482-.211.768-.437.855-.679a15.579,15.579,0,0,0,.131-2.867v-4.974a16.549,16.549,0,0,0-.131-3.025c-.087-.208-.334-.312-.737-.312h-.986v-.57q2.153.063,2.858.063.94,0,2.55-.063v.57H499.2c-.319,0-.522.092-.606.276a10.153,10.153,0,0,0-.127,2.293v5.76l.028,2.551Z" transform="translate(-106.132 -166.242)" style="fill:#0a5a5c"/><path d="M512.026,332.954q-.406-1.214-.832-2.271l-3.238-8.094a20.207,20.207,0,0,0-.814-1.917q-.118-.164-.778-.163h-.37v-.57q1.411.063,2.4.063,1.044,0,2.5-.063v.57h-.894a1.282,1.282,0,0,0-.593.087.3.3,0,0,0-.135.268.9.9,0,0,0,.045.265l1.17,3.127,2.462,6.275,2.39-5.983a17.975,17.975,0,0,0,1.2-3.5c0-.274-.165-.417-.5-.429l-.369-.027-.776-.08v-.57q1.2.063,1.976.063.81,0,2.037-.063v.57h-.363a.839.839,0,0,0-.628.2,6.747,6.747,0,0,0-.7,1.443l-3.048,7.443a34.43,34.43,0,0,0-1.22,3.356Z" transform="translate(-106.132 -166.242)" style="fill:#0a5a5c"/><path d="M523.25,326.659v2.219l.008,1.278q0,1.2.028,1.748,1.322.1,2.835.1a13.27,13.27,0,0,0,1.7-.091,4.258,4.258,0,0,0,.941-.235q.228-.795.462-1.99h.6q-.243,1.987-.244,2.649l.018.408q-1.039.091-2.044.091l-1.42-.027q-2.351-.065-3.455-.064-1.057,0-2.812.064v-.57h.28a1.946,1.946,0,0,0,.99-.154,1.071,1.071,0,0,0,.272-.723q.067-.57.067-2.514v-4.966q0-1.221-.058-2a4.189,4.189,0,0,0-.126-.928.528.528,0,0,0-.2-.23,2.469,2.469,0,0,0-.777-.145l-.7-.072v-.57h.976l.959.032c.536.021.944.031,1.221.031l3.473-.052,1.646-.011q.841-.009,1.7.063a10.133,10.133,0,0,0-.38,2.8H528.6a11.471,11.471,0,0,0-.1-1.655,7.555,7.555,0,0,0-2.622-.4q-1.24,0-2.6.108.009.849-.019,1.7l-.017,1.39v1.832q.894.065,1.582.064a9.684,9.684,0,0,0,2.437-.15c.191-.1.285-.408.285-.926v-.588h.616q-.065,1.365-.064,2.179,0,.859.064,2.026h-.616v-.525q0-.867-.338-1.062a7.677,7.677,0,0,0-2.393-.194Q524.063,326.6,523.25,326.659Z" transform="translate(-106.132 -166.242)" style="fill:#0a5a5c"/><path d="M541.808,326.442q.552-.832,1.745-2.9l2.072-3.6h1.4v.226a31.081,31.081,0,0,0-2.7,3.74,23.4,23.4,0,0,0-1.918,3.351,6.154,6.154,0,0,0-.108,1.525q0,1.635.082,2.591c.036.343.1.55.184.619a2.569,2.569,0,0,0,.928.176l.686.072v.57q-1.575-.065-2.463-.064l-2.917.064v-.57h.772q.773,0,.927-.316a12.674,12.674,0,0,0,.155-2.852q0-.741-.046-1.617-1.166-2.139-2.152-3.7a15.9,15.9,0,0,0-1.664-2.285,2.258,2.258,0,0,0-.647-.524,2.419,2.419,0,0,0-.926-.127v-.57q.37-.072,1.456-.289l.713-.145a1.985,1.985,0,0,1,.67.39,11,11,0,0,1,1.384,1.944Q540.153,323.313,541.808,326.442Z" transform="translate(-106.132 -166.242)" style="fill:#0a5a5c"/><path d="M547.859,326.37a6.3,6.3,0,0,1,1.919-4.794,7.125,7.125,0,0,1,5.113-1.818,6.842,6.842,0,0,1,4.909,1.687,5.885,5.885,0,0,1,1.779,4.481,6.775,6.775,0,0,1-2.064,5.038,7.125,7.125,0,0,1-5.2,2.026,6.83,6.83,0,0,1-3.385-.8,5.688,5.688,0,0,1-2.245-2.324A7.266,7.266,0,0,1,547.859,326.37Zm1.836-.742a8.385,8.385,0,0,0,.7,3.558,5.193,5.193,0,0,0,1.879,2.271,4.873,4.873,0,0,0,2.689.755,4.611,4.611,0,0,0,2.453-.642,4.349,4.349,0,0,0,1.652-1.918,7.232,7.232,0,0,0,.6-3.1,7.41,7.41,0,0,0-.665-3.278,4.712,4.712,0,0,0-1.825-2.048,5.268,5.268,0,0,0-2.743-.688,4.912,4.912,0,0,0-2.5.606,4.183,4.183,0,0,0-1.647,1.777A5.875,5.875,0,0,0,549.7,325.628Z" transform="translate(-106.132 -166.242)" style="fill:#0a5a5c"/><path d="M562.356,320.509v-.57q1.854.063,2.7.063.886,0,2.6-.063v.57H567q-.851,0-1.022.325a12.185,12.185,0,0,0-.172,2.949v3.545a11.6,11.6,0,0,0,.212,2.7,2.215,2.215,0,0,0,1.1,1.284,4.626,4.626,0,0,0,2.369.525,5.407,5.407,0,0,0,2.577-.561,2.309,2.309,0,0,0,1.059-1.207,9.54,9.54,0,0,0,.335-3.107v-3.409a8.641,8.641,0,0,0-.213-2.709q-.213-.339-1.171-.339H571.6v-.57q1.876.063,2.384.063.825,0,2.048-.063v.57h-.618q-.719,0-.923.384a9.213,9.213,0,0,0-.2,2.7v3.391a13.674,13.674,0,0,1-.231,3.134,3.531,3.531,0,0,1-.841,1.461,4.208,4.208,0,0,1-1.628,1.031,6.837,6.837,0,0,1-2.392.38,8.228,8.228,0,0,1-2.487-.339,4.279,4.279,0,0,1-1.606-.837,2.87,2.87,0,0,1-.778-1.216,8.7,8.7,0,0,1-.239-2.447l.018-1.718v-2.759a13.147,13.147,0,0,0-.149-2.858q-.15-.307-.954-.307Z" transform="translate(-106.132 -166.242)" style="fill:#0a5a5c"/><path d="M583.547,326.279q.885,1.275,2.2,2.966l1.736,2.252a3.3,3.3,0,0,0,.614.661.674.674,0,0,0,.318.081h.234v.57q-.75-.065-1.311-.064a9.664,9.664,0,0,0-1.085.064l-3.2-4.323q-.9-1.194-1.918-2.334l.09-.307q.525.045.778.045a3.381,3.381,0,0,0,2.365-.778,2.673,2.673,0,0,0,.854-2.08,2.334,2.334,0,0,0-.723-1.822,3.011,3.011,0,0,0-2.089-.656,5.494,5.494,0,0,0-1.908.353q-.11,1.439-.109,3.075v4.368a19.034,19.034,0,0,0,.154,3.541q.153.348,1,.348h.705v.57q-1.5-.065-2.486-.064-.779,0-2.814.064v-.57h.679q.777,0,.923-.339a20.665,20.665,0,0,0,.144-3.568v-4.35a14.007,14.007,0,0,0-.168-3.138q-.167-.336-1.089-.335h-.489v-.57q1.683.063,2.569.063.6,0,1.718-.045,1.3-.045,1.872-.045a6.578,6.578,0,0,1,2.374.33,2.48,2.48,0,0,1,1.651,2.446,3.191,3.191,0,0,1-.918,2.252A4.9,4.9,0,0,1,583.547,326.279Z" transform="translate(-106.132 -166.242)" style="fill:#0a5a5c"/><path d="M593.966,332.239h.569q.842,0,1.009-.407a21.594,21.594,0,0,0,.167-3.9v-3.066a25.294,25.294,0,0,0-.145-3.988q-.145-.37-.868-.371h-.732v-.57q1.5.063,2.971.063,1.224,0,2.22-.063v.57h-.7a1.343,1.343,0,0,0-.809.153,1.256,1.256,0,0,0-.191.778q-.046.969-.046,3.446v3.12a22.432,22.432,0,0,0,.155,3.876q.154.357.99.357h.6v.57q-1.115-.065-2.428-.064-1.532,0-2.763.064Z" transform="translate(-106.132 -166.242)" style="fill:#0a5a5c"/><path d="M602.638,321.979v6.252q0,2.136.082,2.977a1.426,1.426,0,0,0,.214.782,1.786,1.786,0,0,0,.868.2l.582.045v.57c-.659-.043-1.253-.064-1.786-.064q-.552,0-2.537.064v-.57h.652a1.23,1.23,0,0,0,.768-.163,1,1,0,0,0,.226-.642q.1-.995.1-2.7v-4.5q0-1.266-.027-2.5a1.581,1.581,0,0,0-.14-.719,1.18,1.18,0,0,0-.357-.349,1.207,1.207,0,0,0-.66-.153h-.561v-.57q1.149.063,1.754.063.652,0,1.43-.063.894,1.095,1.686,2.13t1.642,2.085l3.093,3.8q1.672,2.044,2.415,2.84v-5.806A27.579,27.579,0,0,0,611.95,321q-.132-.339-1.045-.43l-.679-.063v-.57q1.457.063,2.262.063.841,0,2.17-.063v.57h-.7q-.841,0-.968.561-.081.371-.081,3.961v4.079q0,1.645.144,3.934a9.826,9.826,0,0,1-1.428-.276,1.106,1.106,0,0,1-.38-.285q-1.005-1.113-2.108-2.469Z" transform="translate(-106.132 -166.242)" style="fill:#0a5a5c"/><path d="M621.3,332.954q-.406-1.214-.832-2.271l-3.238-8.094a20.368,20.368,0,0,0-.813-1.917c-.08-.109-.338-.163-.779-.163h-.37v-.57q1.413.063,2.4.063,1.046,0,2.5-.063v.57h-.893a1.284,1.284,0,0,0-.594.087.3.3,0,0,0-.135.268.9.9,0,0,0,.045.265l1.17,3.127,2.462,6.275,2.391-5.983a18.011,18.011,0,0,0,1.2-3.5q0-.411-.5-.429l-.369-.027-.777-.08v-.57q1.2.063,1.976.063.81,0,2.037-.063v.57h-.362a.839.839,0,0,0-.628.2,6.644,6.644,0,0,0-.7,1.443l-3.048,7.443a34.219,34.219,0,0,0-1.221,3.356Z" transform="translate(-106.132 -166.242)" style="fill:#0a5a5c"/><path d="M632.529,326.659v2.219l.009,1.278q0,1.2.027,1.748,1.322.1,2.835.1a13.27,13.27,0,0,0,1.7-.091,4.266,4.266,0,0,0,.942-.235q.227-.795.462-1.99h.6q-.243,1.987-.244,2.649l.019.408q-1.041.091-2.044.091l-1.42-.027q-2.352-.065-3.455-.064-1.057,0-2.813.064v-.57h.28a1.953,1.953,0,0,0,.991-.154,1.076,1.076,0,0,0,.271-.723q.067-.57.068-2.514v-4.966q0-1.221-.059-2a4.189,4.189,0,0,0-.126-.928.526.526,0,0,0-.2-.23,2.479,2.479,0,0,0-.778-.145l-.7-.072v-.57h.977l.959.032q.8.032,1.22.031l3.473-.052,1.646-.011c.561-.006,1.127.015,1.7.063a10.057,10.057,0,0,0-.38,2.8h-.615a11.453,11.453,0,0,0-.1-1.655,7.555,7.555,0,0,0-2.622-.4q-1.239,0-2.6.108.009.849-.018,1.7l-.018,1.39v1.832q.9.065,1.582.064a9.7,9.7,0,0,0,2.438-.15q.285-.148.285-.926v-.588h.615q-.065,1.365-.064,2.179,0,.859.064,2.026h-.615v-.525c0-.578-.114-.932-.339-1.062a7.677,7.677,0,0,0-2.393-.194Q633.342,326.6,632.529,326.659Z" transform="translate(-106.132 -166.242)" style="fill:#0a5a5c"/><path d="M648.42,320.545a10.377,10.377,0,0,0-.272,2.5h-.624v-.723a1.7,1.7,0,0,0-.19-.959,2.291,2.291,0,0,0-.991-.538,4.983,4.983,0,0,0-1.686-.285,3.314,3.314,0,0,0-2.274.731,2.394,2.394,0,0,0-.829,1.878,2.221,2.221,0,0,0,.34,1.242,1.928,1.928,0,0,0,.913.75,10.774,10.774,0,0,0,2.438.4,9.175,9.175,0,0,1,2.518.48,2.332,2.332,0,0,1,1.05.959,3.01,3.01,0,0,1,.393,1.566,4.009,4.009,0,0,1-1.519,3.131,5.989,5.989,0,0,1-4.052,1.312,8.874,8.874,0,0,1-1.75-.177,10.932,10.932,0,0,1-1.777-.52,18.826,18.826,0,0,0,.153-2.785h.616v.452a3.73,3.73,0,0,0,.09,1.085,1.187,1.187,0,0,0,.425.443,3.657,3.657,0,0,0,1.185.538,5.656,5.656,0,0,0,1.483.186,3.915,3.915,0,0,0,2.641-.805,2.584,2.584,0,0,0,.932-2.044,2.25,2.25,0,0,0-.317-1.225,1.909,1.909,0,0,0-.887-.747,7.733,7.733,0,0,0-2.107-.371,9.777,9.777,0,0,1-2.776-.488,2.48,2.48,0,0,1-1.149-1.026,3.367,3.367,0,0,1-.416-1.741,3.663,3.663,0,0,1,1.276-2.885,5.154,5.154,0,0,1,3.527-1.122,8.627,8.627,0,0,1,1.813.195A9.58,9.58,0,0,1,648.42,320.545Z" transform="translate(-106.132 -166.242)" style="fill:#0a5a5c"/><path d="M656.089,320.762q-.1,1.356-.1,2.858v5.155a16.167,16.167,0,0,0,.144,3.17q.144.294,1.032.294h.677v.57q-1.6-.065-2.712-.064t-2.7.064v-.57h.76a1.284,1.284,0,0,0,.777-.158.939.939,0,0,0,.227-.62q.089-1.058.09-2.731v-5.164q0-1.528-.063-2.8H653.3a13.423,13.423,0,0,0-2.454.1q-.225.1-.3.81l-.126,1.212h-.57l.019-1.077q0-.651-.109-1.872,4.884.063,5.743.063l5-.063q-.171,1.529-.2,2.949h-.569l-.091-1.185a1.714,1.714,0,0,0-.153-.729.685.685,0,0,0-.444-.14q-.994-.072-2.26-.072Z" transform="translate(-106.132 -166.242)" style="fill:#0a5a5c"/><path d="M674.5,321.892l-2.689,5.594q-1.512,3.15-2.479,5.5h-.363q-.333-.806-1.919-4.138l-3.24-6.709v6.993a9.729,9.729,0,0,0,.2,2.773c.13.22.536.33,1.214.33h.336v.57q-1.26-.065-2.048-.064-.57,0-2.275.064v-.57h.588a1.286,1.286,0,0,0,.8-.172.921.921,0,0,0,.244-.624q.117-1.266.118-2.731v-5.119a22.6,22.6,0,0,0-.082-2.451.631.631,0,0,0-.266-.47,1.747,1.747,0,0,0-.918-.163h-.48v-.57q1.575.063,1.981.063.516,0,1.466-.063,1.1,2.435,2.526,5.366l2.381,4.9,2.2-4.534q1.158-2.38,2.642-5.728,1.131.063,1.592.063c.357,0,1-.021,1.927-.063v.57h-.591q-.8,0-.977.276a5.739,5.739,0,0,0-.177,1.985v6.611a8.7,8.7,0,0,0,.185,2.532q.188.325,1.041.326h.519v.57q-1.257-.065-2.406-.064-1.266,0-2.65.064v-.57h.6c.476,0,.765-.1.864-.312a11.8,11.8,0,0,0,.149-2.682Z" transform="translate(-106.132 -166.242)" style="fill:#0a5a5c"/><path d="M682.435,326.659v2.219l.009,1.278q0,1.2.027,1.748,1.322.1,2.835.1a13.27,13.27,0,0,0,1.7-.091,4.266,4.266,0,0,0,.942-.235q.226-.795.462-1.99h.6q-.243,1.987-.244,2.649l.019.408q-1.039.091-2.044.091l-1.42-.027q-2.351-.065-3.455-.064-1.058,0-2.813.064v-.57h.281a1.951,1.951,0,0,0,.99-.154,1.066,1.066,0,0,0,.271-.723q.067-.57.068-2.514v-4.966q0-1.221-.059-2a4.189,4.189,0,0,0-.126-.928.526.526,0,0,0-.195-.23,2.477,2.477,0,0,0-.777-.145l-.7-.072v-.57h.977l.959.032q.8.032,1.221.031l3.472-.052,1.647-.011q.84-.009,1.7.063a10.057,10.057,0,0,0-.38,2.8h-.615a11.311,11.311,0,0,0-.1-1.655,7.555,7.555,0,0,0-2.622-.4q-1.239,0-2.6.108.009.849-.018,1.7l-.018,1.39v1.832q.9.065,1.582.064a9.7,9.7,0,0,0,2.438-.15q.285-.148.285-.926v-.588h.615q-.064,1.365-.063,2.179,0,.859.063,2.026h-.615v-.525q0-.867-.339-1.062a7.668,7.668,0,0,0-2.393-.194Q683.249,326.6,682.435,326.659Z" transform="translate(-106.132 -166.242)" style="fill:#0a5a5c"/><path d="M692.628,321.979v6.252q0,2.136.082,2.977a1.418,1.418,0,0,0,.214.782,1.779,1.779,0,0,0,.868.2l.582.045v.57q-.988-.065-1.786-.064-.553,0-2.538.064v-.57h.652a1.23,1.23,0,0,0,.768-.163.985.985,0,0,0,.226-.642q.1-.995.1-2.7v-4.5q0-1.266-.028-2.5a1.571,1.571,0,0,0-.139-.719,1.184,1.184,0,0,0-.358-.349,1.207,1.207,0,0,0-.66-.153h-.561v-.57Q691.2,320,691.8,320q.653,0,1.43-.063.9,1.095,1.687,2.13t1.641,2.085l3.093,3.8q1.673,2.044,2.415,2.84v-5.806a27.579,27.579,0,0,0-.131-3.984q-.132-.339-1.045-.43l-.678-.063v-.57q1.455.063,2.261.063.842,0,2.17-.063v.57h-.7q-.841,0-.968.561-.081.371-.081,3.961v4.079q0,1.645.145,3.934a9.855,9.855,0,0,1-1.429-.276,1.106,1.106,0,0,1-.38-.285q-1.005-1.113-2.107-2.469Z" transform="translate(-106.132 -166.242)" style="fill:#0a5a5c"/><path d="M711.666,320.762q-.1,1.356-.1,2.858v5.155a16.027,16.027,0,0,0,.145,3.17q.143.294,1.031.294h.678v.57q-1.6-.065-2.713-.064t-2.7.064v-.57h.76a1.288,1.288,0,0,0,.778-.158.939.939,0,0,0,.226-.62q.09-1.058.09-2.731v-5.164q0-1.528-.063-2.8h-.92a13.43,13.43,0,0,0-2.455.1q-.225.1-.3.81l-.126,1.212h-.571l.019-1.077q0-.651-.109-1.872,4.884.063,5.744.063l5-.063q-.173,1.529-.2,2.949h-.569l-.091-1.185a1.714,1.714,0,0,0-.153-.729.684.684,0,0,0-.443-.14q-1-.072-2.261-.072Z" transform="translate(-106.132 -166.242)" style="fill:#0a5a5c"/><path d="M264.414,224.564c14.283-3.589,26.5,3.836,38.31,11.019,10.689,6.5,20.781,12.638,31.611,10.211,4.833-1.084,13.592-7.887,13.68-7.955l1.459,1.493c-9.363,11.448-17.11,13.326-20.832,14.227a29.822,29.822,0,0,1-7.058.859c-12.527,0-22.656-8.169-31.759-15.51-8.468-6.829-16.466-13.273-25.034-12.283" transform="translate(-106.132 -166.242)" style="fill:#fcc107"/><path d="M273.767,225.8c5.888,2.2,11.525,6.751,17.376,11.47,10.881,8.776,22.137,17.852,37,14.245a28.9,28.9,0,0,0,12.462-6.179,23.3,23.3,0,0,1-5.815,2.5c-11.647,2.616-22.1-3.738-33.162-10.466C292.766,231.985,283.664,226.45,273.767,225.8Z" transform="translate(-106.132 -166.242)" style="fill:#fcc107"/><path d="M313.624,223.611v19.836c0,10.168-.167,20.337-.167,30.5,0,5,0,10.168.167,15.169.167,5.5,3.334,10,9,10.5h18.336c6-.5,10.168-9.168,13-27.5H355.3l-1.5,27.5v1.334H293.121v-1.334h.333c7.835,0,9.668-6.668,9.668-13.5-.166,0-.166-9.336-.166-22V222.61c.166-8.335.166-15.5.166-20v-4a13.483,13.483,0,0,0-2-6.168,8.718,8.718,0,0,0-6.5-3.833h-1.5v-1.334l52.767,0c16.922-.016,4.026,1.06,8.536.368.5,10.5.54,17.8,1.207,28.3H354.3c-1-6.334-3.834-26.837-13.836-27.337H313.624v33.339" transform="translate(-106.132 -166.242)" style="fill:#0a5a5c"/><path d="M264.67,225.583c26.646-6.7,46.473,26.492,69.894,21.236,5.119-1.149,14.1-8.152,14.1-8.152-8.746,10.693-15.861,12.8-20.266,13.872-27.7,6.716-43.488-29.312-63.725-26.956" transform="translate(-106.132 -166.242)" style="fill:#0a5a5c"/><rect x="39.605" y="26.828" width="4.195" height="19.559" rx="1.132" style="fill:#fcc107"/><rect x="39.605" y="26.828" width="4.195" height="19.559" rx="1.132" style="fill:#fcc107"/><path d="M176.756,251.93v12.586c0,6.451-.1,12.9-.1,19.354,0,3.173,0,6.452.1,9.625.106,3.489,2.115,6.345,5.711,6.662H194.1c3.807-.317,6.451-5.816,8.249-17.45h.846l-.951,17.45V301h-38.5v-.846h.211c4.971,0,6.134-4.23,6.134-8.566-.106,0-.106-5.923-.106-13.961V251.3c.106-5.288.106-9.836.106-12.691v-2.539a8.559,8.559,0,0,0-1.269-3.913,5.531,5.531,0,0,0-4.124-2.432h-.952v-.846h15.97c10.047-.106,20.834-.318,22.632-1.8.318,6.663.635,13.326,1.058,19.989h-.846c-.635-4.019-2.433-17.028-8.778-17.345H176.756v21.152" transform="translate(-106.132 -166.242)" style="fill:#0a5a5c"/><path d="M163.6,264.04" transform="translate(-106.132 -166.242)" style="fill:none;stroke:#1d1d1b;stroke-miterlimit:10;stroke-width:0.25px"/><path d="M163.708,264.015" transform="translate(-106.132 -166.242)" style="fill:none;stroke:#1d1d1b;stroke-miterlimit:10;stroke-width:0.25px"/><path d="M155.519,278" transform="translate(-106.132 -166.242)" style="fill:#1d1d1b"/><path d="M143.5,271.973" transform="translate(-106.132 -166.242)" style="fill:#1d1d1b"/><path d="M163.6,264.04" transform="translate(-106.132 -166.242)" style="fill:none;stroke:#1d1d1b;stroke-miterlimit:10;stroke-width:0.25px"/><path d="M163.708,264.015" transform="translate(-106.132 -166.242)" style="fill:none;stroke:#1d1d1b;stroke-miterlimit:10;stroke-width:0.25px"/><rect x="198.015" y="246.702" width="65.562" height="4.699" rx="1.268" transform="translate(373.715 -147.986) rotate(90)" style="fill:#fcc107"/><path d="M136.483,221.034a2.046,2.046,0,0,1-1.729-.943l-.732-1.138a2.054,2.054,0,0,1,.616-2.839l47.64-30.646a2.053,2.053,0,0,1,2.839.616l.732,1.139a2.053,2.053,0,0,1-.616,2.838l-47.641,30.647a2.049,2.049,0,0,1-1.109.326Z" transform="translate(-106.132 -166.242)" style="fill:#fcc107"/><path d="M176.866,271.474c-9.039,0-16.18-5.767-22.6-10.952-6.178-4.988-12.013-9.7-18.661-8.913l-.059-.5c6.86-.814,12.774,3.965,19.037,9.022,7.917,6.393,16.1,13,27.521,10.189,2.492-.614,7.484-1.846,13.632-8.789-2.278,1.655-6.225,4.309-8.886,4.916-8.539,1.948-16.011-2.867-23.923-7.965-8.357-5.384-17-10.952-27.289-8.321l-.125-.488c10.5-2.685,19.239,2.943,27.687,8.386,7.82,5.038,15.2,9.8,23.538,7.9,3.742-.854,10.41-6.117,10.477-6.171l.353.356c-6.911,8.591-12.606,9.994-15.343,10.669A22.313,22.313,0,0,1,176.866,271.474Z" transform="translate(-106.132 -166.242)" style="fill:#fcc107"/><path d="M163.5,301.255V299.9h.463c3.958,0,5.807-3.017,5.808-8.609h0c.014-.456,0-1.1-.018-3.67-.014-2.486-.014-5.976-.014-10V251.3c.106-5.29.106-9.923.106-12.691v-2.539a8.254,8.254,0,0,0-1.229-3.777,5.249,5.249,0,0,0-3.94-2.317H163.5v-1.35h16.222c7.711-.081,20.622-.217,22.472-1.74l.388-.32.028.582c.311,6.524.632,13.27,1.053,19.905l.018.268h-1.331l-.1-.67c-.7-4.48-2.553-16.379-8.47-16.675H177.008v34.543c0,3.227-.027,6.507-.052,9.679s-.053,6.451-.053,9.675c0,3.17,0,6.447.105,9.616.11,3.616,2.261,6.136,5.481,6.42H194.1c3.682-.307,6.23-5.785,8-17.237l.033-.213h1.328l-.966,17.716v1.084Z" transform="translate(-106.132 -166.242)" style="fill:#fcc107"/><path d="M176.756,251.93v12.586c0,6.451-.1,12.9-.1,19.354,0,3.173,0,6.452.1,9.625.106,3.488,2.114,6.344,5.708,6.662H194.1c3.8-.316,6.444-5.8,8.242-17.4a.055.055,0,0,1,.054-.046h.742a.054.054,0,0,1,.054.057l-.948,17.392v.793a.055.055,0,0,1-.055.054H163.8a.054.054,0,0,1-.054-.054v-.792h.211c4.971,0,6.134-4.23,6.134-8.566,0,.3-.106-5.923-.106-13.961V251.3c.106-5.288.106-9.836.106-12.691v-2.541a8.559,8.559,0,0,0-1.269-3.911,5.534,5.534,0,0,0-4.121-2.432h-.9a.054.054,0,0,1-.054-.054v-.738a.054.054,0,0,1,.054-.054h15.916c9.909-.1,20.539-.312,22.553-1.738a.053.053,0,0,1,.084.041c.315,6.61.63,13.22,1.049,19.83a.054.054,0,0,1-.054.058h-.742a.053.053,0,0,1-.053-.045c-.641-4.069-2.449-16.984-8.771-17.3H176.811a.054.054,0,0,0-.055.054V251.93Z" transform="translate(-106.132 -166.242)" style="fill:#0a5a5c"/><path d="M230.359,221.034a2.055,2.055,0,0,1-1.11-.326l-47.64-30.647a2.053,2.053,0,0,1-.616-2.838l.732-1.139a2.053,2.053,0,0,1,2.839-.616l47.64,30.647a2.053,2.053,0,0,1,.616,2.838l-.732,1.138A2.046,2.046,0,0,1,230.359,221.034Z" transform="translate(-106.132 -166.242)" style="fill:#fcc107"/><rect x="176.697" y="200.579" width="60.306" height="4.962" rx="1.338" transform="translate(36.612 -245.866) rotate(32.753)" style="fill:#0a5a5c"/><path d="M135.455,251.611a1.779,1.779,0,0,1-1.777-1.777V217.761a1.779,1.779,0,0,1,1.777-1.777H136.6a1.779,1.779,0,0,1,1.777,1.777v32.073a1.639,1.639,0,0,1-1.694,1.694l-1.22.083Z" transform="translate(-106.132 -166.242)" style="fill:#fcc107"/><path d="M136.6,216.237h-1.145a1.524,1.524,0,0,0-1.525,1.524v32.073a1.525,1.525,0,0,0,1.525,1.525l1.228-.083a1.387,1.387,0,0,0,1.442-1.442V217.761A1.524,1.524,0,0,0,136.6,216.237Z" transform="translate(-106.132 -166.242)" style="fill:#0a5a5c"/><path d="M155.519,278" transform="translate(-106.132 -166.242)" style="fill:#1d1d1b"/><path d="M143.5,271.973" transform="translate(-106.132 -166.242)" style="fill:#1d1d1b"/><rect x="129.715" y="200.579" width="60.306" height="4.962" rx="1.338" transform="translate(298.045 121.104) rotate(147.247)" style="fill:#0a5a5c"/><path d="M135.573,249.916c19.994-5.113,33.645,20.293,51.219,16.284,3.841-.877,10.578-6.219,10.578-6.219-6.563,8.157-11.9,9.768-15.207,10.582-20.783,5.124-31.4-21-46.59-19.2" transform="translate(-106.132 -166.242)" style="fill:#0a5a5c"/><rect x="122.562" y="50.265" width="4.198" height="65.118" rx="1.132" style="fill:#0a5a5c"/><circle cx="77.874" cy="77.874" r="77.374" style="fill:none;stroke:#0a5a5c;stroke-miterlimit:10"/></svg>